<svg xmlns="http://www.w3.org/2000/svg" width="210" height="380" viewBox="0 0 210 380">
  <title>pz-vcv-template-narrow</title>
  <g id="Layer_3" data-name="Layer 3">
    <rect width="210" height="380" style="fill: #fffffd"/>
  </g>
  <g id="SHADING">
    <rect y="230" width="210" height="65" style="fill: #ededed"/>
    <rect y="100" width="210" height="65" style="fill: #ededed"/>
  </g>
  <g id="Layer_4" data-name="Layer 4">
    <line x1="15" y1="270" x2="105" y2="270" style="fill: none;stroke: #000;stroke-miterlimit: 10;stroke-width: 0.9px"/>
    <line x1="15" y1="205.5" x2="105" y2="205.5" style="fill: none;stroke: #000;stroke-miterlimit: 10;stroke-width: 0.9px"/>
    <polyline points="80 140 15 140 15 141 15 344" style="fill: none;stroke: #000;stroke-miterlimit: 10;stroke-width: 0.9px"/>
    <line x1="194.5" y1="140" x2="150.5" y2="140" style="fill: none;stroke: #000;stroke-miterlimit: 10;stroke-width: 0.9px"/>
    <line x1="195" y1="205" x2="150.5" y2="205" style="fill: none;stroke: #000;stroke-miterlimit: 10;stroke-width: 0.9px"/>
    <line x1="195" y1="270.5" x2="150.5" y2="270.5" style="fill: none;stroke: #000;stroke-miterlimit: 10;stroke-width: 0.9px"/>
    <line x1="49.5" y1="335" x2="94.5" y2="335" style="fill: none;stroke: #000;stroke-miterlimit: 10;stroke-width: 0.9px"/>
    <line x1="50.5" y1="75" x2="95.5" y2="75" style="fill: none;stroke: #000;stroke-miterlimit: 10;stroke-width: 0.9px"/>
    <polyline points="195 335.5 150 335.5 150 140.5" style="fill: none;stroke: #000;stroke-miterlimit: 10;stroke-width: 0.9px"/>
  </g>
  <g id="Layer_10" data-name="Layer 10">
    <rect x="180" y="305" width="30" height="45" rx="5.04"/>
  </g>
  <g id="text">
    <rect x="35" y="245" width="30" height="10" style="fill: #ededed"/>
    <rect x="130" y="235" width="40" height="10" style="fill: #ededed"/>
    <g>
      <path d="M49.68,317.63a.41.41,0,0,1-.13.32.43.43,0,0,1-.31.12H47.66a.41.41,0,0,1-.31-.12.44.44,0,0,1-.12-.32v-5.24a.41.41,0,0,1,.43-.43h1.58a.43.43,0,0,1,.31.12.39.39,0,0,1,.13.31v1.42h-.55v-1.37H47.77v5.15h1.36v-1.51h.55Z"/>
      <path d="M53,312l-1,6.12h-.52L50.38,312h.54l.76,4.86,0,.4c0-.09,0-.22,0-.4l.76-4.86Z"/>
    </g>
    <g>
      <path d="M85.63,307.87a.51.51,0,0,1-.54.54H83.17a.57.57,0,0,1-.4-.15.53.53,0,0,1-.15-.39v-1.94h.68v1.88H85V306l-2.11-2.55a.88.88,0,0,1-.22-.58v-1.55a.53.53,0,0,1,.15-.39.57.57,0,0,1,.4-.15h1.92a.51.51,0,0,1,.54.54v1.78H85v-1.72H83.3V303l2.12,2.55a.87.87,0,0,1,.21.57Z"/>
      <path d="M90.61,308.41H90v-4.84A5.56,5.56,0,0,1,90,303l-1.25,4.72h-.14L87.4,303a5.56,5.56,0,0,1,.07.6v4.84h-.64v-7.64h.63l1.24,5a1.59,1.59,0,0,1,0,.22s0-.12,0-.22l1.24-5h.63Z"/>
      <path d="M95.06,307.87a.5.5,0,0,1-.16.39.53.53,0,0,1-.39.15H92.37a.51.51,0,0,1-.54-.54v-6.56a.51.51,0,0,1,.54-.54h2.14a.53.53,0,0,1,.39.15.5.5,0,0,1,.16.39Zm-.68-.06v-6.44H92.51v6.44Z"/>
      <path d="M99.5,307.87a.51.51,0,0,1-.54.54H96.82a.51.51,0,0,1-.54-.54v-6.56a.51.51,0,0,1,.54-.54H99a.51.51,0,0,1,.54.54Zm-.67-.06v-6.44H97v6.44Z"/>
      <path d="M103.36,301.37h-1.18v7h-.68v-7h-1.19v-.6h3Z"/>
      <path d="M107.35,308.41h-.68v-3.67h-1.84v3.67h-.68v-7.64h.68v3.36h1.84v-3.36h.68Z"/>
    </g>
    <g>
      <path d="M193.16,317.63a.44.44,0,0,1-.12.32.43.43,0,0,1-.31.12H191a.41.41,0,0,1-.44-.44v-5.24a.41.41,0,0,1,.12-.31A.41.41,0,0,1,191,312h1.71a.4.4,0,0,1,.31.13.41.41,0,0,1,.12.31Zm-.54,0v-5.16h-1.49v5.16Z" style="fill: #f2f2f2"/>
      <path d="M196.68,317.63a.44.44,0,0,1-.13.32.41.41,0,0,1-.31.12h-1.67a.43.43,0,0,1-.31-.12.44.44,0,0,1-.12-.32V312h.54v5.64h1.45V312h.55Z" style="fill: #f2f2f2"/>
      <path d="M199.76,312.43h-.95v5.64h-.54v-5.64h-1V312h2.44Z" style="fill: #f2f2f2"/>
    </g>
    <g>
      <path d="M49.68,252.63a.41.41,0,0,1-.13.32.43.43,0,0,1-.31.12H47.66a.41.41,0,0,1-.31-.12.44.44,0,0,1-.12-.32v-5.24a.41.41,0,0,1,.12-.31.38.38,0,0,1,.31-.12h1.58a.39.39,0,0,1,.31.12.39.39,0,0,1,.13.31v1.42h-.55v-1.37H47.77v5.15h1.36v-1.51h.55Z"/>
      <path d="M53,247l-1,6.12h-.52L50.38,247h.54l.76,4.86,0,.4c0-.09,0-.22,0-.4l.76-4.86Z"/>
    </g>
    <g>
      <path d="M76,236.37H74.17v2.9h1.64v.61H74.17v3.53h-.68v-7.64H76Z"/>
      <path d="M80.06,242.87a.53.53,0,0,1-.15.39.57.57,0,0,1-.4.15H77.43a.51.51,0,0,1-.54-.54v-7.1h.68v7h1.81v-7h.68Z"/>
      <path d="M84.43,243.41H84l-2-5.62v5.62h-.64v-7.64h.51l2,5.52v-5.52h.64Z"/>
      <path d="M88.8,242a1.31,1.31,0,0,1-.4,1,1.36,1.36,0,0,1-1,.39H85.65v-7.64H87.4a1.39,1.39,0,0,1,1,.39,1.34,1.34,0,0,1,.39,1Zm-.68-.07v-4.75a.82.82,0,0,0-.24-.61.84.84,0,0,0-.61-.23h-.94v6.44h.9a.94.94,0,0,0,.65-.23A.81.81,0,0,0,88.12,242Z"/>
      <path d="M93.07,243.41H92.4l-.27-1.7H90.61l-.27,1.7h-.65v0l1.36-7.64h.67Zm-1-2.3L91.37,237l-.67,4.14Z"/>
      <path d="M97.77,243.41h-.64v-4.84a5.56,5.56,0,0,1,.07-.6L96,242.69h-.14L94.56,238a5.86,5.86,0,0,1,.07.6v4.84H94v-7.64h.63l1.24,5a1.81,1.81,0,0,1,0,.22c0-.05,0-.12,0-.22l1.24-5h.63Z"/>
      <path d="M101.5,243.41H99v-7.64h2.48v.6h-1.8v2.85h1.64v.61H99.67v3h1.83Z"/>
      <path d="M105.71,243.41h-.47l-2-5.62v5.62h-.64v-7.64h.51l2,5.52v-5.52h.64Z"/>
      <path d="M109.56,236.37h-1.18v7h-.68v-7h-1.19v-.6h3Z"/>
      <path d="M113.44,243.41h-.67l-.27-1.7H111l-.27,1.7h-.65v0l1.36-7.64h.67Zm-1-2.3-.67-4.14-.67,4.14Z"/>
      <path d="M116.8,243.41h-2.44v-7.64H115v7h1.76Z"/>
    </g>
    <g>
      <path d="M194.68,252.63a.41.41,0,0,1-.13.32.43.43,0,0,1-.31.12h-1.58a.43.43,0,0,1-.31-.12.44.44,0,0,1-.12-.32v-5.24a.41.41,0,0,1,.12-.31.4.4,0,0,1,.31-.13h1.58a.4.4,0,0,1,.31.13.39.39,0,0,1,.13.31v1.42h-.55v-1.38h-1.36v5.16h1.36v-1.51h.55Z"/>
      <path d="M198,247l-1,6.13h-.52L195.38,247h.54l.76,4.87,0,.4c0-.09,0-.22,0-.4l.76-4.87Z"/>
    </g>
    <g>
      <path d="M144.16,243.41h-2.44v-7.64h.68v7h1.76Z"/>
      <path d="M147.6,243.41h-2.51v-7.64h2.48v.6h-1.8v2.85h1.64v.61h-1.64v3h1.83Z"/>
      <path d="M151.64,235.77l-1.32,7.66h-.64l-1.32-7.66H149l.95,6.08,0,.5c0-.12,0-.28,0-.5l1-6.08Z"/>
      <path d="M155.07,243.41h-2.51v-7.64H155v.6h-1.8v2.85h1.64v.61h-1.64v3h1.83Z"/>
      <path d="M158.57,243.41h-2.44v-7.64h.68v7h1.76Z"/>
    </g>
    <rect x="130" y="170" width="40" height="10" style="fill: #fffffd"/>
    <g>
      <path d="M144.16,178.41h-2.44v-7.64h.68v7h1.76Z"/>
      <path d="M147.6,178.41h-2.51v-7.64h2.48v.6h-1.8v2.85h1.64v.61h-1.64v3h1.83Z"/>
      <path d="M151.64,170.77l-1.32,7.66h-.64l-1.32-7.66H149l.95,6.08,0,.5c0-.12,0-.28,0-.5l1-6.08Z"/>
      <path d="M155.07,178.41h-2.51v-7.64H155v.6h-1.8v2.85h1.64v.61h-1.64v3h1.83Z"/>
      <path d="M158.57,178.41h-2.44v-7.64h.68v7h1.76Z"/>
    </g>
    <rect x="130" y="105" width="40" height="10" style="fill: #ededed"/>
    <g>
      <path d="M144.16,113.41h-2.44v-7.64h.68v7h1.76Z"/>
      <path d="M147.6,113.41h-2.51v-7.64h2.48v.6h-1.8v2.85h1.64v.61h-1.64v3h1.83Z"/>
      <path d="M151.64,105.77l-1.32,7.66h-.64l-1.32-7.66H149l.95,6.08,0,.5c0-.12,0-.28,0-.5l1-6.08Z"/>
      <path d="M155.07,113.41h-2.51v-7.64H155v.6h-1.8v2.85h1.64v.61h-1.64v3h1.83Z"/>
      <path d="M158.57,113.41h-2.44v-7.64h.68v7h1.76Z"/>
    </g>
    <rect y="245" width="30" height="10" style="fill: #ededed"/>
    <g>
      <path d="M12,253.07H10.06V247h.54v5.63H12Z"/>
      <path d="M13.33,253.07h-.55V247h.55Z"/>
      <path d="M16.87,253.07h-.38l-1.63-4.5v4.5h-.51V247h.4l1.6,4.41V247h.52Z"/>
      <path d="M20.39,253.07h-.6l-1.41-2.94v2.94h-.54V247h.54v2.74L19.67,247h.59v0l-1.39,2.91Z"/>
    </g>
    <g>
      <path d="M49.68,57.29a.42.42,0,0,1-.13.32.43.43,0,0,1-.31.12H47.66a.41.41,0,0,1-.31-.12.45.45,0,0,1-.12-.32V52.05a.45.45,0,0,1,.12-.32.41.41,0,0,1,.31-.12h1.58a.43.43,0,0,1,.31.12.42.42,0,0,1,.13.32v1.42h-.55V52.09H47.77v5.16h1.36V55.74h.55Z"/>
      <path d="M53,51.61l-1,6.13h-.52l-1.06-6.13h.54l.76,4.87,0,.4c0-.09,0-.22,0-.4l.76-4.87Z"/>
    </g>
    <g>
      <path d="M83.15,40.77l-1,7.66h-.55l-.83-5.76c0-.1,0-.25,0-.45,0,.1,0,.25,0,.45l-.83,5.76h-.55l-1-7.66h.67l.65,5.51c0,.12,0,.31,0,.55,0-.13,0-.31,0-.55l.79-5.51H81l.79,5.51c0,.12,0,.31,0,.55,0-.13,0-.31,0-.55l.65-5.51Z"/>
      <path d="M87.14,48.41h-.68l-.26-1.7H84.68l-.27,1.7h-.66v0l1.37-7.64h.67Zm-1-2.3L85.44,42l-.67,4.14Z"/>
      <path d="M91,40.77l-1.32,7.66h-.64l-1.33-7.66h.68l.95,6.08,0,.5c0-.11,0-.28,0-.5l1-6.08Z"/>
      <path d="M94.47,48.41H92V40.77h2.48v.6h-1.8v2.85h1.64v.61H92.64v3h1.83Z"/>
      <path d="M98,41.37H96.21v2.9h1.64v.61H96.21v3.53h-.68V40.77H98Z"/>
      <path d="M102.15,47.87a.51.51,0,0,1-.54.54H99.47a.51.51,0,0,1-.54-.54V41.31a.51.51,0,0,1,.54-.54h2.14a.51.51,0,0,1,.54.54Zm-.68-.06V41.37H99.6v6.44Z"/>
      <path d="M106.63,48.41h-.72l-1.42-4.09.09-.14h1.22V41.37h-1.75v7h-.68V40.77h2.56a.51.51,0,0,1,.54.54v2.9c0,.37-.24.55-.74.55h-.42Z"/>
      <path d="M111.42,48.41h-.64V43.57a5.56,5.56,0,0,1,.07-.6l-1.25,4.72h-.14L108.21,43a5.56,5.56,0,0,1,.07.6v4.84h-.64V40.77h.63l1.24,5a1.59,1.59,0,0,1,0,.22c0-.05,0-.12,0-.22l1.24-5h.63Z"/>
    </g>
    <rect x="75" y="170" width="40" height="10" style="fill: #fffffd"/>
    <g>
      <path d="M80.84,177.87a.53.53,0,0,1-.15.39.55.55,0,0,1-.4.15H78.16a.53.53,0,0,1-.39-.15.53.53,0,0,1-.16-.39v-6.56a.53.53,0,0,1,.16-.39.53.53,0,0,1,.39-.15h2.13a.55.55,0,0,1,.4.15.53.53,0,0,1,.15.39Zm-.68-.06v-6.44H78.29v6.44Z"/>
      <path d="M85.05,170.77l-1.33,7.66h-.64l-1.32-7.66h.67l.95,6.08,0,.5c0-.12,0-.28,0-.5l1-6.08Z"/>
      <path d="M88.47,178.41H86v-7.64h2.48v.6h-1.8v2.85h1.64v.61H86.64v3h1.83Z"/>
      <path d="M92.79,178.41h-.72l-1.42-4.09.09-.14H92v-2.81H90.21v7h-.68v-7.64h2.56a.51.51,0,0,1,.54.54v2.9c0,.37-.24.55-.74.55h-.42Z"/>
      <path d="M96.43,171.37H95.25v7h-.68v-7H93.38v-.6h3.05Z"/>
      <path d="M100.46,177.87a.5.5,0,0,1-.16.39.53.53,0,0,1-.39.15H97.77a.51.51,0,0,1-.54-.54v-6.56a.51.51,0,0,1,.54-.54h2.14a.53.53,0,0,1,.39.15.5.5,0,0,1,.16.39Zm-.68-.06v-6.44H97.91v6.44Z"/>
      <path d="M104.83,178.41h-.47l-2-5.62v5.62h-.64v-7.64h.5l2,5.52v-5.52h.64Z"/>
      <path d="M108.56,178.41h-2.51v-7.64h2.48v.6h-1.8v2.85h1.64v.61h-1.64v3h1.83Z"/>
      <path d="M112.34,178.41h-.69v-5.3h-.3v0l.43-2.32h.56Z"/>
    </g>
    <rect y="115" width="30" height="10" style="fill: #ededed"/>
    <g>
      <path d="M12,123.07H10.06V117h.54v5.64H12Z"/>
      <path d="M13.33,123.07h-.55V117h.55Z"/>
      <path d="M16.87,123.07h-.38l-1.63-4.5v4.5h-.51V117h.4l1.6,4.42V117h.52Z"/>
      <path d="M20.39,123.07h-.6l-1.41-2.94v2.94h-.54V117h.54v2.75L19.67,117h.59v0l-1.39,2.91Z"/>
    </g>
    <g>
      <path d="M6.71,58.07H6.16V52h.55Z"/>
      <path d="M10.25,58.07H9.87l-1.63-4.5v4.5H7.73V52h.4l1.6,4.42V52h.52Z"/>
      <path d="M13.33,52.44h-.95v5.63h-.54V52.44h-.95V52h2.44Z"/>
      <path d="M16,58.07H14V52h2v.49H14.51v2.28h1.31v.48H14.51v2.39H16Z"/>
      <path d="M19.42,58.07h-.57l-1.14-3.28.08-.1h1V52.44h-1.4v5.63h-.54V52h2.05a.4.4,0,0,1,.31.13.41.41,0,0,1,.12.31v2.32c0,.29-.2.44-.59.44h-.34Z"/>
      <path d="M22.66,55.2a.41.41,0,0,1-.13.32.41.41,0,0,1-.31.12H20.78v2.43h-.55V52h2a.44.44,0,0,1,.44.44Zm-.55,0V52.44H20.78v2.72Z"/>
      <path d="M24,58.07h-.6v-.69H24Z"/>
    </g>
    <rect y="180" width="30" height="10" style="fill: #fffffd"/>
    <g>
      <path d="M12,188.07H10.06V182h.54v5.64H12Z"/>
      <path d="M13.33,188.07h-.55V182h.55Z"/>
      <path d="M16.87,188.07h-.38l-1.63-4.5v4.5h-.51V182h.4l1.6,4.42V182h.52Z"/>
      <path d="M20.39,188.07h-.6l-1.41-2.94v2.94h-.54V182h.54v2.75L19.67,182h.59v0l-1.39,2.91Z"/>
    </g>
    <rect y="310" width="30" height="10" style="fill: #fffffd"/>
    <g>
      <path d="M8.17,312l-1.06,6.12H6.6L5.54,312h.54l.76,4.86,0,.4a3.94,3.94,0,0,1,0-.4L7.65,312Z"/>
      <path d="M13.26,312l-2.58,6.08h-.52v0L12.74,312h.52Z"/>
      <path d="M18.08,317.63A.41.41,0,0,1,18,318a.41.41,0,0,1-.31.12H15.93a.41.41,0,0,1-.31-.12.41.41,0,0,1-.13-.32v-5.24a.39.39,0,0,1,.13-.31.38.38,0,0,1,.31-.12h1.71a.38.38,0,0,1,.31.12.39.39,0,0,1,.13.31Zm-.55,0v-5.15H16v5.15Z"/>
      <path d="M21.5,317.63a.44.44,0,0,1-.12.32.45.45,0,0,1-.32.12H19.49a.41.41,0,0,1-.44-.44v-5.24a.41.41,0,0,1,.12-.31.4.4,0,0,1,.32-.12h1.57a.41.41,0,0,1,.44.43v1.42H21v-1.37H19.6v5.15H21v-1.51h.54Z"/>
      <path d="M24.56,312.44h-.95v5.63h-.54v-5.63h-.95V312h2.44Z"/>
    </g>
    <g>
      <path d="M79.91,112.87a.5.5,0,0,1-.16.39.53.53,0,0,1-.39.15H77.22a.51.51,0,0,1-.54-.54v-6.56a.51.51,0,0,1,.54-.54h2.14a.53.53,0,0,1,.39.15.5.5,0,0,1,.16.39Zm-.68-.06v-6.44H77.36v6.44Z"/>
      <path d="M84.11,105.77l-1.32,7.66h-.64l-1.32-7.66h.67l1,6.08,0,.5c0-.11,0-.28,0-.5l.95-6.08Z"/>
      <path d="M87.54,113.41H85v-7.64h2.48v.6h-1.8v2.85h1.64v.61H85.71v3h1.83Z"/>
      <path d="M91.85,113.41h-.71l-1.42-4.09.09-.14H91v-2.81H89.28v7H88.6v-7.64h2.56a.51.51,0,0,1,.54.54v2.9c0,.37-.25.55-.74.55h-.42C91,111,91.41,112.19,91.85,113.41Z"/>
      <path d="M95.5,106.37H94.32v7h-.68v-7H92.45v-.6h3Z"/>
      <path d="M99.52,112.87a.53.53,0,0,1-.15.39.55.55,0,0,1-.4.15H96.84a.53.53,0,0,1-.39-.15.5.5,0,0,1-.16-.39v-6.56a.5.5,0,0,1,.16-.39.53.53,0,0,1,.39-.15H99a.55.55,0,0,1,.4.15.53.53,0,0,1,.15.39Zm-.68-.06v-6.44H97v6.44Z"/>
      <path d="M103.89,113.41h-.47l-2-5.62v5.62h-.64v-7.64h.51l2,5.52v-5.52h.64Z"/>
      <path d="M107.62,113.41h-2.51v-7.64h2.48v.6h-1.8v2.85h1.64v.61h-1.64v3h1.83Z"/>
      <path d="M113.48,113.41h-3v-.36l2.34-4.86v-1.82h-1.56v1.72h-.68v-1.78a.51.51,0,0,1,.54-.54h1.84a.51.51,0,0,1,.54.54v1.62a1.57,1.57,0,0,1-.18.67l-2,4.21h2.21Z"/>
    </g>
    <g>
      <path d="M69.47,15.42V23.1h-2V8.88h2v.61l.09,0a2.68,2.68,0,0,1,2-.79,3.49,3.49,0,0,1,3.37,3.65A3.54,3.54,0,0,1,71.42,16,3,3,0,0,1,69.47,15.42Zm0-4.28V14a4,4,0,0,0,1.7.33,1.85,1.85,0,0,0,1.75-2,1.85,1.85,0,0,0-1.75-2A2,2,0,0,0,69.47,11.14Z"/>
      <path d="M76.3,5.65h2v4l.08,0a3,3,0,0,1,2.34-1c1.39,0,2.54,1,2.54,3.06v4.09h-2v-4a1.32,1.32,0,0,0-1.36-1.51,2.05,2.05,0,0,0-1.58.75v4.74h-2Z"/>
      <path d="M90.11,9.35l.07,0V8.88h2v7h-2v-.67l-.09,0A2.71,2.71,0,0,1,88,16a3.48,3.48,0,0,1-3.38-3.64,3.56,3.56,0,0,1,3.52-3.65A2.94,2.94,0,0,1,90.11,9.35Zm.07,4.06V10.86a3.17,3.17,0,0,0-1.75-.47,1.84,1.84,0,0,0-1.75,2,1.87,1.87,0,0,0,3.5,1Z"/>
      <path d="M94.28,14a6.09,6.09,0,0,0,1.92.36c.58,0,1-.17,1-.57s-.2-.55-1.1-.73C94.81,12.73,94,12.07,94,11c0-1.47,1.31-2.22,2.77-2.22A6,6,0,0,1,99,9.21l-.29,1.57a5.67,5.67,0,0,0-1.84-.36c-.48,0-.9.18-.9.53s.16.52,1.1.7c1.37.28,2.21.84,2.21,2,0,1.58-1.41,2.31-2.93,2.31A6.64,6.64,0,0,1,94,15.53Z"/>
      <path d="M107.4,12.13V13h-5c.14,1,.75,1.38,2.07,1.4a4.93,4.93,0,0,0,2.06-.42l.35,1.47a5.09,5.09,0,0,1-2.41.6c-2.52,0-4.12-1.37-4.12-3.63A3.53,3.53,0,0,1,104,8.73,3.18,3.18,0,0,1,107.4,12.13Zm-4.92-.48h2.89A1.23,1.23,0,0,0,104,10.39,1.45,1.45,0,0,0,102.48,11.65Z"/>
      <path d="M113.53,14.37a4.82,4.82,0,0,0,2-.33l.39,1.59a6.22,6.22,0,0,1-2.37.39,5,5,0,0,1-5.1-5,5,5,0,0,1,5.1-5.05,5.86,5.86,0,0,1,2.37.41l-.39,1.57a5.83,5.83,0,0,0-2-.32A3.22,3.22,0,0,0,110.45,11,3.16,3.16,0,0,0,113.53,14.37Z"/>
      <path d="M116.62,6.07h7V7.22l-4.59,7h4.73v1.65h-7.27V14.73l4.57-7h-4.43Z"/>
      <path d="M130.67,13.71h-3.49l-.74,2.17h-2.13L128,6.07h2l3.64,9.81h-2.13Zm-2.94-1.6h2.39l-.92-2.73-.24-1h-.09l-.21,1Z"/>
      <path d="M134.7,6.07H138c2.46,0,3.84,1.39,3.84,3a2.83,2.83,0,0,1-1.75,2.62l2.32,4.16h-2.23l-2-3.75h-1.38v3.75h-2Zm2,1.66v2.74H138c1.23,0,1.82-.47,1.82-1.37s-.59-1.37-1.82-1.37Z"/>
      <g>
        <path d="M73.2,20.44a.34.34,0,0,1-.12.27.36.36,0,0,1-.28.11H71.48V23H71V17.6H72.8a.39.39,0,0,1,.28.1.35.35,0,0,1,.12.28Zm-.5,0V18H71.48V20.4Z"/>
        <path d="M76.31,23h-.5V20.38H74.47V23H74V17.6h.49V20h1.34V17.6h.5Z"/>
        <path d="M79.44,23H79l-.19-1.19H77.65L77.45,23H77v0l1-5.35h.49Zm-.75-1.62-.49-2.89-.49,2.89Z"/>
        <path d="M82.28,22.57a.33.33,0,0,1-.11.27.38.38,0,0,1-.28.11h-1.4a.42.42,0,0,1-.29-.11.37.37,0,0,1-.11-.27V21.21h.49v1.31h1.21V21.25l-1.54-1.78a.61.61,0,0,1-.16-.41V18a.38.38,0,0,1,.11-.28.41.41,0,0,1,.29-.1h1.4a.37.37,0,0,1,.28.1.34.34,0,0,1,.11.28v1.24h-.49V18H80.58v1.12l1.55,1.79a.6.6,0,0,1,.15.4Z"/>
        <path d="M85,23H83.16V17.6H85V18H83.65v2h1.2v.43h-1.2v2.08H85Z"/>
        <path d="M89.48,22a.91.91,0,0,1-.29.69,1.05,1.05,0,0,1-.73.28H87.18V17.6h1.28a1,1,0,0,1,.73.27.91.91,0,0,1,.29.69Zm-.5-.05V18.6a.54.54,0,0,0-.17-.42.61.61,0,0,0-.45-.16h-.68v4.5h.66a.69.69,0,0,0,.46-.15A.57.57,0,0,0,89,21.93Z"/>
        <path d="M90.87,23h-.5V17.6h.5Z"/>
        <path d="M94,22.57a.37.37,0,0,1-.11.27.39.39,0,0,1-.28.11H92.17a.39.39,0,0,1-.28-.11.33.33,0,0,1-.11-.27V21.21h.49v1.31h1.2V21.25l-1.53-1.78a.61.61,0,0,1-.16-.41V18a.34.34,0,0,1,.11-.28.39.39,0,0,1,.28-.1h1.41a.39.39,0,0,1,.28.1A.38.38,0,0,1,94,18v1.24h-.5V18h-1.2v1.12l1.54,1.79a.57.57,0,0,1,.16.4Z"/>
        <path d="M96.76,18H95.9V23h-.5V18h-.86V17.6h2.22Z"/>
        <path d="M99.69,22.57a.37.37,0,0,1-.11.27.42.42,0,0,1-.29.11H97.73a.39.39,0,0,1-.28-.11.37.37,0,0,1-.11-.27V18a.38.38,0,0,1,.11-.28.39.39,0,0,1,.28-.1h1.56a.41.41,0,0,1,.29.1.38.38,0,0,1,.11.28Zm-.49-.05V18H97.83v4.5Z"/>
        <path d="M103,23h-.52l-1-2.87.06-.09h.88V18h-1.27V23h-.49V17.6h1.86a.39.39,0,0,1,.29.1.38.38,0,0,1,.11.28v2c0,.25-.18.38-.54.38H102Z"/>
        <path d="M105.61,18h-.86V23h-.5V18h-.87V17.6h2.23Z"/>
        <path d="M106.71,23h-.49V17.6h.49Z"/>
        <path d="M110,22.57a.37.37,0,0,1-.11.27.42.42,0,0,1-.29.11H108a.39.39,0,0,1-.28-.11.37.37,0,0,1-.11-.27V18a.38.38,0,0,1,.11-.28.39.39,0,0,1,.28-.1h1.56a.41.41,0,0,1,.29.1A.38.38,0,0,1,110,18Zm-.49-.05V18h-1.37v4.5Z"/>
        <path d="M113.17,23h-.34L111.35,19V23h-.47V17.6h.37l1.46,3.86V17.6h.46Z"/>
        <path d="M117.84,22.57a.37.37,0,0,1-.11.27.42.42,0,0,1-.29.11h-1.56a.39.39,0,0,1-.28-.11.37.37,0,0,1-.11-.27V18a.38.38,0,0,1,.11-.28.39.39,0,0,1,.28-.1h1.56a.41.41,0,0,1,.29.1.38.38,0,0,1,.11.28Zm-.49-.05V18H116v4.5Z"/>
        <path d="M120.9,22.57a.37.37,0,0,1-.11.27.38.38,0,0,1-.28.11h-1.4a.42.42,0,0,1-.29-.11.37.37,0,0,1-.11-.27V21.21h.49v1.31h1.21V21.25l-1.54-1.78a.61.61,0,0,1-.16-.41V18a.38.38,0,0,1,.11-.28.41.41,0,0,1,.29-.1h1.4a.37.37,0,0,1,.28.1.38.38,0,0,1,.11.28v1.24h-.49V18H119.2v1.12l1.55,1.79a.6.6,0,0,1,.15.4Z"/>
        <path d="M124,22.57a.34.34,0,0,1-.12.27.4.4,0,0,1-.29.11h-1.43a.42.42,0,0,1-.29-.11.36.36,0,0,1-.1-.27V18a.37.37,0,0,1,.1-.28.41.41,0,0,1,.29-.1h1.43a.39.39,0,0,1,.29.1A.35.35,0,0,1,124,18v1.24h-.5V18h-1.24v4.5h1.24V21.21h.5Z"/>
        <path d="M125.39,23h-.49V17.6h.49Z"/>
        <path d="M128.1,23h-1.78V17.6h.5v4.92h1.28Z"/>
        <path d="M130.55,23h-1.77V17.6h.49v4.92h1.28Z"/>
        <path d="M133.47,23H133l-.19-1.19h-1.11L131.49,23H131v0l1-5.35h.49Zm-.75-1.62-.48-2.89-.49,2.89Z"/>
        <path d="M136.06,18h-.86V23h-.49V18h-.87V17.6h2.22Z"/>
        <path d="M139,22.57a.33.33,0,0,1-.11.27.4.4,0,0,1-.29.11H137a.42.42,0,0,1-.29-.11.37.37,0,0,1-.11-.27V18a.38.38,0,0,1,.11-.28.41.41,0,0,1,.29-.1h1.55a.39.39,0,0,1,.29.1A.34.34,0,0,1,139,18Zm-.49-.05V18h-1.36v4.5Z"/>
        <path d="M142.25,23h-.52l-1-2.87.07-.09h.88V18h-1.27V23h-.5V17.6h1.87a.39.39,0,0,1,.28.1.34.34,0,0,1,.11.28v2c0,.25-.18.38-.54.38h-.31C141.62,21.23,141.93,22.09,142.25,23Z"/>
      </g>
    </g>
    <g>
      <path d="M58.32,372.73h-.51v-3.87c0-.06,0-.22,0-.48l-1,3.77h-.11l-1-3.77a4.72,4.72,0,0,1,.06.48v3.87H55.3v-6.12h.5l1,4a1.11,1.11,0,0,1,0,.18,1.36,1.36,0,0,1,0-.18l1-4h.5Z"/>
      <path d="M61.76,372.73h-.54L61,371.37H59.79l-.21,1.36h-.52v0l1.09-6.11h.53Zm-.82-1.84-.54-3.32-.54,3.32Z"/>
      <path d="M65,371.62a1.08,1.08,0,0,1-.32.8,1.13,1.13,0,0,1-.8.31H62.5v-6.12h1.4a1.13,1.13,0,0,1,.8.31,1.09,1.09,0,0,1,.32.8Zm-.55-.05v-3.8a.64.64,0,0,0-.19-.49.68.68,0,0,0-.49-.19H63v5.16h.72a.73.73,0,0,0,.52-.19A.63.63,0,0,0,64.47,371.57Z"/>
      <path d="M68,372.73H66v-6.12h2v.48H66.51v2.29h1.31v.48H66.51v2.39H68Z"/>
      <path d="M71,372.73h-.55v-6.12H71Z"/>
      <path d="M74.5,372.73h-.37l-1.63-4.5v4.5H72v-6.12h.41L74,371v-4.42h.51Z"/>
      <path d="M79.5,372.29a.41.41,0,0,1-.13.32.43.43,0,0,1-.31.12H77.48a.41.41,0,0,1-.31-.12.44.44,0,0,1-.12-.32v-5.24a.45.45,0,0,1,.12-.32.41.41,0,0,1,.31-.12h1.58a.43.43,0,0,1,.31.12.42.42,0,0,1,.13.32v1.42H79v-1.38H77.59v5.16H79v-1.51h.55Z"/>
      <path d="M82.91,372.73h-.54l-.21-1.36H80.94l-.21,1.36H80.2v0l1.09-6.11h.54Zm-.82-1.84-.54-3.32L81,370.89Z"/>
      <path d="M85.6,372.73H83.65v-6.12h.54v5.64H85.6Z"/>
      <path d="M86.91,372.73h-.54v-6.12h.54Z"/>
      <path d="M89.9,367.09H88.48v2.32h1.31v.49H88.48v2.83h-.55v-6.12h2Z"/>
      <path d="M93.23,372.29a.44.44,0,0,1-.12.32.43.43,0,0,1-.31.12H91.09a.41.41,0,0,1-.44-.44v-5.24a.45.45,0,0,1,.12-.32.44.44,0,0,1,.32-.12H92.8a.43.43,0,0,1,.31.12.45.45,0,0,1,.12.32Zm-.54,0v-5.16H91.2v5.16Z"/>
      <path d="M96.81,372.73h-.57l-1.13-3.28.07-.11h1v-2.25h-1.4v5.64h-.54v-6.12h2.05a.41.41,0,0,1,.31.12.45.45,0,0,1,.12.32v2.32c0,.29-.2.44-.59.44h-.34Z"/>
      <path d="M100.15,372.73h-.38l-1.63-4.5v4.5h-.51v-6.12H98l1.6,4.42v-4.42h.52Z"/>
      <path d="M101.7,372.73h-.55v-6.12h.55Z"/>
      <path d="M105.18,372.73h-.54l-.21-1.36h-1.22l-.21,1.36h-.53v0l1.09-6.11h.54Zm-.82-1.84-.54-3.32-.54,3.32Z"/>
      <path d="M109.93,372.29a.44.44,0,0,1-.12.32.43.43,0,0,1-.31.12h-2v-6.12h2a.41.41,0,0,1,.31.12.45.45,0,0,1,.12.32v1.81a.49.49,0,0,1-.21.41l-.43.26.46.29a.45.45,0,0,1,.2.39Zm-.56-3.36v-1.84H108v2.21h.8Zm0,3.32v-2.12l-.55-.36H108v2.48Z"/>
      <path d="M113.34,366.65l-.75,2.47c-.09.25-.21.66-.37,1.24v2.37h-.54v-2.37a4.25,4.25,0,0,0-.17-.63l-.2-.61-.74-2.47v0h.55l.84,3.06.83-3.06h.55Z"/>
      <path d="M118.59,372.73h-.51v-3.87c0-.06,0-.22,0-.48l-1,3.77H117l-1-3.77a4.72,4.72,0,0,1,.06.48v3.87h-.51v-6.12h.5l1,4a1.11,1.11,0,0,1,0,.18,1.36,1.36,0,0,1,0-.18l1-4h.5Z"/>
      <path d="M122.15,372.29a.44.44,0,0,1-.12.32.45.45,0,0,1-.32.12H120a.41.41,0,0,1-.31-.12.44.44,0,0,1-.12-.32v-5.24a.45.45,0,0,1,.12-.32.41.41,0,0,1,.31-.12h1.71a.41.41,0,0,1,.44.44Zm-.54,0v-5.16h-1.5v5.16Z"/>
      <path d="M125.51,372.29a.44.44,0,0,1-.12.32.41.41,0,0,1-.31.12h-1.54a.45.45,0,0,1-.32-.12.44.44,0,0,1-.12-.32v-1.55h.54v1.51H125v-1.46l-1.68-2a.69.69,0,0,1-.18-.46v-1.24a.41.41,0,0,1,.44-.44h1.54a.41.41,0,0,1,.31.12.45.45,0,0,1,.12.32v1.42H125v-1.38h-1.32v1.29l1.7,2a.73.73,0,0,1,.17.46Z"/>
      <path d="M129.47,372.73h-.05l-.4-.32a.37.37,0,0,1-.4.32H126.9a.43.43,0,0,1-.31-.12.44.44,0,0,1-.12-.32v-5.24a.45.45,0,0,1,.12-.32.43.43,0,0,1,.31-.12h1.72a.41.41,0,0,1,.31.12.45.45,0,0,1,.12.32v4.81l.42.34Zm-1-.48V372l-.65-.54v-.54h0l.6.5v-4.34H127v5.16Z"/>
      <path d="M132.61,372.29a.44.44,0,0,1-.13.32.41.41,0,0,1-.31.12H130.5a.43.43,0,0,1-.31-.12.44.44,0,0,1-.12-.32v-5.68h.54v5.64h1.45v-5.64h.55Z"/>
      <path d="M134.16,372.73h-.55v-6.12h.55Z"/>
      <path d="M137.28,367.09h-.94v5.64h-.55v-5.64h-.95v-.48h2.44Z"/>
      <path d="M140.5,372.29a.44.44,0,0,1-.12.32.45.45,0,0,1-.32.12h-1.71a.41.41,0,0,1-.31-.12.44.44,0,0,1-.12-.32v-5.24a.45.45,0,0,1,.12-.32.41.41,0,0,1,.31-.12h1.71a.41.41,0,0,1,.44.44Zm-.54,0v-5.16h-1.5v5.16Z"/>
      <path d="M145,372.73h-2v-6.12h.55v5.64H145Z"/>
      <path d="M148.2,372.73h-.54l-.21-1.36h-1.22l-.21,1.36h-.52v0l1.09-6.11h.53Zm-.82-1.84-.54-3.32-.54,3.32Z"/>
      <path d="M151.39,372.29a.41.41,0,0,1-.44.44h-2v-6.12h2a.41.41,0,0,1,.31.12.45.45,0,0,1,.12.32v1.81a.48.48,0,0,1-.22.41l-.43.26.46.29a.44.44,0,0,1,.21.39Zm-.57-3.36v-1.84h-1.34v2.21h.8Zm0,3.32v-2.12l-.55-.36h-.81v2.48Z"/>
      <path d="M154.72,372.29a.44.44,0,0,1-.12.32.41.41,0,0,1-.31.12h-1.54a.41.41,0,0,1-.31-.12.41.41,0,0,1-.13-.32v-1.55h.55v1.51h1.32v-1.46l-1.69-2a.69.69,0,0,1-.18-.46v-1.24a.42.42,0,0,1,.13-.32.41.41,0,0,1,.31-.12h1.54a.41.41,0,0,1,.31.12.45.45,0,0,1,.12.32v1.42h-.54v-1.38h-1.32v1.29l1.69,2a.73.73,0,0,1,.17.46Z"/>
    </g>
    <g>
      <path d="M49.68,187.63a.41.41,0,0,1-.13.32.43.43,0,0,1-.31.12H47.66a.41.41,0,0,1-.31-.12.44.44,0,0,1-.12-.32v-5.24a.41.41,0,0,1,.12-.31.39.39,0,0,1,.31-.13h1.58a.4.4,0,0,1,.31.13.39.39,0,0,1,.13.31v1.42h-.55v-1.37H47.77v5.15h1.36v-1.51h.55Z"/>
      <path d="M53,182l-1,6.13h-.52L50.38,182h.54l.76,4.87,0,.4c0-.09,0-.22,0-.4l.76-4.87Z"/>
    </g>
    <g>
      <path d="M194.68,187.63a.41.41,0,0,1-.13.32.43.43,0,0,1-.31.12h-1.58a.43.43,0,0,1-.31-.12.44.44,0,0,1-.12-.32v-5.24a.41.41,0,0,1,.12-.31.4.4,0,0,1,.31-.13h1.58a.4.4,0,0,1,.31.13.39.39,0,0,1,.13.31v1.42h-.55v-1.37h-1.36v5.15h1.36v-1.51h.55Z"/>
      <path d="M198,182l-1,6.13h-.52L195.38,182h.54l.76,4.87,0,.4c0-.09,0-.22,0-.4l.76-4.87Z"/>
    </g>
    <g>
      <path d="M49.68,122.63a.41.41,0,0,1-.13.32.43.43,0,0,1-.31.12H47.66a.41.41,0,0,1-.31-.12.44.44,0,0,1-.12-.32v-5.24a.41.41,0,0,1,.12-.31.39.39,0,0,1,.31-.13h1.58a.4.4,0,0,1,.31.13.39.39,0,0,1,.13.31v1.42h-.55v-1.37H47.77v5.15h1.36v-1.51h.55Z"/>
      <path d="M53,117l-1,6.13h-.52L50.38,117h.54l.76,4.87,0,.4c0-.09,0-.22,0-.4l.76-4.87Z"/>
    </g>
    <g>
      <path d="M194.68,122.63a.41.41,0,0,1-.13.32.43.43,0,0,1-.31.12h-1.58a.43.43,0,0,1-.31-.12.44.44,0,0,1-.12-.32v-5.24a.41.41,0,0,1,.12-.31.4.4,0,0,1,.31-.13h1.58a.4.4,0,0,1,.31.13.39.39,0,0,1,.13.31v1.42h-.55v-1.37h-1.36v5.15h1.36v-1.51h.55Z"/>
      <path d="M198,117l-1,6.13h-.52L195.38,117h.54l.76,4.87,0,.4c0-.09,0-.22,0-.4l.76-4.87Z"/>
    </g>
    <rect x="135" y="310" width="30" height="10" style="fill: #fffffd"/>
    <g>
      <path d="M144.64,317.63a.44.44,0,0,1-.12.32.45.45,0,0,1-.32.12h-2V312h2a.39.39,0,0,1,.31.12.41.41,0,0,1,.12.31v1.82a.47.47,0,0,1-.22.4l-.43.26.46.3a.41.41,0,0,1,.21.39Zm-.57-3.35v-1.84h-1.34v2.2h.8Zm0,3.31v-2.12l-.55-.35h-.81v2.47Z"/>
      <path d="M148.17,317.63a.41.41,0,0,1-.13.32.41.41,0,0,1-.31.12H146a.41.41,0,0,1-.31-.12.44.44,0,0,1-.12-.32v-5.24a.41.41,0,0,1,.12-.31A.38.38,0,0,1,146,312h1.71a.38.38,0,0,1,.31.12.39.39,0,0,1,.13.31Zm-.54,0v-5.15h-1.5v5.15Z"/>
      <path d="M151.73,317.63a.41.41,0,0,1-.13.32.41.41,0,0,1-.31.12h-1.71a.41.41,0,0,1-.31-.12.41.41,0,0,1-.13-.32v-5.24a.39.39,0,0,1,.13-.31.38.38,0,0,1,.31-.12h1.71a.38.38,0,0,1,.31.12.39.39,0,0,1,.13.31Zm-.55,0v-5.15h-1.49v5.15Z"/>
      <path d="M155.09,317.63a.44.44,0,0,1-.12.32.43.43,0,0,1-.31.12h-1.54a.41.41,0,0,1-.44-.44v-1.55h.54v1.51h1.32v-1.46l-1.68-2a.7.7,0,0,1-.18-.46v-1.24a.41.41,0,0,1,.12-.31.4.4,0,0,1,.32-.12h1.54a.39.39,0,0,1,.31.12.41.41,0,0,1,.12.31v1.42h-.55v-1.37h-1.32v1.28l1.7,2a.73.73,0,0,1,.17.46Z"/>
      <path d="M158.15,312.44h-.94v5.63h-.55v-5.63h-.95V312h2.44Z"/>
    </g>
  </g>
  <g id="Layer_6" data-name="Layer 6">
    <g>
      <path d="M195.49,83.13a5.83,5.83,0,0,1-3.76,1.81,1.55,1.55,0,0,0-.53,0c-1.35.54-2.48,0-3.68-.62a9,9,0,0,0-3.58-1,13.45,13.45,0,0,0-5,.63c-.66.2-1.29.5-2,.66a8.74,8.74,0,0,1-5.59-.36A29.28,29.28,0,0,1,166,81.53,27.82,27.82,0,0,1,162.76,79c-1.39-1.27-2.66-2.67-4-4l.14-.13a4.35,4.35,0,0,1,.76.45c.61.57,1.19,1.15,1.76,1.75a34.64,34.64,0,0,0,5.26,4.41,21.81,21.81,0,0,0,3.2,1.62l.12.12-.12-.13a10,10,0,0,1-.68-.78c-.08-.1,0-.3,0-.45a2.14,2.14,0,0,1,.44.08c.05,0,.06.15.11.23,1,1.71,2.84,2.05,4.58,2.44a2,2,0,0,0,.76-.09L177,84A4.3,4.3,0,0,0,179,83a.55.55,0,0,1,.26-.05l.14.14c.92-.06,1.84-.1,2.76-.23a3.93,3.93,0,0,1,.88-.14,29.4,29.4,0,0,1,4.09.58c.49.13,1.31.18,1.51,1,0,.13.42.23.65.25A8.29,8.29,0,0,0,195.09,83a.55.55,0,0,1,.26-.05A.93.93,0,0,1,195.49,83.13Z" style="stroke: #000;stroke-miterlimit: 10;stroke-width: 0.36px"/>
      <path d="M148.39,72.6a19,19,0,0,1-2.06,1.76,27.31,27.31,0,0,0-3.43,2.72c-1.62,1.5-3.27,3-4.94,4.4a9.1,9.1,0,0,1-1.41.85.86.86,0,0,1-.13-.14c0-.13,0-.31.11-.36a36.44,36.44,0,0,0,4.84-4.1c1.44-1.31,3-2.52,4.51-3.72.74-.58,1.58-1,2.37-1.55Z" style="stroke: #000;stroke-miterlimit: 10;stroke-width: 0.36px"/>
      <path d="M148.25,72.46a3.8,3.8,0,0,1,2.25-1.52,5.58,5.58,0,0,1,3.8,0,7.07,7.07,0,0,1,1.87,1.1c.87.69,1.67,1.47,2.48,2.23a1.82,1.82,0,0,1,.27.56l-.14.13c-1.1-.9-2.19-1.82-3.31-2.7a5.29,5.29,0,0,0-4.31-1,8.4,8.4,0,0,0-2.1,1l-.67.34Z" style="stroke: #000;stroke-miterlimit: 10;stroke-width: 0.36px"/>
      <path d="M136.55,82.33a6.62,6.62,0,0,1-3,1.78,16.7,16.7,0,0,1-2.73.76c-.14,0-.32-.06-.47-.13a.28.28,0,0,1-.11-.22.22.22,0,0,1,.14-.16c.3,0,.61,0,.91-.09A5.84,5.84,0,0,0,134,83l.14.13c.46.36.66-.19,1-.3a9.15,9.15,0,0,0,1.25-.63A.86.86,0,0,0,136.55,82.33Z" style="stroke: #000;stroke-miterlimit: 10;stroke-width: 0.36px"/>
      <path d="M198.78,79.3c.51-.61,1-1.24,1.54-1.84a1.64,1.64,0,0,1,.55-.26.93.93,0,0,1,.14.14,4.08,4.08,0,0,1-2.09,2.1A1.85,1.85,0,0,1,198.78,79.3Z" style="stroke: #000;stroke-miterlimit: 10;stroke-width: 0.36px"/>
      <path d="M130.67,61.44c.43.17,1,.41,1.62.67.09,0,.12.21.18.32-.12,0-.26.16-.35.13-.44-.15-.88-.33-1.31-.51a4.3,4.3,0,0,1-.57-.28,1.57,1.57,0,0,1-.24-.21c.12,0,.23-.09.35-.12S130.44,61.44,130.67,61.44Z" style="stroke: #000;stroke-miterlimit: 10;stroke-width: 0.36px"/>
      <path d="M157.26,71.8c.66.26,1.33.52,2,.8.06,0,.07.21.05.32s-.14.14-.19.12c-.7-.29-1.39-.59-2.08-.91,0,0,0-.16,0-.23S157.17,71.84,157.26,71.8Z" style="stroke: #000;stroke-miterlimit: 10;stroke-width: 0.36px"/>
      <path d="M133.76,62.73l2.24.83c.06,0,.1.13.14.2a.8.8,0,0,1-.23.11,1.29,1.29,0,0,1-.52,0c-.6-.24-1.2-.5-1.79-.76-.07,0-.1-.17-.15-.25Z" style="stroke: #000;stroke-miterlimit: 10;stroke-width: 0.36px"/>
      <path d="M198.92,79.44a7.48,7.48,0,0,1-1.85,2.1l-.14-.13c.31-1,1.2-1.43,1.85-2.11A1.85,1.85,0,0,0,198.92,79.44Z" style="stroke: #000;stroke-miterlimit: 10;stroke-width: 0.36px"/>
      <path d="M165.94,75.11l2.25,1.07s.06.17,0,.21a.25.25,0,0,1-.22.09c-.72-.26-1.44-.53-2.15-.82-.08,0-.13-.2-.14-.32S165.82,75.23,165.94,75.11Z" style="stroke: #000;stroke-miterlimit: 10;stroke-width: 0.36px"/>
      <path d="M161.84,70.72a1.19,1.19,0,0,1,.26.15,5.55,5.55,0,0,1,1.17,2.06s-.07.08-.08.07a4.87,4.87,0,0,1-1.45-1.94C161.7,71,161.81,70.84,161.84,70.72Z" style="stroke: #000;stroke-miterlimit: 10;stroke-width: 0.36px"/>
      <path d="M139.63,65.11s0,.1,0,.12-.13.13-.18.11c-.68-.24-1.36-.48-2-.75-.07,0-.1-.21-.1-.32s.14-.16.17-.15c.71.28,1.41.58,2.11.88C139.61,65,139.62,65.07,139.63,65.11Z" style="stroke: #000;stroke-miterlimit: 10;stroke-width: 0.36px"/>
      <path d="M147.11,63.35c-.14-.05-.24-.07-.28-.12a.23.23,0,0,1,0-.22,3.38,3.38,0,0,1,.87-.75c.27-.11.41-.61.83-.34a4,4,0,0,1-.55.81A6.46,6.46,0,0,1,147.11,63.35Z" style="stroke: #000;stroke-miterlimit: 10;stroke-width: 0.36px"/>
      <path d="M182.87,81.65l1,.44c.42.19.82.4,1.23.6-.54.39-1-.17-1.45-.22a3.24,3.24,0,0,1-.93-.39.27.27,0,0,1-.11-.22S182.72,81.77,182.87,81.65Z" style="stroke: #000;stroke-miterlimit: 10;stroke-width: 0.36px"/>
      <path d="M178.7,80.1l2.08.85s.08.16.05.19-.16.11-.22.09c-.69-.21-1.38-.43-2.06-.68-.07,0-.11-.2-.13-.31S178.55,80.17,178.7,80.1Z" style="stroke: #000;stroke-miterlimit: 10;stroke-width: 0.36px"/>
      <path d="M173,78.34s-.1,0-.13,0l-2.16-1s.07-.08.1-.08a4.43,4.43,0,0,1,2.25.74c.06,0,.1.13.16.19Z" style="stroke: #000;stroke-miterlimit: 10;stroke-width: 0.36px"/>
      <path d="M163.85,74.72c-.08,0-.2.1-.27.07-.72-.3-1.43-.61-2.13-.92-.07,0-.12-.12-.17-.18s.15-.13.21-.12a4.92,4.92,0,0,1,2.35,1S163.85,74.61,163.85,74.72Z" style="stroke: #000;stroke-miterlimit: 10;stroke-width: 0.36px"/>
      <path d="M153.13,60.85a5,5,0,0,1,.61.28c.31.21.88.12.86.73-.3-.09-.6-.2-.9-.27a4,4,0,0,1-.63-.1,2.12,2.12,0,0,1-.46-.39Z" style="stroke: #000;stroke-miterlimit: 10;stroke-width: 0.36px"/>
      <path d="M182.61,79.58c-.32.41-.67.88-1,1.34,0,0-.19,0-.22,0s-.15-.26-.11-.32c.32-.46.67-.9,1-1.34,0,0,.16,0,.21,0S182.53,79.38,182.61,79.58Z" style="stroke: #000;stroke-miterlimit: 10;stroke-width: 0.36px"/>
      <path d="M143.35,66.52c-.09,0-.2.15-.25.12-.6-.28-1.37-.16-1.8-.79,0,0,0-.08,0-.09.76-.32,1.22.48,1.89.51C143.25,66.27,143.28,66.4,143.35,66.52Z" style="stroke: #000;stroke-miterlimit: 10;stroke-width: 0.36px"/>
      <path d="M157.8,64.38c.08,0,.18.05.22.11.28.43.56.87.81,1.32,0,.07-.05.22-.08.34-.08,0-.18,0-.22-.09-.34-.44-.67-.89-1-1.34,0,0,0-.17.05-.23A.53.53,0,0,1,157.8,64.38Z" style="stroke: #000;stroke-miterlimit: 10;stroke-width: 0.36px"/>
      <path d="M146.51,64.21l-.63.71c-.21.23-.39.55-.65.65s-.06-.6.38-1c.21-.21.43-.4.66-.59,0,0,.13,0,.19.08S146.48,64.09,146.51,64.21Z" style="stroke: #000;stroke-miterlimit: 10;stroke-width: 0.36px"/>
      <path d="M155.7,62.24a1.24,1.24,0,0,1,.3.16c.38.36.74.72,1.09,1.09.06.07,0,.21,0,.31s-.28,0-.34,0c-.44-.41-.86-.84-1.27-1.27,0,0,0-.13,0-.2S155.63,62.28,155.7,62.24Z" style="stroke: #000;stroke-miterlimit: 10;stroke-width: 0.36px"/>
      <path d="M139.71,74.37c0-.2-.14-.39-.09-.49.26-.44.55-.86.85-1.27,0-.07.22,0,.34,0a1,1,0,0,1,0,.31c-.23.42-.46.82-.71,1.22C140,74.19,139.88,74.25,139.71,74.37Z" style="stroke: #000;stroke-miterlimit: 10;stroke-width: 0.36px"/>
      <path d="M188.72,69.64c0,.12.14.31.09.39a11.49,11.49,0,0,1-.85,1.1c-.05.06-.22,0-.33,0s-.12-.17-.1-.2c.32-.44.65-.87,1-1.3C188.53,69.62,188.59,69.64,188.72,69.64Z" style="stroke: #000;stroke-miterlimit: 10;stroke-width: 0.36px"/>
      <path d="M137.88,77.51c0-.14-.11-.29-.07-.37.29-.51.6-1,.93-1.51,0-.07.2-.08.31-.09s.09.17.06.21c-.28.52-.58,1-.89,1.54C138.17,77.38,138,77.42,137.88,77.51Z" style="stroke: #000;stroke-miterlimit: 10;stroke-width: 0.36px"/>
      <path d="M151.7,61c-.06.09-.07.14-.1.15-.59.22-1.17.57-1.84.26a.1.1,0,0,1,0-.09A2,2,0,0,1,151.7,61Z" style="stroke: #000;stroke-miterlimit: 10;stroke-width: 0.36px"/>
      <path d="M134,83a2.78,2.78,0,0,1,.55-.84c.25-.19.26-1,.74-.53s-.26.61-.48.89a5.58,5.58,0,0,1-.67.61Z" style="stroke: #000;stroke-miterlimit: 10;stroke-width: 0.36px"/>
      <path d="M175.49,79c.5.1,1,.19,1.5.32.11,0,.18.24.26.36-.14.07-.32.23-.43.19a6.61,6.61,0,0,1-.77-.44c-.22-.11-.46-.19-.69-.29Z" style="stroke: #000;stroke-miterlimit: 10;stroke-width: 0.36px"/>
      <path d="M147.2,68.12a2.17,2.17,0,0,1-1.55-.47c-.08-.06-.09-.2-.13-.31.12,0,.27-.14.35-.1.5.23,1,.49,1.46.74A.86.86,0,0,1,147.2,68.12Z" style="stroke: #000;stroke-miterlimit: 10;stroke-width: 0.36px"/>
      <path d="M166.82,78.78c.4.49.81,1,1.19,1.46.05.07,0,.23,0,.34s-.26,0-.31-.09c-.35-.52-.67-1-1-1.58Z" style="stroke: #000;stroke-miterlimit: 10;stroke-width: 0.36px"/>
      <path d="M191.07,72.94,190.78,74a6.32,6.32,0,0,1-.13-1.14c0-.42-.21-.91.21-1.27Z" style="stroke: #000;stroke-miterlimit: 10;stroke-width: 0.36px"/>
      <path d="M190.8,67.61a4.16,4.16,0,0,1,0,2.47A4.24,4.24,0,0,1,190.8,67.61Z" style="stroke: #000;stroke-miterlimit: 10;stroke-width: 0.36px"/>
      <path d="M137.08,79.17c-.23.51-.45,1-.7,1.53,0,.09-.21.13-.31.19,0-.11-.14-.27-.1-.34.31-.51.64-1,1-1.51Z" style="stroke: #000;stroke-miterlimit: 10;stroke-width: 0.36px"/>
      <path d="M190.93,81.55c0,.71,0,1.42,0,2.13,0,0-.19.11-.3.14a.31.31,0,0,1-.11-.18c.08-.7.17-1.4.25-2.1Z" style="stroke: #000;stroke-miterlimit: 10;stroke-width: 0.36px"/>
      <path d="M190.48,68.38l-.55.38-.77.49c-.16-.5.32-.62.52-.91.07-.09.2-.22.3-.22S190.24,68.25,190.48,68.38Z" style="stroke: #000;stroke-miterlimit: 10;stroke-width: 0.36px"/>
      <path d="M191.07,61.94l-.28,1a5.62,5.62,0,0,1-.14-1,8.27,8.27,0,0,1,.19-1.18Z" style="stroke: #000;stroke-miterlimit: 10;stroke-width: 0.36px"/>
      <path d="M190.83,66.4a3.41,3.41,0,0,1,0-2.21A3.47,3.47,0,0,1,190.83,66.4Z" style="stroke: #000;stroke-miterlimit: 10;stroke-width: 0.36px"/>
      <path d="M190.81,78.13a3.47,3.47,0,0,1,0,2.21A3.41,3.41,0,0,1,190.81,78.13Z" style="stroke: #000;stroke-miterlimit: 10;stroke-width: 0.36px"/>
      <path d="M151.28,69.57c.45.05,1-.1,1.23.44a.33.33,0,0,1,0,.24s-.14.11-.18.09c-.41-.18-1-.1-1.18-.63Z" style="stroke: #000;stroke-miterlimit: 10;stroke-width: 0.36px"/>
      <path d="M184.44,76.54c-.28.47-.55.94-.84,1.4a.22.22,0,0,1-.21,0s-.1-.17-.07-.21c.32-.45.65-.88,1-1.32Z" style="stroke: #000;stroke-miterlimit: 10;stroke-width: 0.36px"/>
      <path d="M200.87,77.2c.07-.58.65-.63,1-.93,0,.06.15.13.14.17a1.13,1.13,0,0,1-1,.9A.93.93,0,0,0,200.87,77.2Z" style="stroke: #000;stroke-miterlimit: 10;stroke-width: 0.36px"/>
      <path d="M191,76.1c0,.25,0,.47-.06.68,0,0-.11.08-.17.11a.14.14,0,0,1-.08-.1c0-.47,0-.94,0-1.41,0,0,.11-.08.17-.11s.08.06.08.1C191,75.62,191,75.88,191,76.1Z" style="stroke: #000;stroke-miterlimit: 10;stroke-width: 0.36px"/>
      <path d="M186.81,72.59,186,73.91l-.15-.13a2,2,0,0,1,.79-1.32Z" style="stroke: #000;stroke-miterlimit: 10;stroke-width: 0.36px"/>
      <path d="M142.08,70.23c-.16.34-.31.7-.49,1,0,.07-.2.07-.31.1,0-.12-.07-.27,0-.35.21-.32.45-.62.67-.93Z" style="stroke: #000;stroke-miterlimit: 10;stroke-width: 0.36px"/>
      <path d="M144.18,67.07c-.19.33-.36.67-.56,1,0,.07-.17.08-.26.12,0-.12-.11-.29-.05-.36.22-.31.48-.59.73-.88Z" style="stroke: #000;stroke-miterlimit: 10;stroke-width: 0.36px"/>
      <path d="M180.23,82.33a.81.81,0,0,1-.79.8L179.3,83a.79.79,0,0,1,.79-.79Z" style="stroke: #000;stroke-miterlimit: 10;stroke-width: 0.36px"/>
      <path d="M165,75.62c.24.39.48.78.71,1.18a2.09,2.09,0,0,1-.17.14l-.69-1.19Z" style="stroke: #000;stroke-miterlimit: 10;stroke-width: 0.36px"/>
      <path d="M151.15,69.71c-.31-.14-.8.2-1-.35a.14.14,0,0,1,0-.11c.43-.41.65.2,1,.22,0,0,.06.06.08.1Z" style="stroke: #000;stroke-miterlimit: 10;stroke-width: 0.36px"/>
      <path d="M196.81,81.81a.77.77,0,0,1-.79.78,1.85,1.85,0,0,1-.14-.14c.27-.26.26-.79.79-.78Z" style="stroke: #000;stroke-miterlimit: 10;stroke-width: 0.36px"/>
      <path d="M184.3,76.41a2.58,2.58,0,0,1,0-.39c0-.24.16-.44.42-.27.09.06.11.32.05.44s-.24.24-.37.35Z" style="stroke: #000;stroke-miterlimit: 10;stroke-width: 0.36px"/>
      <path d="M147.33,68l.4,0c.23,0,.43.17.26.43-.05.08-.31.1-.43,0s-.24-.25-.36-.38A.86.86,0,0,0,147.33,68Z" style="stroke: #000;stroke-miterlimit: 10;stroke-width: 0.36px"/>
      <path d="M159.71,67.2l.52.79-.14.13-.52-.79Z" style="stroke: #000;stroke-miterlimit: 10;stroke-width: 0.36px"/>
      <path d="M160.5,68.52a2.73,2.73,0,0,1,.43.47c0,.06-.05.21-.09.33-.07,0-.18,0-.21-.11a4.11,4.11,0,0,1-.27-.56A.86.86,0,0,1,160.5,68.52Z" style="stroke: #000;stroke-miterlimit: 10;stroke-width: 0.36px"/>
      <path d="M141.93,70.09l.53-.78.14.12-.52.8Z" style="stroke: #000;stroke-miterlimit: 10;stroke-width: 0.36px"/>
      <path d="M164.83,75.75l-.52-.79.14-.13.53.79Z" style="stroke: #000;stroke-miterlimit: 10;stroke-width: 0.36px"/>
      <path d="M136.93,79a5.85,5.85,0,0,1,.28-.56c0-.06.14-.07.22-.11,0,.12.12.27.08.34a3.09,3.09,0,0,1-.43.46Z" style="stroke: #000;stroke-miterlimit: 10;stroke-width: 0.36px"/>
      <path d="M196,82.59a.5.5,0,0,1-.53.54.93.93,0,0,0-.14-.14.5.5,0,0,1,.53-.54A1.85,1.85,0,0,0,196,82.59Z" style="stroke: #000;stroke-miterlimit: 10;stroke-width: 0.36px"/>
      <path d="M144,66.94c.09-.19.17-.39.27-.57s.15-.07.22-.1.13.27.09.33a3.27,3.27,0,0,1-.44.47Z" style="stroke: #000;stroke-miterlimit: 10;stroke-width: 0.36px"/>
      <path d="M180.09,82.2a.85.85,0,0,1,.12-.36c.07-.06.22,0,.33-.07a.62.62,0,0,1,0,.31,1.14,1.14,0,0,1-.28.25Z" style="stroke: #000;stroke-miterlimit: 10;stroke-width: 0.36px"/>
      <path d="M159.57,67.33c-.07,0-.17-.09-.2-.15a1.91,1.91,0,0,1-.11-.41,2,2,0,0,1,.39.19s0,.16.06.24Z" style="stroke: #000;stroke-miterlimit: 10;stroke-width: 0.36px"/>
      <path d="M166.67,78.91l-.26-.53a1.59,1.59,0,0,0,.13-.13l.28.53Z" style="stroke: #000;stroke-miterlimit: 10;stroke-width: 0.36px"/>
      <path d="M175.36,79.18,175,79s.11-.15.14-.15a3.6,3.6,0,0,1,.39.2Z" style="stroke: #000;stroke-miterlimit: 10;stroke-width: 0.36px"/>
      <path d="M160.23,68l.27.53a.86.86,0,0,0-.14.13l-.27-.53Z" style="stroke: #000;stroke-miterlimit: 10;stroke-width: 0.36px"/>
      <path d="M186,73.91l-.2.4c-.05,0-.15-.11-.14-.14a3.49,3.49,0,0,1,.19-.39Z" style="stroke: #000;stroke-miterlimit: 10;stroke-width: 0.36px"/>
      <path d="M164.31,75s-.09,0-.1-.07,0-.27-.05-.41l.29.35Z" style="stroke: #000;stroke-miterlimit: 10;stroke-width: 0.36px"/>
      <path d="M142.46,69.31l.19-.41s.15.12.15.14a2.87,2.87,0,0,1-.2.39Z" style="stroke: #000;stroke-miterlimit: 10;stroke-width: 0.36px"/>
      <path d="M166.41,78.38l-.12-.25.25.12A1.59,1.59,0,0,1,166.41,78.38Z" style="stroke: #000;stroke-miterlimit: 10;stroke-width: 0.36px"/>
      <path d="M186.67,72.46l.26-.12-.12.25Z" style="stroke: #000;stroke-miterlimit: 10;stroke-width: 0.36px"/>
      <path d="M196.67,81.67l.26-.26.14.13-.26.27Z" style="stroke: #000;stroke-miterlimit: 10;stroke-width: 0.36px"/>
      <path d="M169.9,83.05l.12.13-.12-.12Z" style="stroke: #000;stroke-miterlimit: 10;stroke-width: 0.36px"/>
    </g>
  </g>
</svg>
