<svg xmlns="http://www.w3.org/2000/svg" width="225" height="380" viewBox="0 0 225 380">
  <title>phase</title>
  <g id="Layer_3" data-name="Layer 3">
    <rect width="225" height="380" style="fill: #fffffd"/>
  </g>
  <g id="SHADING">
    <rect y="230" width="225" height="65" style="fill: #ededed"/>
    <rect y="100" width="225" height="65" style="fill: #ededed"/>
    <rect width="225" height="36" style="fill: #ededed"/>
  </g>
  <g id="Layer_4" data-name="Layer 4">
    <line x1="23" y1="270" x2="113" y2="270" style="fill: none;stroke: #000;stroke-miterlimit: 10;stroke-width: 0.9px"/>
    <line x1="23" y1="205.5" x2="113" y2="205.5" style="fill: none;stroke: #000;stroke-miterlimit: 10;stroke-width: 0.9px"/>
    <polyline points="88 140 23 140 23 141 23 344" style="fill: none;stroke: #000;stroke-miterlimit: 10;stroke-width: 0.9px"/>
    <line x1="202.5" y1="140" x2="158.5" y2="140" style="fill: none;stroke: #000;stroke-miterlimit: 10;stroke-width: 0.9px"/>
    <line x1="203" y1="205" x2="158.5" y2="205" style="fill: none;stroke: #000;stroke-miterlimit: 10;stroke-width: 0.9px"/>
    <line x1="203" y1="270.5" x2="158.5" y2="270.5" style="fill: none;stroke: #000;stroke-miterlimit: 10;stroke-width: 0.9px"/>
    <line x1="57.5" y1="335" x2="102.5" y2="335" style="fill: none;stroke: #000;stroke-miterlimit: 10;stroke-width: 0.9px"/>
    <line x1="58.5" y1="75" x2="103.5" y2="75" style="fill: none;stroke: #000;stroke-miterlimit: 10;stroke-width: 0.9px"/>
    <polyline points="203 335.5 158 335.5 158 140.5" style="fill: none;stroke: #000;stroke-miterlimit: 10;stroke-width: 0.9px"/>
  </g>
  <g id="Layer_10" data-name="Layer 10">
    <rect x="188" y="305" width="30" height="45" rx="5.04"/>
  </g>
  <g id="text">
    <line x1="14" y1="30" x2="214" y2="30.5" style="fill: none;stroke: #000;stroke-miterlimit: 10;stroke-width: 2px"/>
    <rect x="43" y="245" width="30" height="10" style="fill: #ededed"/>
    <rect x="138" y="232" width="40" height="13" style="fill: #ededed"/>
    <g>
      <path d="M57.6,317.53a.53.53,0,0,1-.16.39.53.53,0,0,1-.39.15h-2a.51.51,0,0,1-.54-.54V311a.51.51,0,0,1,.54-.54h2a.53.53,0,0,1,.39.15.53.53,0,0,1,.16.39v1.78h-.69V311h-1.7v6.44h1.7v-1.88h.69Z"/>
      <path d="M61.77,310.43l-1.33,7.66H59.8l-1.32-7.66h.67l1,6.08,0,.5c0-.12,0-.28,0-.5l.94-6.08Z"/>
    </g>
    <g>
      <path d="M91.75,307.76a.64.64,0,0,1-.18.47.6.6,0,0,1-.46.18H88.8a.64.64,0,0,1-.47-.18.65.65,0,0,1-.19-.47v-2.33H89v2.26h2V305.5l-2.53-3.06a1,1,0,0,1-.27-.69v-1.86a.65.65,0,0,1,.19-.47.64.64,0,0,1,.47-.18h2.31a.6.6,0,0,1,.46.18.64.64,0,0,1,.18.47V302h-.81V300H89v1.93L91.5,305a1,1,0,0,1,.25.69Z"/>
      <path d="M97.73,308.41H97V302.6c0-.08,0-.32.08-.72l-1.5,5.67h-.16l-1.5-5.67c.05.4.08.64.08.72v5.81h-.77v-9.17H94l1.49,6a2.46,2.46,0,0,1,0,.27,1.8,1.8,0,0,1,0-.27l1.48-6h.76Z"/>
      <path d="M103.07,307.76a.61.61,0,0,1-.19.47.64.64,0,0,1-.47.18H99.84a.62.62,0,0,1-.46-.18.61.61,0,0,1-.19-.47v-7.87a.61.61,0,0,1,.19-.47.62.62,0,0,1,.46-.18h2.57a.64.64,0,0,1,.47.18.61.61,0,0,1,.19.47Zm-.82-.07V300H100v7.73Z"/>
      <path d="M108.41,307.76a.65.65,0,0,1-.19.47.64.64,0,0,1-.47.18h-2.57a.62.62,0,0,1-.65-.65v-7.87a.62.62,0,0,1,.65-.65h2.57a.64.64,0,0,1,.47.18.65.65,0,0,1,.19.47Zm-.82-.07V300h-2.24v7.73Z"/>
      <path d="M113,300h-1.42v8.45h-.81V300h-1.43v-.72H113Z"/>
      <path d="M117.82,308.41H117V304H114.8v4.41H114v-9.17h.82v4H117v-4h.81Z"/>
    </g>
    <g>
      <path d="M200.71,317.53a.55.55,0,0,1-.16.39.53.53,0,0,1-.39.15H198a.53.53,0,0,1-.39-.15.54.54,0,0,1-.15-.39V311a.51.51,0,0,1,.54-.54h2.14a.53.53,0,0,1,.39.15.53.53,0,0,1,.16.39Zm-.68-.06V311h-1.87v6.44Z" style="fill: #f2f2f2"/>
      <path d="M205.09,317.53a.54.54,0,0,1-.15.39.53.53,0,0,1-.39.15h-2.08a.53.53,0,0,1-.39-.15.54.54,0,0,1-.15-.39v-7.1h.67v7h1.82v-7h.67Z" style="fill: #f2f2f2"/>
      <path d="M209,311h-1.18v7h-.68v-7H205.9v-.6h3Z" style="fill: #f2f2f2"/>
    </g>
    <g>
      <path d="M57.6,252.53a.53.53,0,0,1-.16.39.53.53,0,0,1-.39.15h-2a.51.51,0,0,1-.54-.54V246a.51.51,0,0,1,.54-.54h2a.53.53,0,0,1,.39.15.53.53,0,0,1,.16.39v1.78h-.69V246h-1.7v6.44h1.7v-1.88h.69Z"/>
      <path d="M61.77,245.43l-1.33,7.66H59.8l-1.32-7.66h.67l1,6.08,0,.5c0-.12,0-.28,0-.5l.94-6.08Z"/>
    </g>
    <g>
      <path d="M80.15,235H78v3.48h2v.73H78v4.24h-.82v-9.17h3Z"/>
      <path d="M85.07,242.76a.62.62,0,0,1-.65.65h-2.5a.62.62,0,0,1-.65-.65v-8.52h.81v8.45h2.18v-8.45h.81Z"/>
      <path d="M90.32,243.41h-.57l-2.44-6.74v6.74h-.77v-9.17h.61l2.4,6.63v-6.63h.77Z"/>
      <path d="M95.56,241.75a1.57,1.57,0,0,1-.48,1.19,1.64,1.64,0,0,1-1.2.47h-2.1v-9.17h2.1a1.63,1.63,0,0,1,1.21.47,1.6,1.6,0,0,1,.47,1.19Zm-.81-.08V236a1,1,0,0,0-1-1H92.6v7.73h1.08a1.1,1.1,0,0,0,.77-.27A1,1,0,0,0,94.75,241.67Z"/>
      <path d="M100.69,243.41h-.81l-.32-2H97.74l-.33,2h-.78v0l1.63-9.17h.81Zm-1.24-2.76-.8-5-.81,5Z"/>
      <path d="M106.33,243.41h-.77V237.6a6.39,6.39,0,0,1,.08-.72l-1.5,5.67H104l-1.5-5.67c0,.41.08.65.08.72v5.81h-.77v-9.17h.76l1.48,6a1.47,1.47,0,0,1,0,.26c0-.06,0-.15,0-.26l1.49-6h.76Z"/>
      <path d="M110.8,243.41h-3v-9.17h3V235H108.6v3.42h2v.74h-2v3.57h2.2Z"/>
      <path d="M115.85,243.41h-.56l-2.45-6.74v6.74h-.77v-9.17h.61l2.4,6.63v-6.63h.77Z"/>
      <path d="M120.48,235h-1.42v8.45h-.82V235h-1.43v-.72h3.67Z"/>
      <path d="M125.13,243.41h-.81l-.32-2h-1.83l-.32,2h-.78v0l1.63-9.17h.8Zm-1.24-2.76-.8-5-.81,5Z"/>
      <path d="M129.16,243.41h-2.93v-9.17H127v8.45h2.12Z"/>
    </g>
    <g>
      <path d="M202.6,252.53a.55.55,0,0,1-.16.39.54.54,0,0,1-.4.15h-2a.53.53,0,0,1-.39-.15.54.54,0,0,1-.15-.39V246a.51.51,0,0,1,.54-.54h2a.53.53,0,0,1,.56.54v1.78h-.69V246h-1.7v6.44h1.7v-1.88h.69Z"/>
      <path d="M206.77,245.43l-1.33,7.66h-.64l-1.32-7.66h.67l.95,6.08,0,.5c0-.12,0-.28,0-.5l.94-6.08Z"/>
    </g>
    <g>
      <path d="M151,243.41h-2.93v-9.17h.81v8.45H151Z"/>
      <path d="M155.12,243.41h-3v-9.17h3V235h-2.16v3.42h2v.73h-2v3.58h2.2Z"/>
      <path d="M160,234.24l-1.59,9.19h-.76L156,234.24h.81l1.13,7.3,0,.6c0-.14,0-.34,0-.6l1.14-7.3Z"/>
      <path d="M164.08,243.41h-3v-9.17h3V235h-2.16v3.42h2v.73h-2v3.58h2.19Z"/>
      <path d="M168.29,243.41h-2.93v-9.17h.81v8.45h2.12Z"/>
    </g>
    <rect x="138" y="167" width="40" height="13" style="fill: #fffffd"/>
    <g>
      <path d="M151,178.41h-2.93v-9.17h.81v8.45H151Z"/>
      <path d="M155.12,178.41h-3v-9.17h3V170h-2.16v3.42h2v.73h-2v3.58h2.2Z"/>
      <path d="M160,169.24l-1.59,9.19h-.76L156,169.24h.81l1.13,7.3,0,.6c0-.14,0-.34,0-.6l1.14-7.3Z"/>
      <path d="M164.08,178.41h-3v-9.17h3V170h-2.16v3.42h2v.73h-2v3.58h2.19Z"/>
      <path d="M168.29,178.41h-2.93v-9.17h.81v8.45h2.12Z"/>
    </g>
    <rect x="138" y="105" width="40" height="10" style="fill: #ededed"/>
    <g>
      <path d="M151,113.41h-2.93v-9.17h.81v8.45H151Z"/>
      <path d="M155.12,113.41h-3v-9.17h3V105h-2.16v3.42h2v.73h-2v3.58h2.2Z"/>
      <path d="M160,104.24l-1.59,9.19h-.76L156,104.24h.81l1.13,7.3,0,.6c0-.14,0-.34,0-.6l1.14-7.3Z"/>
      <path d="M164.08,113.41h-3v-9.17h3V105h-2.16v3.42h2v.73h-2v3.58h2.19Z"/>
      <path d="M168.29,113.41h-2.93v-9.17h.81v8.45h2.12Z"/>
    </g>
    <rect x="8" y="243" width="30" height="12" style="fill: #ededed"/>
    <g>
      <path d="M19.26,253.07H16.82v-7.64h.68v7h1.76Z"/>
      <path d="M20.91,253.07h-.68v-7.64h.68Z"/>
      <path d="M25.33,253.07h-.47l-2-5.62v5.62h-.64v-7.64h.51l2,5.52v-5.52h.64Z"/>
      <path d="M29.74,253.07H29l-1.76-3.67v3.67h-.68v-7.64h.68v3.43l1.6-3.43h.74v0l-1.73,3.64Z"/>
    </g>
    <g>
      <path d="M57.6,57.19a.55.55,0,0,1-.16.39.53.53,0,0,1-.39.15h-2a.53.53,0,0,1-.39-.15.54.54,0,0,1-.15-.39V50.63a.51.51,0,0,1,.54-.54h2a.53.53,0,0,1,.39.15.53.53,0,0,1,.16.39V52.4h-.69V50.69h-1.7v6.44h1.7V55.25h.69Z"/>
      <path d="M61.77,50.09l-1.33,7.66H59.8l-1.32-7.66h.67l1,6.08,0,.5c0-.12,0-.28,0-.5l.94-6.08Z"/>
    </g>
    <g>
      <path d="M88.78,39.24l-1.25,9.19h-.66l-1-6.91c0-.12,0-.3,0-.54,0,.12,0,.3,0,.54l-1,6.91h-.66l-1.25-9.19h.81l.78,6.61c0,.15,0,.37,0,.66,0-.15,0-.37,0-.66l1-6.61h.7l.94,6.61q0,.23,0,.66,0-.23,0-.66L88,39.24Z"/>
      <path d="M93.57,48.41h-.81l-.32-2H90.61l-.32,2h-.78v0l1.63-9.17h.8Zm-1.24-2.76-.8-5-.81,5Z"/>
      <path d="M98.25,39.24l-1.59,9.19h-.77L94.3,39.24h.81l1.14,7.3,0,.6a5.37,5.37,0,0,1,0-.6l1.13-7.3Z"/>
      <path d="M102.36,48.41h-3V39.24h3V40h-2.17v3.42h2v.73h-2v3.58h2.2Z"/>
      <path d="M106.59,40h-2.14v3.48h2v.73h-2v4.24h-.82V39.24h3Z"/>
      <path d="M111.58,47.76a.62.62,0,0,1-.65.65h-2.57a.62.62,0,0,1-.65-.65V39.89a.62.62,0,0,1,.65-.65h2.57a.62.62,0,0,1,.65.65Zm-.81-.07V40h-2.24v7.73Z"/>
      <path d="M117,48.41h-.85l-1.71-4.91.11-.17H116V40h-2.1v8.45h-.81V39.24h3.07a.62.62,0,0,1,.65.65v3.48c0,.44-.3.66-.89.66h-.5C115.9,45.48,116.43,46.94,117,48.41Z"/>
      <path d="M122.71,48.41h-.77V42.6a6.39,6.39,0,0,1,.08-.72l-1.5,5.67h-.16l-1.5-5.67c0,.4.08.64.08.72v5.81h-.77V39.24h.76l1.48,6a1.84,1.84,0,0,1,0,.27c0-.06,0-.15,0-.27l1.49-6h.76Z"/>
    </g>
    <rect x="83" y="170" width="40" height="10" style="fill: #fffffd"/>
    <g>
      <path d="M86,177.76a.64.64,0,0,1-.18.47.66.66,0,0,1-.48.18H82.79a.62.62,0,0,1-.65-.65v-7.87a.62.62,0,0,1,.65-.65h2.56a.66.66,0,0,1,.48.18.64.64,0,0,1,.18.47Zm-.81-.07V170H83v7.73Z"/>
      <path d="M91.06,169.24l-1.59,9.19H88.7l-1.59-9.19h.81l1.14,7.3,0,.6c0-.14,0-.34,0-.6l1.14-7.3Z"/>
      <path d="M95.17,178.41h-3v-9.17h3V170H93v3.42h2v.73H93v3.58h2.2Z"/>
      <path d="M100.34,178.41h-.85l-1.71-4.91.11-.17h1.46V170h-2.1v8.45h-.81v-9.17h3.07a.62.62,0,0,1,.65.65v3.48c0,.44-.3.66-.89.66h-.5C99.29,175.48,99.82,176.94,100.34,178.41Z"/>
      <path d="M104.72,170H103.3v8.45h-.81V170h-1.43v-.72h3.66Z"/>
      <path d="M109.55,177.76a.61.61,0,0,1-.19.47.64.64,0,0,1-.47.18h-2.56a.63.63,0,0,1-.47-.18.65.65,0,0,1-.19-.47v-7.87a.65.65,0,0,1,.19-.47.63.63,0,0,1,.47-.18h2.56a.64.64,0,0,1,.47.18.61.61,0,0,1,.19.47Zm-.82-.07V170h-2.24v7.73Z"/>
      <path d="M114.79,178.41h-.56l-2.45-6.75v6.75H111v-9.17h.61l2.4,6.63v-6.63h.77Z"/>
      <path d="M119.27,178.41h-3v-9.17h3V170h-2.16v3.42h2v.73h-2v3.58h2.2Z"/>
      <path d="M123.8,178.41H123v-6.36h-.35v0l.51-2.78h.66Z"/>
    </g>
    <rect x="8" y="115" width="30" height="10" style="fill: #ededed"/>
    <g>
      <path d="M19.26,123.07H16.82v-7.64h.68v7h1.76Z"/>
      <path d="M20.91,123.07h-.68v-7.64h.68Z"/>
      <path d="M25.33,123.07h-.47l-2-5.62v5.62h-.64v-7.64h.51l2,5.52v-5.52h.64Z"/>
      <path d="M29.74,123.07H29l-1.76-3.67v3.67h-.68v-7.64h.68v3.43l1.6-3.43h.74v0l-1.73,3.64Z"/>
    </g>
    <g>
      <path d="M12.63,58.07H12V50.43h.67Z"/>
      <path d="M17.06,58.07h-.47l-2-5.62v5.62h-.64V50.43h.51l2,5.52V50.43h.64Z"/>
      <path d="M20.91,51H19.73v7h-.68V51H17.86v-.6h3.05Z"/>
      <path d="M24.22,58.07H21.71V50.43h2.48V51H22.38v2.85H24v.61H22.38v3h1.84Z"/>
      <path d="M28.53,58.07h-.72L26.39,54l.1-.14H27.7V51H26v7h-.67V50.43h2.55a.53.53,0,0,1,.39.15.5.5,0,0,1,.16.39v2.9c0,.37-.25.55-.75.55h-.42Z"/>
      <path d="M32.57,54.49a.53.53,0,0,1-.15.39A.58.58,0,0,1,32,55h-1.8v3h-.68V50.43H32a.57.57,0,0,1,.4.15.53.53,0,0,1,.15.39Zm-.68-.06V51H30.22v3.4Z"/>
      <path d="M34.24,58.07h-.75v-.86h.75Z"/>
    </g>
    <rect x="8" y="178" width="30" height="12" style="fill: #fffffd"/>
    <g>
      <path d="M19.26,188.07H16.82v-7.64h.68v7h1.76Z"/>
      <path d="M20.91,188.07h-.68v-7.64h.68Z"/>
      <path d="M25.33,188.07h-.47l-2-5.62v5.62h-.64v-7.64h.51l2,5.52v-5.52h.64Z"/>
      <path d="M29.74,188.07H29l-1.76-3.67v3.67h-.68v-7.64h.68v3.43l1.6-3.43h.74v0l-1.73,3.64Z"/>
    </g>
    <rect x="8" y="308" width="30" height="12" style="fill: #fffffd"/>
    <g>
      <path d="M14.46,310.43l-1.32,7.66H12.5l-1.32-7.66h.67l1,6.08,0,.5c0-.12,0-.28,0-.5l1-6.08Z"/>
      <path d="M20.83,310.47l-3.23,7.6H17v0l3.23-7.6h.65Z"/>
      <path d="M26.85,317.53a.55.55,0,0,1-.16.39.53.53,0,0,1-.39.15H24.16a.53.53,0,0,1-.39-.15.54.54,0,0,1-.15-.39V311a.51.51,0,0,1,.54-.54H26.3a.53.53,0,0,1,.39.15.53.53,0,0,1,.16.39Zm-.68-.06V311H24.3v6.44Z"/>
      <path d="M31.13,317.53a.51.51,0,0,1-.16.39.53.53,0,0,1-.39.15h-2a.53.53,0,0,1-.39-.15.54.54,0,0,1-.15-.39V311a.51.51,0,0,1,.54-.54h2a.53.53,0,0,1,.39.15.5.5,0,0,1,.16.39v1.78h-.69V311h-1.7v6.44h1.7v-1.88h.69Z"/>
      <path d="M35,311H33.76v7h-.67v-7h-1.2v-.6H35Z"/>
    </g>
    <g>
      <path d="M84.89,112.76a.61.61,0,0,1-.19.47.64.64,0,0,1-.47.18H81.67a.63.63,0,0,1-.47-.18.64.64,0,0,1-.18-.47v-7.87a.64.64,0,0,1,.18-.47.63.63,0,0,1,.47-.18h2.56a.64.64,0,0,1,.47.18.61.61,0,0,1,.19.47Zm-.82-.07V105H81.83v7.73Z"/>
      <path d="M89.93,104.24l-1.58,9.19h-.77L86,104.24h.81l1.14,7.3,0,.6c0-.14,0-.34,0-.6l1.14-7.3Z"/>
      <path d="M94.05,113.41H91v-9.17h3V105H91.85v3.42h2v.73h-2v3.58h2.2Z"/>
      <path d="M99.22,113.41h-.85l-1.71-4.91.11-.17h1.45V105H96.13v8.45h-.81v-9.17h3.07a.62.62,0,0,1,.65.65v3.48c0,.44-.3.66-.89.66h-.51C98.17,110.48,98.7,111.94,99.22,113.41Z"/>
      <path d="M103.6,105h-1.42v8.45h-.81V105H99.94v-.72h3.66Z"/>
      <path d="M108.43,112.76a.65.65,0,0,1-.19.47.64.64,0,0,1-.47.18H105.2a.66.66,0,0,1-.47-.18.64.64,0,0,1-.18-.47v-7.87a.64.64,0,0,1,.18-.47.66.66,0,0,1,.47-.18h2.57a.64.64,0,0,1,.47.18.65.65,0,0,1,.19.47Zm-.82-.07V105h-2.24v7.73Z"/>
      <path d="M113.67,113.41h-.56l-2.45-6.74v6.74h-.77v-9.17h.61l2.4,6.63v-6.63h.77Z"/>
      <path d="M118.15,113.41h-3v-9.17h3V105H116v3.42h2v.73h-2v3.58h2.2Z"/>
      <path d="M125.18,113.41h-3.64V113l2.81-5.83V105h-1.87V107h-.82v-2.13a.62.62,0,0,1,.65-.65h2.21a.62.62,0,0,1,.46.18.61.61,0,0,1,.19.47v1.94a2,2,0,0,1-.22.81l-2.43,5h2.66Z"/>
    </g>
    <path d="M14.26,29.25V39.94H11.45V20.14h2.81V21l.12,0a3.69,3.69,0,0,1,2.79-1.1A4.86,4.86,0,0,1,21.87,25,4.94,4.94,0,0,1,17,30.08,4.21,4.21,0,0,1,14.26,29.25Zm0-5.95v4a5.55,5.55,0,0,0,2.36.44A2.56,2.56,0,0,0,19.06,25a2.58,2.58,0,0,0-2.44-2.77A2.74,2.74,0,0,0,14.26,23.3Z"/>
    <path d="M23.77,15.65h2.81v5.6l.12,0A4.18,4.18,0,0,1,30,19.94c1.93,0,3.53,1.43,3.53,4.25v5.7h-2.8V24.35a1.84,1.84,0,0,0-1.9-2.11,2.85,2.85,0,0,0-2.2,1.06v6.59H23.77Z"/>
    <path d="M43,20.8l.1-.06v-.6H45.9v9.75H43.09V29l-.12,0a3.77,3.77,0,0,1-2.86,1.16A4.85,4.85,0,0,1,35.41,25a4.94,4.94,0,0,1,4.89-5.07A4.09,4.09,0,0,1,43,20.8Zm.1,5.66V22.91a4.32,4.32,0,0,0-2.44-.67A2.57,2.57,0,0,0,38.22,25a2.61,2.61,0,0,0,4.87,1.45Z"/>
    <path d="M48.8,27.2a8.59,8.59,0,0,0,2.67.51c.82,0,1.46-.24,1.46-.8s-.27-.76-1.52-1c-1.87-.39-3.06-1.31-3.06-2.86,0-2.05,1.83-3.09,3.86-3.09a8.26,8.26,0,0,1,3.12.67l-.41,2.18a7.87,7.87,0,0,0-2.55-.51c-.67,0-1.25.26-1.25.75s.21.72,1.52,1c1.91.39,3.08,1.17,3.08,2.83,0,2.2-2,3.21-4.07,3.21a9.25,9.25,0,0,1-3.28-.64Z"/>
    <path d="M67.07,24.66v1.17H60.14c.2,1.35,1.06,1.93,2.89,2a6.88,6.88,0,0,0,2.87-.58l.48,2.05a7,7,0,0,1-3.35.83c-3.51,0-5.73-1.91-5.73-5a4.9,4.9,0,0,1,5-5.09A4.43,4.43,0,0,1,67.07,24.66ZM60.22,24h4a1.72,1.72,0,0,0-1.85-1.76A2,2,0,0,0,60.22,24Z"/>
    <path d="M75.6,27.78a6.86,6.86,0,0,0,2.75-.44l.55,2.2a8.42,8.42,0,0,1-3.3.54,7,7,0,1,1,0-14,8.09,8.09,0,0,1,3.3.57l-.55,2.18a8.24,8.24,0,0,0-2.75-.45,4.49,4.49,0,0,0-4.29,4.72A4.4,4.4,0,0,0,75.6,27.78Z"/>
    <path d="M79.91,16.24h9.73v1.6l-6.4,9.75h6.59v2.3H79.71v-1.6l6.36-9.75H79.91Z"/>
    <path d="M99.46,26.87H94.6l-1,3h-3l5.07-13.65h2.71l5.07,13.65h-3Zm-4.09-2.23H98.7l-1.29-3.8-.33-1.4H97l-.29,1.38Z"/>
    <path d="M105.07,16.24h4.54c3.44,0,5.35,1.93,5.35,4.21a3.92,3.92,0,0,1-2.44,3.65l3.24,5.79h-3.1l-2.87-5.23h-1.91v5.23h-2.81Zm2.81,2.3v3.82h1.73c1.72,0,2.54-.66,2.54-1.91s-.82-1.91-2.54-1.91Z"/>
    <g>
      <path d="M124.19,26.62A.45.45,0,0,1,124,27a.48.48,0,0,1-.37.14H122v2.75h-.64V22.94h2.34a.51.51,0,0,1,.37.13.46.46,0,0,1,.15.36Zm-.64-.06V23.48H122v3.08Z"/>
      <path d="M128.22,29.86h-.64V26.53h-1.74v3.33h-.64V22.94h.64v3h1.74v-3h.64Z"/>
      <path d="M132.28,29.86h-.64l-.25-1.54H130l-.26,1.54h-.61v0l1.28-6.92H131Zm-1-2.08L130.68,24,130,27.78Z"/>
      <path d="M136,29.37a.48.48,0,0,1-.15.36.48.48,0,0,1-.36.13h-1.82a.52.52,0,0,1-.37-.13.51.51,0,0,1-.14-.36V27.61h.64v1.71h1.56V27.67l-2-2.31a.79.79,0,0,1-.21-.53v-1.4a.49.49,0,0,1,.14-.36.52.52,0,0,1,.37-.13h1.82a.48.48,0,0,1,.36.13.46.46,0,0,1,.15.36V25h-.64V23.48h-1.56v1.46l2,2.31a.79.79,0,0,1,.2.52Z"/>
      <path d="M139.46,29.86h-2.37V22.94h2.34v.54h-1.7v2.58h1.55v.56h-1.55v2.7h1.73Z"/>
      <path d="M145.28,28.61a1.17,1.17,0,0,1-.38.9,1.31,1.31,0,0,1-1,.35H142.3V22.94H144a1.3,1.3,0,0,1,1,.35,1.17,1.17,0,0,1,.38.9Zm-.64-.06V24.24a.72.72,0,0,0-.23-.55.81.81,0,0,0-.58-.21h-.89v5.84h.86a.84.84,0,0,0,.6-.21A.7.7,0,0,0,144.64,28.55Z"/>
      <path d="M147.08,29.86h-.64V22.94h.64Z"/>
      <path d="M151.09,29.37a.51.51,0,0,1-.14.36.52.52,0,0,1-.37.13h-1.81a.51.51,0,0,1-.37-.13.48.48,0,0,1-.15-.36V27.61h.64v1.71h1.56V27.67l-2-2.31a.79.79,0,0,1-.21-.53v-1.4a.46.46,0,0,1,.15-.36.51.51,0,0,1,.37-.13h1.81a.52.52,0,0,1,.37.13.49.49,0,0,1,.14.36V25h-.64V23.48h-1.56v1.46l2,2.31a.79.79,0,0,1,.2.52Z"/>
      <path d="M154.71,23.48h-1.12v6.38H153V23.48h-1.12v-.54h2.88Z"/>
      <path d="M158.5,29.37a.51.51,0,0,1-.14.36.52.52,0,0,1-.37.13h-2a.51.51,0,0,1-.37-.13.47.47,0,0,1-.14-.36V23.43a.45.45,0,0,1,.14-.36.51.51,0,0,1,.37-.13h2a.52.52,0,0,1,.37.13.49.49,0,0,1,.14.36Zm-.64-.05V23.48H156.1v5.84Z"/>
      <path d="M162.72,29.86h-.67l-1.34-3.71.09-.12h1.14V23.48h-1.65v6.38h-.64V22.94h2.42a.52.52,0,0,1,.37.13.49.49,0,0,1,.14.36v2.63c0,.33-.24.5-.7.5h-.4C161.9,27.65,162.31,28.75,162.72,29.86Z"/>
      <path d="M166.16,23.48h-1.11v6.38h-.64V23.48h-1.13v-.54h2.88Z"/>
      <path d="M167.59,29.86H167V22.94h.64Z"/>
      <path d="M171.84,29.37a.48.48,0,0,1-.15.36.51.51,0,0,1-.37.13h-2a.48.48,0,0,1-.36-.13.48.48,0,0,1-.15-.36V23.43a.46.46,0,0,1,.15-.36.48.48,0,0,1,.36-.13h2a.51.51,0,0,1,.37.13.46.46,0,0,1,.15.36Zm-.64-.05V23.48h-1.77v5.84Z"/>
      <path d="M176,29.86h-.44l-1.93-5.09v5.09H173V22.94h.48l1.89,5v-5h.6Z"/>
      <path d="M182,29.37a.48.48,0,0,1-.15.36.52.52,0,0,1-.37.13h-2a.52.52,0,0,1-.37-.13.51.51,0,0,1-.14-.36V23.43a.49.49,0,0,1,.14-.36.52.52,0,0,1,.37-.13h2a.52.52,0,0,1,.37.13.46.46,0,0,1,.15.36Zm-.64-.05V23.48H179.6v5.84Z"/>
      <path d="M186,29.37a.51.51,0,0,1-.14.36.52.52,0,0,1-.37.13h-1.81a.55.55,0,0,1-.38-.13.51.51,0,0,1-.14-.36V27.61h.64v1.71h1.56V27.67l-2-2.31a.79.79,0,0,1-.21-.53v-1.4a.49.49,0,0,1,.14-.36.55.55,0,0,1,.38-.13h1.81a.52.52,0,0,1,.37.13.49.49,0,0,1,.14.36V25h-.64V23.48h-1.56v1.46l2,2.31a.79.79,0,0,1,.2.52Z"/>
      <path d="M190,29.37a.48.48,0,0,1-.15.36.52.52,0,0,1-.37.13h-1.86a.52.52,0,0,1-.37-.13.51.51,0,0,1-.14-.36V23.43a.49.49,0,0,1,.14-.36.52.52,0,0,1,.37-.13h1.86a.52.52,0,0,1,.37.13.46.46,0,0,1,.15.36V25h-.65V23.48h-1.6v5.84h1.6V27.61H190Z"/>
      <path d="M191.79,29.86h-.64V22.94h.64Z"/>
      <path d="M195.29,29.86H193V22.94h.64v6.38h1.66Z"/>
      <path d="M198.47,29.86h-2.3V22.94h.64v6.38h1.66Z"/>
      <path d="M202.25,29.86h-.63l-.26-1.54h-1.43l-.25,1.54h-.62v0l1.28-6.92H201Zm-1-2.08L200.65,24,200,27.78Z"/>
      <path d="M205.6,23.48h-1.11v6.38h-.64V23.48h-1.13v-.54h2.88Z"/>
      <path d="M209.4,29.37a.48.48,0,0,1-.15.36.51.51,0,0,1-.37.13h-2a.48.48,0,0,1-.36-.13.48.48,0,0,1-.15-.36V23.43a.46.46,0,0,1,.15-.36.48.48,0,0,1,.36-.13h2a.51.51,0,0,1,.37.13.46.46,0,0,1,.15.36Zm-.64-.05V23.48H207v5.84Z"/>
      <path d="M213.62,29.86H213l-1.35-3.71.09-.12h1.14V23.48h-1.64v6.38h-.64V22.94H213a.51.51,0,0,1,.37.13.45.45,0,0,1,.14.36v2.63c0,.33-.23.5-.7.5h-.39C212.79,27.65,213.21,28.75,213.62,29.86Z"/>
    </g>
    <g>
      <path d="M54.65,372.73H54v-4.84a5.56,5.56,0,0,1,.07-.6L52.83,372h-.14l-1.25-4.72a5.56,5.56,0,0,1,.07.6v4.84h-.64v-7.65h.63l1.24,5a1.59,1.59,0,0,1,0,.22s0-.13,0-.22l1.24-5h.63Z"/>
      <path d="M59,372.73h-.67L58,371H56.49l-.27,1.7h-.65v0l1.36-7.64h.67Zm-1-2.3-.67-4.14-.67,4.14Z"/>
      <path d="M63,371.34a1.32,1.32,0,0,1-.4,1,1.36,1.36,0,0,1-1,.39H59.87v-7.65h1.75a1.35,1.35,0,0,1,1,.39,1.32,1.32,0,0,1,.4,1Zm-.68-.06v-4.75a.79.79,0,0,0-.24-.61.8.8,0,0,0-.61-.23h-.94v6.44h.9a.9.9,0,0,0,.64-.23A.79.79,0,0,0,62.34,371.28Z"/>
      <path d="M66.72,372.73H64.21v-7.65h2.48v.61h-1.8v2.85h1.64v.61H64.89v3h1.83Z"/>
      <path d="M70.46,372.73h-.68v-7.65h.68Z"/>
      <path d="M74.88,372.73h-.47l-2-5.62v5.62h-.64v-7.65h.51l2,5.53v-5.53h.64Z"/>
      <path d="M81.12,372.18a.54.54,0,0,1-.16.4.53.53,0,0,1-.39.15h-2a.53.53,0,0,1-.39-.15.57.57,0,0,1-.15-.4v-6.55a.53.53,0,0,1,.15-.39.53.53,0,0,1,.39-.16h2a.53.53,0,0,1,.39.16.5.5,0,0,1,.16.39v1.77h-.68v-1.71h-1.7v6.44h1.7v-1.88h.68Z"/>
      <path d="M85.39,372.73h-.68l-.26-1.7H82.93l-.27,1.7H82v0l1.37-7.64H84Zm-1-2.3-.67-4.14L83,370.43Z"/>
      <path d="M88.75,372.73H86.31v-7.65H87v7.05h1.77Z"/>
      <path d="M90.39,372.73h-.68v-7.65h.68Z"/>
      <path d="M94.13,365.69H92.35v2.9H94v.61H92.35v3.53h-.68v-7.65h2.46Z"/>
      <path d="M98.29,372.18a.57.57,0,0,1-.15.4.53.53,0,0,1-.39.15H95.61a.53.53,0,0,1-.39-.15.57.57,0,0,1-.15-.4v-6.55a.53.53,0,0,1,.15-.39.53.53,0,0,1,.39-.16h2.14a.53.53,0,0,1,.39.16.53.53,0,0,1,.15.39Zm-.68-.05v-6.44H95.74v6.44Z"/>
      <path d="M102.77,372.73h-.72l-1.42-4.1.1-.13h1.21v-2.81h-1.75v7h-.68v-7.65h2.56a.53.53,0,0,1,.39.16.53.53,0,0,1,.15.39v2.9c0,.37-.24.55-.74.55h-.42Z"/>
      <path d="M106.93,372.73h-.47l-2-5.62v5.62h-.64v-7.65h.51l2,5.53v-5.53h.64Z"/>
      <path d="M108.87,372.73h-.68v-7.65h.68Z"/>
      <path d="M113.22,372.73h-.67l-.27-1.7h-1.52l-.26,1.7h-.66v0l1.36-7.64h.67Zm-1-2.3-.66-4.14-.68,4.14Z"/>
      <path d="M119.16,372.18a.57.57,0,0,1-.15.4.53.53,0,0,1-.39.15H116.1v-7.65h2.5a.53.53,0,0,1,.39.16.53.53,0,0,1,.15.39v2.27a.63.63,0,0,1-.27.51l-.54.32.58.37a.53.53,0,0,1,.25.49Zm-.7-4.19v-2.3h-1.68v2.75h1Zm0,4.14v-2.65l-.69-.44h-1v3.09Z"/>
      <path d="M123.42,365.13l-.93,3.09c-.11.31-.27.82-.46,1.55v3h-.68v-3a6.51,6.51,0,0,0-.21-.78c-.16-.47-.24-.73-.25-.77l-.93-3.09v-.05h.69l1,3.83,1-3.83h.68Z"/>
      <path d="M130,372.73h-.64v-4.84a5.56,5.56,0,0,1,.07-.6L128.17,372H128l-1.25-4.72a5.56,5.56,0,0,1,.07.6v4.84h-.64v-7.65h.63l1.24,5s0,.1,0,.22a1,1,0,0,1,0-.22l1.24-5H130Z"/>
      <path d="M134.44,372.18a.58.58,0,0,1-.16.4.53.53,0,0,1-.39.15h-2.14a.53.53,0,0,1-.39-.15.57.57,0,0,1-.15-.4v-6.55a.53.53,0,0,1,.15-.39.53.53,0,0,1,.39-.16h2.14a.55.55,0,0,1,.55.55Zm-.68-.05v-6.44h-1.87v6.44Z"/>
      <path d="M138.63,372.18a.56.56,0,0,1-.14.4.53.53,0,0,1-.39.15h-1.93a.53.53,0,0,1-.39-.15.57.57,0,0,1-.15-.4v-1.93h.68v1.88H138V370.3l-2.11-2.54a.88.88,0,0,1-.22-.59v-1.54a.53.53,0,0,1,.15-.39.53.53,0,0,1,.39-.16h1.93a.53.53,0,0,1,.39.16.52.52,0,0,1,.14.39v1.77H138v-1.71h-1.65v1.61l2.12,2.55a.85.85,0,0,1,.2.57Z"/>
      <path d="M143.59,372.74h-.06l-.5-.41a.47.47,0,0,1-.5.4h-2.15a.53.53,0,0,1-.39-.15.57.57,0,0,1-.15-.4v-6.55a.53.53,0,0,1,.15-.39.53.53,0,0,1,.39-.16h2.15a.53.53,0,0,1,.39.16.56.56,0,0,1,.14.39v6l.53.42Zm-1.21-.61v-.3l-.81-.68v-.66h.07l.74.62v-5.42h-1.86v6.44Z"/>
      <path d="M147.51,372.18a.54.54,0,0,1-.16.4.53.53,0,0,1-.39.15h-2.08a.53.53,0,0,1-.39-.15.57.57,0,0,1-.15-.4v-7.1H145v7.05h1.81v-7.05h.68Z"/>
      <path d="M149.45,372.73h-.68v-7.65h.68Z"/>
      <path d="M153.35,365.69h-1.18v7h-.68v-7H150.3v-.61h3Z"/>
      <path d="M157.38,372.18a.58.58,0,0,1-.16.4.53.53,0,0,1-.39.15h-2.14a.53.53,0,0,1-.39-.15.57.57,0,0,1-.15-.4v-6.55a.53.53,0,0,1,.15-.39.53.53,0,0,1,.39-.16h2.14a.55.55,0,0,1,.55.55Zm-.68-.05v-6.44h-1.87v6.44Z"/>
      <path d="M163,372.73h-2.45v-7.65h.68v7.05H163Z"/>
      <path d="M167,372.73h-.67l-.27-1.7h-1.52l-.26,1.7h-.66v0l1.36-7.64h.67Zm-1-2.3-.67-4.14-.67,4.14Z"/>
      <path d="M171,372.18a.57.57,0,0,1-.15.4.53.53,0,0,1-.39.15h-2.52v-7.65h2.5a.53.53,0,0,1,.39.16.53.53,0,0,1,.15.39v2.27a.63.63,0,0,1-.27.51l-.54.32.58.37a.53.53,0,0,1,.25.49Zm-.7-4.19v-2.3H168.6v2.75h1Zm0,4.14v-2.65l-.69-.44h-1v3.09Z"/>
      <path d="M175.15,372.18a.57.57,0,0,1-.15.4.53.53,0,0,1-.39.15h-1.92a.52.52,0,0,1-.55-.55v-1.93h.68v1.88h1.65V370.3l-2.11-2.54a.88.88,0,0,1-.22-.59v-1.54a.53.53,0,0,1,.15-.39.58.58,0,0,1,.4-.16h1.92a.53.53,0,0,1,.39.16.53.53,0,0,1,.15.39v1.77h-.68v-1.71h-1.65v1.61l2.12,2.55a.86.86,0,0,1,.21.57Z"/>
    </g>
    <g>
      <path d="M57.6,187.53a.53.53,0,0,1-.16.39.53.53,0,0,1-.39.15h-2a.51.51,0,0,1-.54-.54V181a.51.51,0,0,1,.54-.54h2a.53.53,0,0,1,.39.15.53.53,0,0,1,.16.39v1.78h-.69V181h-1.7v6.44h1.7v-1.88h.69Z"/>
      <path d="M61.77,180.43l-1.33,7.66H59.8l-1.32-7.66h.67l1,6.08,0,.5c0-.12,0-.28,0-.5l.94-6.08Z"/>
    </g>
    <g>
      <path d="M202.6,187.53a.53.53,0,0,1-.56.54h-2a.51.51,0,0,1-.54-.54V181a.51.51,0,0,1,.54-.54h2a.53.53,0,0,1,.56.54v1.78h-.69V181h-1.7v6.44h1.7v-1.88h.69Z"/>
      <path d="M206.77,180.43l-1.33,7.66h-.64l-1.32-7.66h.67l.95,6.08,0,.5c0-.12,0-.28,0-.5l.94-6.08Z"/>
    </g>
    <g>
      <path d="M57.6,122.53a.53.53,0,0,1-.16.39.53.53,0,0,1-.39.15h-2a.51.51,0,0,1-.54-.54V116a.51.51,0,0,1,.54-.54h2a.53.53,0,0,1,.39.15.53.53,0,0,1,.16.39v1.78h-.69V116h-1.7v6.44h1.7v-1.88h.69Z"/>
      <path d="M61.77,115.43l-1.33,7.66H59.8l-1.32-7.66h.67l1,6.08,0,.5c0-.12,0-.28,0-.5l.94-6.08Z"/>
    </g>
    <g>
      <path d="M202.6,122.53a.53.53,0,0,1-.56.54h-2a.51.51,0,0,1-.54-.54V116a.51.51,0,0,1,.54-.54h2a.53.53,0,0,1,.56.54v1.78h-.69V116h-1.7v6.44h1.7v-1.88h.69Z"/>
      <path d="M206.77,115.43l-1.33,7.66h-.64l-1.32-7.66h.67l.95,6.08,0,.5c0-.12,0-.28,0-.5l.94-6.08Z"/>
    </g>
    <rect x="143" y="308" width="30" height="12" style="fill: #fffffd"/>
    <g>
      <path d="M151.3,317.53a.51.51,0,0,1-.16.39.53.53,0,0,1-.39.15h-2.52v-7.64h2.5a.57.57,0,0,1,.4.15.53.53,0,0,1,.15.39v2.27a.64.64,0,0,1-.28.51l-.53.32.57.37a.54.54,0,0,1,.26.49Zm-.71-4.2V311h-1.68v2.76h1Zm0,4.14v-2.64l-.69-.45h-1v3.09Z"/>
      <path d="M155.71,317.53a.54.54,0,0,1-.15.39.57.57,0,0,1-.4.15H153a.53.53,0,0,1-.39-.15.54.54,0,0,1-.15-.39V311a.51.51,0,0,1,.54-.54h2.14a.57.57,0,0,1,.4.15.53.53,0,0,1,.15.39Zm-.68-.06V311h-1.87v6.44Z"/>
      <path d="M160.16,317.53a.51.51,0,0,1-.16.39.53.53,0,0,1-.39.15h-2.14a.53.53,0,0,1-.39-.15.54.54,0,0,1-.15-.39V311a.51.51,0,0,1,.54-.54h2.14a.53.53,0,0,1,.39.15.5.5,0,0,1,.16.39Zm-.68-.06V311h-1.87v6.44Z"/>
      <path d="M164.36,317.53a.54.54,0,0,1-.15.39.53.53,0,0,1-.39.15H161.9a.57.57,0,0,1-.4-.15.54.54,0,0,1-.15-.39v-1.94H162v1.88h1.65v-1.82l-2.11-2.55a.88.88,0,0,1-.22-.58V311a.53.53,0,0,1,.15-.39.57.57,0,0,1,.4-.15h1.92a.51.51,0,0,1,.54.54v1.78h-.68V311H162v1.61l2.12,2.55a.87.87,0,0,1,.21.57Z"/>
      <path d="M168.19,311H167v7h-.68v-7h-1.19v-.6h3.05Z"/>
    </g>
  </g>
  <g id="Layer_6" data-name="Layer 6">
    <g>
      <path d="M203.49,83.13a5.83,5.83,0,0,1-3.76,1.81,1.55,1.55,0,0,0-.53,0c-1.35.54-2.48,0-3.68-.62a9,9,0,0,0-3.58-1,13.45,13.45,0,0,0-5,.63c-.66.2-1.29.5-2,.66a8.74,8.74,0,0,1-5.59-.36A29.28,29.28,0,0,1,174,81.53,27.82,27.82,0,0,1,170.76,79c-1.39-1.27-2.66-2.67-4-4l.14-.13a4.35,4.35,0,0,1,.76.45c.61.57,1.19,1.15,1.76,1.75a34.64,34.64,0,0,0,5.26,4.41,21.81,21.81,0,0,0,3.2,1.62l.12.12-.12-.13a10,10,0,0,1-.68-.78c-.08-.1,0-.3,0-.45a2.14,2.14,0,0,1,.44.08c.05,0,.06.15.11.23,1,1.71,2.84,2.05,4.58,2.44a2,2,0,0,0,.76-.09L185,84A4.3,4.3,0,0,0,187,83a.55.55,0,0,1,.26-.05l.14.14c.92-.06,1.84-.1,2.76-.23a3.93,3.93,0,0,1,.88-.14,29.4,29.4,0,0,1,4.09.58c.49.13,1.31.18,1.51,1,0,.13.42.23.65.25A8.29,8.29,0,0,0,203.09,83a.55.55,0,0,1,.26-.05A.93.93,0,0,1,203.49,83.13Z" style="stroke: #000;stroke-miterlimit: 10;stroke-width: 0.36px"/>
      <path d="M156.39,72.6a19,19,0,0,1-2.06,1.76,27.31,27.31,0,0,0-3.43,2.72c-1.62,1.5-3.27,3-4.94,4.4a9.1,9.1,0,0,1-1.41.85.86.86,0,0,1-.13-.14c0-.13,0-.31.11-.36a36.44,36.44,0,0,0,4.84-4.1c1.44-1.31,3-2.52,4.51-3.72.74-.58,1.58-1,2.37-1.55Z" style="stroke: #000;stroke-miterlimit: 10;stroke-width: 0.36px"/>
      <path d="M156.25,72.46a3.8,3.8,0,0,1,2.25-1.52,5.58,5.58,0,0,1,3.8,0,7.07,7.07,0,0,1,1.87,1.1c.87.69,1.67,1.47,2.48,2.23a1.82,1.82,0,0,1,.27.56l-.14.13c-1.1-.9-2.19-1.82-3.31-2.7a5.29,5.29,0,0,0-4.31-1,8.4,8.4,0,0,0-2.1,1l-.67.34Z" style="stroke: #000;stroke-miterlimit: 10;stroke-width: 0.36px"/>
      <path d="M144.55,82.33a6.62,6.62,0,0,1-3,1.78,16.7,16.7,0,0,1-2.73.76c-.14,0-.32-.06-.47-.13a.28.28,0,0,1-.11-.22.22.22,0,0,1,.14-.16c.3,0,.61,0,.91-.09A5.84,5.84,0,0,0,142,83l.14.13c.46.36.66-.19,1-.3a9.15,9.15,0,0,0,1.25-.63A.86.86,0,0,0,144.55,82.33Z" style="stroke: #000;stroke-miterlimit: 10;stroke-width: 0.36px"/>
      <path d="M206.78,79.3c.51-.61,1-1.24,1.54-1.84a1.64,1.64,0,0,1,.55-.26.93.93,0,0,1,.14.14,4.08,4.08,0,0,1-2.09,2.1A1.85,1.85,0,0,1,206.78,79.3Z" style="stroke: #000;stroke-miterlimit: 10;stroke-width: 0.36px"/>
      <path d="M138.67,61.44c.43.17,1,.41,1.62.67.09,0,.12.21.18.32-.12,0-.26.16-.35.13-.44-.15-.88-.33-1.31-.51a4.3,4.3,0,0,1-.57-.28,1.57,1.57,0,0,1-.24-.21c.12,0,.23-.09.35-.12S138.44,61.44,138.67,61.44Z" style="stroke: #000;stroke-miterlimit: 10;stroke-width: 0.36px"/>
      <path d="M165.26,71.8c.66.26,1.33.52,2,.8.06,0,.07.21.05.32s-.14.14-.19.12c-.7-.29-1.39-.59-2.08-.91,0,0,0-.16,0-.23S165.17,71.84,165.26,71.8Z" style="stroke: #000;stroke-miterlimit: 10;stroke-width: 0.36px"/>
      <path d="M141.76,62.73l2.24.83c.06,0,.1.13.14.2a.8.8,0,0,1-.23.11,1.29,1.29,0,0,1-.52,0c-.6-.24-1.2-.5-1.79-.76-.07,0-.1-.17-.15-.25Z" style="stroke: #000;stroke-miterlimit: 10;stroke-width: 0.36px"/>
      <path d="M206.92,79.44a7.48,7.48,0,0,1-1.85,2.1l-.14-.13c.31-1,1.2-1.43,1.85-2.11A1.85,1.85,0,0,0,206.92,79.44Z" style="stroke: #000;stroke-miterlimit: 10;stroke-width: 0.36px"/>
      <path d="M173.94,75.11l2.25,1.07s.06.17,0,.21a.25.25,0,0,1-.22.09c-.72-.26-1.44-.53-2.15-.82-.08,0-.13-.2-.14-.32S173.82,75.23,173.94,75.11Z" style="stroke: #000;stroke-miterlimit: 10;stroke-width: 0.36px"/>
      <path d="M169.84,70.72a1.19,1.19,0,0,1,.26.15,5.55,5.55,0,0,1,1.17,2.06s-.07.08-.08.07a4.87,4.87,0,0,1-1.45-1.94C169.7,71,169.81,70.84,169.84,70.72Z" style="stroke: #000;stroke-miterlimit: 10;stroke-width: 0.36px"/>
      <path d="M147.63,65.11s0,.1,0,.12-.13.13-.18.11c-.68-.24-1.36-.48-2-.75-.07,0-.1-.21-.1-.32s.14-.16.17-.15c.71.28,1.41.58,2.11.88C147.61,65,147.62,65.07,147.63,65.11Z" style="stroke: #000;stroke-miterlimit: 10;stroke-width: 0.36px"/>
      <path d="M155.11,63.35c-.14-.05-.24-.07-.28-.12a.23.23,0,0,1,0-.22,3.38,3.38,0,0,1,.87-.75c.27-.11.41-.61.83-.34a4,4,0,0,1-.55.81A6.46,6.46,0,0,1,155.11,63.35Z" style="stroke: #000;stroke-miterlimit: 10;stroke-width: 0.36px"/>
      <path d="M190.87,81.65l1,.44c.42.19.82.4,1.23.6-.54.39-1-.17-1.45-.22a3.24,3.24,0,0,1-.93-.39.27.27,0,0,1-.11-.22S190.72,81.77,190.87,81.65Z" style="stroke: #000;stroke-miterlimit: 10;stroke-width: 0.36px"/>
      <path d="M186.7,80.1l2.08.85s.08.16.05.19-.16.11-.22.09c-.69-.21-1.38-.43-2.06-.68-.07,0-.11-.2-.13-.31S186.55,80.17,186.7,80.1Z" style="stroke: #000;stroke-miterlimit: 10;stroke-width: 0.36px"/>
      <path d="M181,78.34s-.1,0-.13,0l-2.16-1s.07-.08.1-.08a4.43,4.43,0,0,1,2.25.74c.06,0,.1.13.16.19Z" style="stroke: #000;stroke-miterlimit: 10;stroke-width: 0.36px"/>
      <path d="M171.85,74.72c-.08,0-.2.1-.27.07-.72-.3-1.43-.61-2.13-.92-.07,0-.12-.12-.17-.18s.15-.13.21-.12a4.92,4.92,0,0,1,2.35,1S171.85,74.61,171.85,74.72Z" style="stroke: #000;stroke-miterlimit: 10;stroke-width: 0.36px"/>
      <path d="M161.13,60.85a5,5,0,0,1,.61.28c.31.21.88.12.86.73-.3-.09-.6-.2-.9-.27a4,4,0,0,1-.63-.1,2.12,2.12,0,0,1-.46-.39Z" style="stroke: #000;stroke-miterlimit: 10;stroke-width: 0.36px"/>
      <path d="M190.61,79.58c-.32.41-.67.88-1,1.34,0,0-.19,0-.22,0s-.15-.26-.11-.32c.32-.46.67-.9,1-1.34,0,0,.16,0,.21,0S190.53,79.38,190.61,79.58Z" style="stroke: #000;stroke-miterlimit: 10;stroke-width: 0.36px"/>
      <path d="M151.35,66.52c-.09,0-.2.15-.25.12-.6-.28-1.37-.16-1.8-.79,0,0,0-.08,0-.09.76-.32,1.22.48,1.89.51C151.25,66.27,151.28,66.4,151.35,66.52Z" style="stroke: #000;stroke-miterlimit: 10;stroke-width: 0.36px"/>
      <path d="M165.8,64.38c.08,0,.18.05.22.11.28.43.56.87.81,1.32,0,.07-.05.22-.08.34-.08,0-.18,0-.22-.09-.34-.44-.67-.89-1-1.34,0,0,0-.17.05-.23A.53.53,0,0,1,165.8,64.38Z" style="stroke: #000;stroke-miterlimit: 10;stroke-width: 0.36px"/>
      <path d="M154.51,64.21l-.63.71c-.21.23-.39.55-.65.65s-.06-.6.38-1c.21-.21.43-.4.66-.59,0,0,.13,0,.19.08S154.48,64.09,154.51,64.21Z" style="stroke: #000;stroke-miterlimit: 10;stroke-width: 0.36px"/>
      <path d="M163.7,62.24a1.24,1.24,0,0,1,.3.16c.38.36.74.72,1.09,1.09.06.07,0,.21,0,.31s-.28,0-.34,0c-.44-.41-.86-.84-1.27-1.27,0,0,0-.13,0-.2S163.63,62.28,163.7,62.24Z" style="stroke: #000;stroke-miterlimit: 10;stroke-width: 0.36px"/>
      <path d="M147.71,74.37c0-.2-.14-.39-.09-.49.26-.44.55-.86.85-1.27,0-.07.22,0,.34,0a1,1,0,0,1,0,.31c-.23.42-.46.82-.71,1.22C148,74.19,147.88,74.25,147.71,74.37Z" style="stroke: #000;stroke-miterlimit: 10;stroke-width: 0.36px"/>
      <path d="M196.72,69.64c0,.12.14.31.09.39a11.49,11.49,0,0,1-.85,1.1c-.05.06-.22,0-.33,0s-.12-.17-.1-.2c.32-.44.65-.87,1-1.3C196.53,69.62,196.59,69.64,196.72,69.64Z" style="stroke: #000;stroke-miterlimit: 10;stroke-width: 0.36px"/>
      <path d="M145.88,77.51c0-.14-.11-.29-.07-.37.29-.51.6-1,.93-1.51,0-.07.2-.08.31-.09s.09.17.06.21c-.28.52-.58,1-.89,1.54C146.17,77.38,146,77.42,145.88,77.51Z" style="stroke: #000;stroke-miterlimit: 10;stroke-width: 0.36px"/>
      <path d="M159.7,61c-.06.09-.07.14-.1.15-.59.22-1.17.57-1.84.26a.1.1,0,0,1,0-.09A2,2,0,0,1,159.7,61Z" style="stroke: #000;stroke-miterlimit: 10;stroke-width: 0.36px"/>
      <path d="M142,83a2.78,2.78,0,0,1,.55-.84c.25-.19.26-1,.74-.53s-.26.61-.48.89a5.58,5.58,0,0,1-.67.61Z" style="stroke: #000;stroke-miterlimit: 10;stroke-width: 0.36px"/>
      <path d="M183.49,79c.5.1,1,.19,1.5.32.11,0,.18.24.26.36-.14.07-.32.23-.43.19a6.61,6.61,0,0,1-.77-.44c-.22-.11-.46-.19-.69-.29Z" style="stroke: #000;stroke-miterlimit: 10;stroke-width: 0.36px"/>
      <path d="M155.2,68.12a2.17,2.17,0,0,1-1.55-.47c-.08-.06-.09-.2-.13-.31.12,0,.27-.14.35-.1.5.23,1,.49,1.46.74A.86.86,0,0,1,155.2,68.12Z" style="stroke: #000;stroke-miterlimit: 10;stroke-width: 0.36px"/>
      <path d="M174.82,78.78c.4.49.81,1,1.19,1.46.05.07,0,.23,0,.34s-.26,0-.31-.09c-.35-.52-.67-1-1-1.58Z" style="stroke: #000;stroke-miterlimit: 10;stroke-width: 0.36px"/>
      <path d="M199.07,72.94,198.78,74a6.32,6.32,0,0,1-.13-1.14c0-.42-.21-.91.21-1.27Z" style="stroke: #000;stroke-miterlimit: 10;stroke-width: 0.36px"/>
      <path d="M198.8,67.61a4.16,4.16,0,0,1,0,2.47A4.24,4.24,0,0,1,198.8,67.61Z" style="stroke: #000;stroke-miterlimit: 10;stroke-width: 0.36px"/>
      <path d="M145.08,79.17c-.23.51-.45,1-.7,1.53,0,.09-.21.13-.31.19,0-.11-.14-.27-.1-.34.31-.51.64-1,1-1.51Z" style="stroke: #000;stroke-miterlimit: 10;stroke-width: 0.36px"/>
      <path d="M198.93,81.55c0,.71,0,1.42,0,2.13,0,0-.19.11-.3.14a.31.31,0,0,1-.11-.18c.08-.7.17-1.4.25-2.1Z" style="stroke: #000;stroke-miterlimit: 10;stroke-width: 0.36px"/>
      <path d="M198.48,68.38l-.55.38-.77.49c-.16-.5.32-.62.52-.91.07-.09.2-.22.3-.22S198.24,68.25,198.48,68.38Z" style="stroke: #000;stroke-miterlimit: 10;stroke-width: 0.36px"/>
      <path d="M199.07,61.94l-.28,1a5.62,5.62,0,0,1-.14-1,8.27,8.27,0,0,1,.19-1.18Z" style="stroke: #000;stroke-miterlimit: 10;stroke-width: 0.36px"/>
      <path d="M198.83,66.4a3.41,3.41,0,0,1,0-2.21A3.47,3.47,0,0,1,198.83,66.4Z" style="stroke: #000;stroke-miterlimit: 10;stroke-width: 0.36px"/>
      <path d="M198.81,78.13a3.47,3.47,0,0,1,0,2.21A3.41,3.41,0,0,1,198.81,78.13Z" style="stroke: #000;stroke-miterlimit: 10;stroke-width: 0.36px"/>
      <path d="M159.28,69.57c.45.05,1-.1,1.23.44a.33.33,0,0,1,0,.24s-.14.11-.18.09c-.41-.18-1-.1-1.18-.63Z" style="stroke: #000;stroke-miterlimit: 10;stroke-width: 0.36px"/>
      <path d="M192.44,76.54c-.28.47-.55.94-.84,1.4a.22.22,0,0,1-.21,0s-.1-.17-.07-.21c.32-.45.65-.88,1-1.32Z" style="stroke: #000;stroke-miterlimit: 10;stroke-width: 0.36px"/>
      <path d="M208.87,77.2c.07-.58.65-.63,1-.93,0,.06.15.13.14.17a1.13,1.13,0,0,1-1,.9A.93.93,0,0,0,208.87,77.2Z" style="stroke: #000;stroke-miterlimit: 10;stroke-width: 0.36px"/>
      <path d="M199,76.1c0,.25,0,.47-.06.68,0,0-.11.08-.17.11a.14.14,0,0,1-.08-.1c0-.47,0-.94,0-1.41,0,0,.11-.08.17-.11s.08.06.08.1C199,75.62,199,75.88,199,76.1Z" style="stroke: #000;stroke-miterlimit: 10;stroke-width: 0.36px"/>
      <path d="M194.81,72.59,194,73.91l-.15-.13a2,2,0,0,1,.79-1.32Z" style="stroke: #000;stroke-miterlimit: 10;stroke-width: 0.36px"/>
      <path d="M150.08,70.23c-.16.34-.31.7-.49,1,0,.07-.2.07-.31.1,0-.12-.07-.27,0-.35.21-.32.45-.62.67-.93Z" style="stroke: #000;stroke-miterlimit: 10;stroke-width: 0.36px"/>
      <path d="M152.18,67.07c-.19.33-.36.67-.56,1,0,.07-.17.08-.26.12,0-.12-.11-.29-.05-.36.22-.31.48-.59.73-.88Z" style="stroke: #000;stroke-miterlimit: 10;stroke-width: 0.36px"/>
      <path d="M188.23,82.33a.81.81,0,0,1-.79.8L187.3,83a.79.79,0,0,1,.79-.79Z" style="stroke: #000;stroke-miterlimit: 10;stroke-width: 0.36px"/>
      <path d="M173,75.62c.24.39.48.78.71,1.18a2.09,2.09,0,0,1-.17.14l-.69-1.19Z" style="stroke: #000;stroke-miterlimit: 10;stroke-width: 0.36px"/>
      <path d="M159.15,69.71c-.31-.14-.8.2-1-.35a.14.14,0,0,1,0-.11c.43-.41.65.2,1,.22,0,0,.06.06.08.1Z" style="stroke: #000;stroke-miterlimit: 10;stroke-width: 0.36px"/>
      <path d="M204.81,81.81a.77.77,0,0,1-.79.78,1.85,1.85,0,0,1-.14-.14c.27-.26.26-.79.79-.78Z" style="stroke: #000;stroke-miterlimit: 10;stroke-width: 0.36px"/>
      <path d="M192.3,76.41a2.58,2.58,0,0,1,0-.39c0-.24.16-.44.42-.27.09.06.11.32.05.44s-.24.24-.37.35Z" style="stroke: #000;stroke-miterlimit: 10;stroke-width: 0.36px"/>
      <path d="M155.33,68l.4,0c.23,0,.43.17.26.43-.05.08-.31.1-.43,0s-.24-.25-.36-.38A.86.86,0,0,0,155.33,68Z" style="stroke: #000;stroke-miterlimit: 10;stroke-width: 0.36px"/>
      <path d="M167.71,67.2l.52.79-.14.13-.52-.79Z" style="stroke: #000;stroke-miterlimit: 10;stroke-width: 0.36px"/>
      <path d="M168.5,68.52a2.73,2.73,0,0,1,.43.47c0,.06-.05.21-.09.33-.07,0-.18,0-.21-.11a4.11,4.11,0,0,1-.27-.56A.86.86,0,0,1,168.5,68.52Z" style="stroke: #000;stroke-miterlimit: 10;stroke-width: 0.36px"/>
      <path d="M149.93,70.09l.53-.78.14.12-.52.8Z" style="stroke: #000;stroke-miterlimit: 10;stroke-width: 0.36px"/>
      <path d="M172.83,75.75l-.52-.79.14-.13.53.79Z" style="stroke: #000;stroke-miterlimit: 10;stroke-width: 0.36px"/>
      <path d="M144.93,79a5.85,5.85,0,0,1,.28-.56c0-.06.14-.07.22-.11,0,.12.12.27.08.34a3.09,3.09,0,0,1-.43.46Z" style="stroke: #000;stroke-miterlimit: 10;stroke-width: 0.36px"/>
      <path d="M204,82.59a.5.5,0,0,1-.53.54.93.93,0,0,0-.14-.14.5.5,0,0,1,.53-.54A1.85,1.85,0,0,0,204,82.59Z" style="stroke: #000;stroke-miterlimit: 10;stroke-width: 0.36px"/>
      <path d="M152,66.94c.09-.19.17-.39.27-.57s.15-.07.22-.1.13.27.09.33a3.27,3.27,0,0,1-.44.47Z" style="stroke: #000;stroke-miterlimit: 10;stroke-width: 0.36px"/>
      <path d="M188.09,82.2a.85.85,0,0,1,.12-.36c.07-.06.22,0,.33-.07a.62.62,0,0,1,0,.31,1.14,1.14,0,0,1-.28.25Z" style="stroke: #000;stroke-miterlimit: 10;stroke-width: 0.36px"/>
      <path d="M167.57,67.33c-.07,0-.17-.09-.2-.15a1.91,1.91,0,0,1-.11-.41,2,2,0,0,1,.39.19s0,.16.06.24Z" style="stroke: #000;stroke-miterlimit: 10;stroke-width: 0.36px"/>
      <path d="M174.67,78.91l-.26-.53a1.59,1.59,0,0,0,.13-.13l.28.53Z" style="stroke: #000;stroke-miterlimit: 10;stroke-width: 0.36px"/>
      <path d="M183.36,79.18,183,79s.11-.15.14-.15a3.6,3.6,0,0,1,.39.2Z" style="stroke: #000;stroke-miterlimit: 10;stroke-width: 0.36px"/>
      <path d="M168.23,68l.27.53a.86.86,0,0,0-.14.13l-.27-.53Z" style="stroke: #000;stroke-miterlimit: 10;stroke-width: 0.36px"/>
      <path d="M194,73.91l-.2.4c-.05,0-.15-.11-.14-.14a3.49,3.49,0,0,1,.19-.39Z" style="stroke: #000;stroke-miterlimit: 10;stroke-width: 0.36px"/>
      <path d="M172.31,75s-.09,0-.1-.07,0-.27-.05-.41l.29.35Z" style="stroke: #000;stroke-miterlimit: 10;stroke-width: 0.36px"/>
      <path d="M150.46,69.31l.19-.41s.15.12.15.14a2.87,2.87,0,0,1-.2.39Z" style="stroke: #000;stroke-miterlimit: 10;stroke-width: 0.36px"/>
      <path d="M174.41,78.38l-.12-.25.25.12A1.59,1.59,0,0,1,174.41,78.38Z" style="stroke: #000;stroke-miterlimit: 10;stroke-width: 0.36px"/>
      <path d="M194.67,72.46l.26-.12-.12.25Z" style="stroke: #000;stroke-miterlimit: 10;stroke-width: 0.36px"/>
      <path d="M204.67,81.67l.26-.26.14.13-.26.27Z" style="stroke: #000;stroke-miterlimit: 10;stroke-width: 0.36px"/>
      <path d="M177.9,83.05l.12.13-.12-.12Z" style="stroke: #000;stroke-miterlimit: 10;stroke-width: 0.36px"/>
    </g>
  </g>
</svg>
