<svg xmlns="http://www.w3.org/2000/svg" width="165" height="380" viewBox="0 0 165 380">
  <title>pulse</title>
  <g id="Layer_3" data-name="Layer 3">
    <rect width="165" height="380" style="fill: #fffffd"/>
  </g>
  <g id="SHADING">
    <rect y="230" width="165" height="65" style="fill: #ededed"/>
    <rect y="100" width="165" height="65" style="fill: #ededed"/>
  </g>
  <g id="Layer_4" data-name="Layer 4">
    <line x1="20" y1="270" x2="110" y2="270" style="fill: none;stroke: #000;stroke-miterlimit: 10;stroke-width: 0.9px"/>
    <line x1="20" y1="205.5" x2="110" y2="205.5" style="fill: none;stroke: #000;stroke-miterlimit: 10;stroke-width: 0.9px"/>
    <line x1="20" y1="205" x2="20" y2="344" style="fill: none;stroke: #000;stroke-miterlimit: 10;stroke-width: 0.9px"/>
    <line x1="54.5" y1="335" x2="99.5" y2="335" style="fill: none;stroke: #000;stroke-miterlimit: 10;stroke-width: 0.9px"/>
    <line x1="55.5" y1="75" x2="100.5" y2="75" style="fill: none;stroke: #000;stroke-miterlimit: 10;stroke-width: 0.9px"/>
    <line x1="55" y1="140" x2="100" y2="140" style="fill: none;stroke: #000;stroke-miterlimit: 10;stroke-width: 0.9px"/>
    <line x1="145" y1="270" x2="145" y2="335" style="fill: none;stroke: #000;stroke-miterlimit: 10;stroke-width: 0.9px"/>
  </g>
  <g id="Layer_10" data-name="Layer 10">
    <rect x="130" y="305" width="30" height="45" rx="5.04"/>
  </g>
  <g id="text">
    <rect x="40" y="245" width="30" height="10" style="fill: #ededed"/>
    <g>
      <path d="M54.68,317.63a.41.41,0,0,1-.13.32.43.43,0,0,1-.31.12H52.66a.41.41,0,0,1-.31-.12.44.44,0,0,1-.12-.32v-5.24a.41.41,0,0,1,.43-.43h1.58a.43.43,0,0,1,.31.12.39.39,0,0,1,.13.31v1.42h-.55v-1.37H52.77v5.15h1.36v-1.51h.55Z"/>
      <path d="M58,312l-1,6.12h-.52L55.38,312h.54l.76,4.86,0,.4c0-.09,0-.22,0-.4l.76-4.86Z"/>
    </g>
    <g>
      <path d="M82.91,307.87a.51.51,0,0,1-.54.54H80.44a.54.54,0,0,1-.39-.15.53.53,0,0,1-.15-.39v-1.94h.68v1.88h1.65V306l-2.11-2.55a.88.88,0,0,1-.22-.58v-1.55a.53.53,0,0,1,.15-.39.54.54,0,0,1,.39-.15h1.93a.51.51,0,0,1,.54.54v1.78h-.68v-1.72H80.58V303l2.12,2.55a.93.93,0,0,1,.21.57Z"/>
      <path d="M86.74,301.37H85.56v7h-.68v-7H83.69v-.6h3Z"/>
      <path d="M90.76,307.87a.53.53,0,0,1-.15.39.55.55,0,0,1-.4.15H88.08a.53.53,0,0,1-.39-.15.5.5,0,0,1-.16-.39v-6.56a.5.5,0,0,1,.16-.39.53.53,0,0,1,.39-.15h2.13a.55.55,0,0,1,.4.15.53.53,0,0,1,.15.39Zm-.68-.06v-6.44H88.21v6.44Z"/>
      <path d="M95,307.87a.53.53,0,0,1-.15.39.57.57,0,0,1-.4.15h-2a.54.54,0,0,1-.39-.15.53.53,0,0,1-.15-.39v-6.56a.53.53,0,0,1,.15-.39.54.54,0,0,1,.39-.15h2a.57.57,0,0,1,.4.15.53.53,0,0,1,.15.39v1.78h-.68v-1.72h-1.7v6.44h1.7v-1.88H95Z"/>
      <path d="M99.43,308.41h-.68v-3.67H96.91v3.67h-.68v-7.64h.68v3.36h1.84v-3.36h.68Z"/>
      <path d="M101.24,308.41h-.74v-.86h.74Z"/>
      <path d="M108.05,308.41h-.64v-4.84a5.56,5.56,0,0,1,.07-.6l-1.25,4.72h-.14L104.84,303c0,.33.07.53.07.6v4.84h-.64v-7.64h.63l1.24,5s0,.1,0,.22a1,1,0,0,1,0-.22l1.24-5h.63Z"/>
      <path d="M112.35,308.41h-.68l-.26-1.7h-1.52l-.27,1.7H109v0l1.37-7.64H111Zm-1-2.3-.67-4.14-.67,4.14Z"/>
      <path d="M116.25,307.87a.51.51,0,0,1-.54.54h-1.93a.54.54,0,0,1-.39-.15.53.53,0,0,1-.15-.39v-1.94h.68v1.88h1.65V306l-2.11-2.55a.88.88,0,0,1-.22-.58v-1.55a.53.53,0,0,1,.15-.39.54.54,0,0,1,.39-.15h1.93a.51.51,0,0,1,.54.54v1.78h-.68v-1.72h-1.65V303l2.12,2.55a.93.93,0,0,1,.21.57Z"/>
      <path d="M120.63,308.41h-.74l-1.76-3.67v3.67h-.68v-7.64h.68v3.43l1.6-3.43h.73v0l-1.72,3.64Z"/>
    </g>
    <g>
      <path d="M143.16,317.63a.44.44,0,0,1-.12.32.43.43,0,0,1-.31.12H141a.41.41,0,0,1-.44-.44v-5.24a.41.41,0,0,1,.12-.31A.41.41,0,0,1,141,312h1.71a.4.4,0,0,1,.31.13.41.41,0,0,1,.12.31Zm-.54,0v-5.16h-1.49v5.16Z" style="fill: #f2f2f2"/>
      <path d="M146.68,317.63a.44.44,0,0,1-.13.32.41.41,0,0,1-.31.12h-1.67a.43.43,0,0,1-.31-.12.44.44,0,0,1-.12-.32V312h.54v5.64h1.45V312h.55Z" style="fill: #f2f2f2"/>
      <path d="M149.76,312.43h-.95v5.64h-.54v-5.64h-1V312h2.44Z" style="fill: #f2f2f2"/>
    </g>
    <g>
      <path d="M54.68,252.63a.41.41,0,0,1-.13.32.43.43,0,0,1-.31.12H52.66a.41.41,0,0,1-.31-.12.44.44,0,0,1-.12-.32v-5.24a.41.41,0,0,1,.12-.31.38.38,0,0,1,.31-.12h1.58a.39.39,0,0,1,.31.12.39.39,0,0,1,.13.31v1.42h-.55v-1.37H52.77v5.15h1.36v-1.51h.55Z"/>
      <path d="M58,247l-1,6.12h-.52L55.38,247h.54l.76,4.86,0,.4c0-.09,0-.22,0-.4l.76-4.86Z"/>
    </g>
    <g>
      <path d="M86.3,243.41H83.79v-7.64h2.48v.6H84.46v2.85h1.65v.61H84.46v3H86.3Z"/>
      <path d="M90.5,243.41H90l-2-5.62v5.62h-.64v-7.64h.5l2,5.52v-5.52h.63Z"/>
      <path d="M94.71,235.77l-1.32,7.66h-.64l-1.33-7.66h.68l.94,6.08,0,.5c0-.11,0-.28,0-.5l.94-6.08Z"/>
      <path d="M96.22,243.41h-.74v-.86h.74Z"/>
      <path d="M102.27,239.83a.53.53,0,0,1-.15.39.51.51,0,0,1-.39.16H99.92v3h-.67v-7.64h2.48a.54.54,0,0,1,.39.15.53.53,0,0,1,.15.39Zm-.68-.06v-3.4H99.92v3.4Z"/>
      <path d="M104.06,243.41h-.67v-7.64h.67Z"/>
      <path d="M108,236.37h-1.18v7h-.68v-7h-1.19v-.6h3Z"/>
      <path d="M111.83,242.87a.5.5,0,0,1-.16.39.53.53,0,0,1-.39.15h-2a.51.51,0,0,1-.54-.54v-6.56a.51.51,0,0,1,.54-.54h2a.53.53,0,0,1,.39.15.5.5,0,0,1,.16.39v1.78h-.69v-1.72h-1.69v6.44h1.69v-1.88h.69Z"/>
      <path d="M116.21,243.41h-.68v-3.67h-1.84v3.67H113v-7.64h.68v3.36h1.84v-3.36h.68Z"/>
    </g>
    <rect x="5" y="245" width="30" height="10" style="fill: #ededed"/>
    <g>
      <path d="M17,253.07h-2V247h.54v5.63H17Z"/>
      <path d="M18.33,253.07h-.55V247h.55Z"/>
      <path d="M21.87,253.07h-.38l-1.63-4.5v4.5h-.51V247h.4l1.6,4.41V247h.52Z"/>
      <path d="M25.39,253.07h-.6l-1.41-2.94v2.94h-.54V247h.54v2.74L24.67,247h.59v0l-1.39,2.91Z"/>
    </g>
    <g>
      <path d="M54.68,57.29a.42.42,0,0,1-.13.32.43.43,0,0,1-.31.12H52.66a.41.41,0,0,1-.31-.12.45.45,0,0,1-.12-.32V52.05a.45.45,0,0,1,.12-.32.41.41,0,0,1,.31-.12h1.58a.43.43,0,0,1,.31.12.42.42,0,0,1,.13.32v1.42h-.55V52.09H52.77v5.16h1.36V55.74h.55Z"/>
      <path d="M58,51.61l-1,6.13h-.52l-1.06-6.13h.54l.76,4.87,0,.4c0-.09,0-.22,0-.4l.76-4.87Z"/>
    </g>
    <g>
      <path d="M88.15,40.77l-1,7.66h-.55l-.83-5.76c0-.1,0-.25,0-.45,0,.1,0,.25,0,.45l-.83,5.76h-.55l-1-7.66h.67l.65,5.51c0,.12,0,.31,0,.55,0-.13,0-.31,0-.55l.79-5.51H86l.79,5.51c0,.12,0,.31,0,.55,0-.13,0-.31,0-.55l.65-5.51Z"/>
      <path d="M92.14,48.41h-.68l-.26-1.7H89.68l-.27,1.7h-.66v0l1.37-7.64h.67Zm-1-2.3L90.44,42l-.67,4.14Z"/>
      <path d="M96,40.77l-1.32,7.66h-.64l-1.33-7.66h.68l.95,6.08,0,.5c0-.11,0-.28,0-.5l1-6.08Z"/>
      <path d="M99.47,48.41H97V40.77h2.48v.6h-1.8v2.85h1.64v.61H97.64v3h1.83Z"/>
      <path d="M103,41.37h-1.78v2.9h1.64v.61h-1.64v3.53h-.68V40.77H103Z"/>
      <path d="M107.15,47.87a.51.51,0,0,1-.54.54h-2.14a.51.51,0,0,1-.54-.54V41.31a.51.51,0,0,1,.54-.54h2.14a.51.51,0,0,1,.54.54Zm-.68-.06V41.37H104.6v6.44Z"/>
      <path d="M111.63,48.41h-.72l-1.42-4.09.09-.14h1.22V41.37h-1.75v7h-.68V40.77h2.56a.51.51,0,0,1,.54.54v2.9c0,.37-.24.55-.74.55h-.42Z"/>
      <path d="M116.42,48.41h-.64V43.57a5.56,5.56,0,0,1,.07-.6l-1.25,4.72h-.14L113.21,43a5.56,5.56,0,0,1,.07.6v4.84h-.64V40.77h.63l1.24,5a1.59,1.59,0,0,1,0,.22c0-.05,0-.12,0-.22l1.24-5h.63Z"/>
    </g>
    <rect x="80" y="170" width="40" height="10" style="fill: #fffffd"/>
    <g>
      <path d="M86.63,170.77l-1,7.66H85l-.83-5.76c0-.1,0-.25,0-.45a4.23,4.23,0,0,1,0,.45l-.83,5.76h-.55l-1-7.66h.67l.65,5.51c0,.12,0,.31,0,.55,0-.13,0-.31,0-.55l.79-5.51h.59l.78,5.51c0,.12,0,.31,0,.55,0-.13,0-.31,0-.55l.64-5.51Z"/>
      <path d="M90.62,178.41H90l-.27-1.7H88.16l-.27,1.7h-.65v0l1.36-7.64h.67Zm-1-2.3L88.92,172l-.67,4.14Z"/>
      <path d="M94.52,170.77l-1.32,7.66h-.64l-1.32-7.66h.67l1,6.08,0,.5c0-.12,0-.28,0-.5l1-6.08Z"/>
      <path d="M98,178.41H95.44v-7.64h2.48v.6h-1.8v2.85h1.64v.61H96.12v3H98Z"/>
      <path d="M104,174.83a.5.5,0,0,1-.16.39.53.53,0,0,1-.39.16h-1.8v3H101v-7.64h2.48a.53.53,0,0,1,.39.15.5.5,0,0,1,.16.39Zm-.68-.06v-3.4h-1.67v3.4Z"/>
      <path d="M105.79,178.41h-.68v-7.64h.68Z"/>
      <path d="M109.7,171.37h-1.19v7h-.68v-7h-1.19v-.6h3.06Z"/>
      <path d="M113.55,177.87a.53.53,0,0,1-.15.39.57.57,0,0,1-.4.15h-2a.51.51,0,0,1-.54-.54v-6.56a.51.51,0,0,1,.54-.54h2a.57.57,0,0,1,.4.15.53.53,0,0,1,.15.39v1.78h-.68v-1.72h-1.7v6.44h1.7v-1.88h.68Z"/>
      <path d="M117.94,178.41h-.68v-3.67h-1.84v3.67h-.68v-7.64h.68v3.36h1.84v-3.36h.68Z"/>
    </g>
    <rect x="5" y="115" width="30" height="10" style="fill: #ededed"/>
    <g>
      <path d="M11.71,123.07h-.55V117h.55Z"/>
      <path d="M15.25,123.07h-.38l-1.63-4.5v4.5h-.51V117h.4l1.6,4.42V117h.52Z"/>
      <path d="M18.33,117.44h-.95v5.63h-.54v-5.63h-.95V117h2.44Z"/>
      <path d="M21,123.07H19V117h2v.49H19.51v2.28h1.31v.48H19.51v2.39H21Z"/>
      <path d="M24.42,123.07h-.57l-1.14-3.28.08-.1h1v-2.25h-1.4v5.63h-.54V117h2.05a.4.4,0,0,1,.31.13.41.41,0,0,1,.12.31v2.32c0,.29-.2.44-.59.44h-.34Z"/>
      <path d="M27.66,120.2a.41.41,0,0,1-.13.32.41.41,0,0,1-.31.12H25.78v2.43h-.55V117h2a.44.44,0,0,1,.44.44Zm-.55,0v-2.72H25.78v2.72Z"/>
      <path d="M29,123.07h-.6v-.69H29Z"/>
    </g>
    <g>
      <path d="M11.71,58.07h-.55V52h.55Z"/>
      <path d="M15.25,58.07h-.38l-1.63-4.5v4.5h-.51V52h.4l1.6,4.42V52h.52Z"/>
      <path d="M18.33,52.44h-.95v5.63h-.54V52.44h-.95V52h2.44Z"/>
      <path d="M21,58.07H19V52h2v.49H19.51v2.28h1.31v.48H19.51v2.39H21Z"/>
      <path d="M24.42,58.07h-.57l-1.14-3.28.08-.1h1V52.44h-1.4v5.63h-.54V52h2.05a.4.4,0,0,1,.31.13.41.41,0,0,1,.12.31v2.32c0,.29-.2.44-.59.44h-.34Z"/>
      <path d="M27.66,55.2a.41.41,0,0,1-.13.32.41.41,0,0,1-.31.12H25.78v2.43h-.55V52h2a.44.44,0,0,1,.44.44Zm-.55,0V52.44H25.78v2.72Z"/>
      <path d="M29,58.07h-.6v-.69H29Z"/>
    </g>
    <rect x="5" y="180" width="30" height="10" style="fill: #fffffd"/>
    <g>
      <path d="M17,188.07h-2V182h.54v5.64H17Z"/>
      <path d="M18.33,188.07h-.55V182h.55Z"/>
      <path d="M21.87,188.07h-.38l-1.63-4.5v4.5h-.51V182h.4l1.6,4.42V182h.52Z"/>
      <path d="M25.39,188.07h-.6l-1.41-2.94v2.94h-.54V182h.54v2.75L24.67,182h.59v0l-1.39,2.91Z"/>
    </g>
    <rect x="5" y="310" width="30" height="10" style="fill: #fffffd"/>
    <g>
      <path d="M13.17,312l-1.06,6.13H11.6L10.54,312h.54l.76,4.87,0,.4a3.94,3.94,0,0,1,0-.4l.76-4.87Z"/>
      <path d="M18.26,312l-2.58,6.08h-.52v0L17.74,312h.52Z"/>
      <path d="M23.08,317.63A.41.41,0,0,1,23,318a.41.41,0,0,1-.31.12H20.93a.41.41,0,0,1-.31-.12.41.41,0,0,1-.13-.32v-5.24a.44.44,0,0,1,.44-.44h1.71a.44.44,0,0,1,.44.44Zm-.55,0v-5.16H21v5.16Z"/>
      <path d="M26.5,317.63a.44.44,0,0,1-.12.32.45.45,0,0,1-.32.12H24.49a.41.41,0,0,1-.44-.44v-5.24a.41.41,0,0,1,.12-.31.41.41,0,0,1,.32-.13h1.57a.42.42,0,0,1,.32.13.41.41,0,0,1,.12.31v1.42H26v-1.38H24.6v5.16H26v-1.51h.54Z"/>
      <path d="M29.56,312.43h-.95v5.64h-.54v-5.64h-.95V312h2.44Z"/>
    </g>
    <g>
      <path d="M86.83,113.41H84.32v-7.64H86.8v.6H85v2.85h1.64v.61H85v3h1.83Z"/>
      <path d="M91,113.41h-.47l-2-5.62v5.62h-.64v-7.64h.51l2,5.52v-5.52H91Z"/>
      <path d="M95.25,105.77l-1.33,7.66h-.64L92,105.77h.67l1,6.08,0,.5c0-.11,0-.28,0-.5l1-6.08Z"/>
      <path d="M96.75,113.41H96v-.86h.74Z"/>
      <path d="M102.24,106.37h-1.78v2.9h1.64v.61h-1.64v3.53h-.68v-7.64h2.46Z"/>
      <path d="M106.41,112.87a.5.5,0,0,1-.16.39.53.53,0,0,1-.39.15h-2.14a.51.51,0,0,1-.54-.54v-6.56a.51.51,0,0,1,.54-.54h2.14a.53.53,0,0,1,.39.15.5.5,0,0,1,.16.39Zm-.68-.06v-6.44h-1.87v6.44Z"/>
      <path d="M110.88,113.41h-.71l-1.42-4.09.09-.14h1.21v-2.81h-1.74v7h-.68v-7.64h2.56a.51.51,0,0,1,.54.54v2.9c0,.37-.25.55-.74.55h-.42C110,111,110.44,112.19,110.88,113.41Z"/>
      <path d="M115.68,113.41H115v-4.84q0-.1.06-.6l-1.25,4.72h-.13L112.47,108c0,.33.07.53.07.6v4.84h-.64v-7.64h.63l1.24,5s0,.1,0,.22a1,1,0,0,1,0-.22l1.24-5h.63Z"/>
    </g>
    <path d="M46.47,15.42V23.1h-2V8.88h2v.61l.09,0a2.68,2.68,0,0,1,2-.79,3.49,3.49,0,0,1,3.37,3.65A3.54,3.54,0,0,1,48.42,16,3,3,0,0,1,46.47,15.42Zm0-4.28V14a4,4,0,0,0,1.7.33,1.85,1.85,0,0,0,1.75-2,1.85,1.85,0,0,0-1.75-2A2,2,0,0,0,46.47,11.14Z"/>
    <path d="M69.28,14a6.09,6.09,0,0,0,1.92.36c.58,0,1-.17,1-.57s-.2-.55-1.1-.73C69.81,12.73,69,12.07,69,11c0-1.47,1.31-2.22,2.77-2.22A6,6,0,0,1,74,9.21l-.29,1.57a5.67,5.67,0,0,0-1.84-.36c-.48,0-.9.18-.9.53s.16.52,1.1.7c1.37.28,2.21.84,2.21,2,0,1.58-1.41,2.31-2.93,2.31A6.64,6.64,0,0,1,69,15.53Z"/>
    <path d="M83.4,12.13V13h-5c.14,1,.75,1.38,2.07,1.4A4.93,4.93,0,0,0,82.56,14l.35,1.47a5.09,5.09,0,0,1-2.41.6c-2.52,0-4.12-1.37-4.12-3.63A3.53,3.53,0,0,1,80,8.73,3.18,3.18,0,0,1,83.4,12.13Zm-4.92-.48h2.89A1.23,1.23,0,0,0,80,10.39,1.45,1.45,0,0,0,78.48,11.65Z"/>
    <path d="M90.53,14.37a4.82,4.82,0,0,0,2-.33l.39,1.59a6.22,6.22,0,0,1-2.37.39,5,5,0,0,1-5.1-5,5,5,0,0,1,5.1-5.05,5.86,5.86,0,0,1,2.37.41l-.39,1.57a5.83,5.83,0,0,0-2-.32A3.22,3.22,0,0,0,87.45,11,3.16,3.16,0,0,0,90.53,14.37Z"/>
    <path d="M93.62,6.07h7V7.22l-4.59,7h4.73v1.65H93.48V14.73l4.57-7H93.62Z"/>
    <path d="M107.67,13.71h-3.49l-.74,2.17h-2.13L105,6.07h2l3.64,9.81h-2.13Zm-2.94-1.6h2.39l-.92-2.73-.24-1h-.09l-.21,1Z"/>
    <path d="M111.7,6.07H115c2.46,0,3.84,1.39,3.84,3a2.83,2.83,0,0,1-1.75,2.62l2.32,4.16h-2.23l-2-3.75h-1.38v3.75h-2Zm2,1.66v2.74H115c1.23,0,1.82-.47,1.82-1.37s-.59-1.37-1.82-1.37Z"/>
    <g>
      <path d="M49.7,20.44a.37.37,0,0,1-.11.27.38.38,0,0,1-.29.11H48V23h-.5V17.6H49.3a.41.41,0,0,1,.29.1.38.38,0,0,1,.11.28Zm-.49,0V18H48V20.4Z"/>
      <path d="M52.79,22.57a.37.37,0,0,1-.11.27.42.42,0,0,1-.29.11H50.88a.42.42,0,0,1-.29-.11.37.37,0,0,1-.11-.27v-5H51v4.92H52.3V17.6h.49Z"/>
      <path d="M55.46,23H53.68V17.6h.49v4.92h1.29Z"/>
      <path d="M58.31,22.57a.37.37,0,0,1-.11.27.42.42,0,0,1-.29.11h-1.4a.39.39,0,0,1-.28-.11.34.34,0,0,1-.12-.27V21.21h.5v1.31h1.2V21.25l-1.54-1.78a.66.66,0,0,1-.16-.41V18a.35.35,0,0,1,.12-.28.39.39,0,0,1,.28-.1h1.4a.41.41,0,0,1,.29.1.38.38,0,0,1,.11.28v1.24h-.5V18h-1.2v1.12l1.54,1.79a.61.61,0,0,1,.16.4Z"/>
      <path d="M61.43,23h-.5l-.19-1.19H59.63L59.44,23H59v0l1-5.35h.49Zm-.76-1.61-.48-2.9-.49,2.9Z"/>
      <path d="M64.46,23h-.52l-1-2.87L63,20h.88V18H62.59V23h-.5V17.6H64a.39.39,0,0,1,.28.1.34.34,0,0,1,.11.28v2c0,.25-.18.38-.54.38h-.3C63.83,21.23,64.15,22.09,64.46,23Z"/>
      <path d="M68.8,22.57a.37.37,0,0,1-.11.27.39.39,0,0,1-.28.11H67a.4.4,0,0,1-.29-.11.37.37,0,0,1-.11-.27V21.21h.49v1.31h1.2V21.25l-1.53-1.78a.61.61,0,0,1-.16-.41V18a.38.38,0,0,1,.11-.28.39.39,0,0,1,.29-.1h1.4a.39.39,0,0,1,.28.1.38.38,0,0,1,.11.28v1.24h-.5V18H67.1v1.12l1.55,1.79a.6.6,0,0,1,.15.4Z"/>
      <path d="M71.91,17.63l-.67,2.16c-.09.22-.2.58-.34,1.08V23h-.5V20.87a3.16,3.16,0,0,0-.15-.54l-.18-.54-.68-2.16v0h.5l.77,2.67.75-2.67h.5Z"/>
      <path d="M74.81,23h-.34L73,19V23h-.46V17.6h.37l1.46,3.86V17.6h.46Z"/>
      <path d="M77.62,18h-.86V23h-.5V18h-.87V17.6h2.23Z"/>
      <path d="M80.53,23H80V20.38H78.69V23H78.2V17.6h.49V20H80V17.6h.5Z"/>
      <path d="M83.25,23H81.42V17.6h1.8V18H81.91v2h1.2v.43h-1.2v2.08h1.34Z"/>
      <path d="M86.19,22.57a.37.37,0,0,1-.11.27.39.39,0,0,1-.28.11H84.4a.4.4,0,0,1-.29-.11.33.33,0,0,1-.11-.27V21.21h.49v1.31h1.2V21.25l-1.53-1.78a.61.61,0,0,1-.16-.41V18a.34.34,0,0,1,.11-.28.39.39,0,0,1,.29-.1h1.4a.39.39,0,0,1,.28.1.38.38,0,0,1,.11.28v1.24h-.5V18h-1.2v1.12L86,20.93a.6.6,0,0,1,.15.4Z"/>
      <path d="M87.59,23h-.5V17.6h.5Z"/>
      <path d="M90.68,22.57a.36.36,0,0,1-.1.27.42.42,0,0,1-.29.11h-1.4a.42.42,0,0,1-.29-.11.37.37,0,0,1-.11-.27V21.21H89v1.31h1.2V21.25l-1.54-1.78a.66.66,0,0,1-.16-.41V18a.38.38,0,0,1,.11-.28.41.41,0,0,1,.29-.1h1.4a.41.41,0,0,1,.29.1.37.37,0,0,1,.1.28v1.24h-.49V18H89v1.12l1.54,1.79a.6.6,0,0,1,.15.4Z"/>
      <path d="M95.34,22.57a.37.37,0,0,1-.11.27.42.42,0,0,1-.29.11H93.38a.39.39,0,0,1-.28-.11.33.33,0,0,1-.11-.27V18a.34.34,0,0,1,.11-.28.39.39,0,0,1,.28-.1h1.56a.41.41,0,0,1,.29.1.38.38,0,0,1,.11.28Zm-.5-.05V18H93.48v4.5Z"/>
      <path d="M98.4,22.57a.37.37,0,0,1-.11.27A.39.39,0,0,1,98,23H96.6a.39.39,0,0,1-.28-.11.34.34,0,0,1-.12-.27V21.21h.5v1.31h1.2V21.25l-1.54-1.78a.66.66,0,0,1-.16-.41V18a.35.35,0,0,1,.12-.28.39.39,0,0,1,.28-.1H98a.39.39,0,0,1,.28.1.38.38,0,0,1,.11.28v1.24h-.5V18H96.7v1.12l1.54,1.79a.57.57,0,0,1,.16.4Z"/>
      <path d="M101.5,22.57a.37.37,0,0,1-.11.27.42.42,0,0,1-.29.11H99.67a.42.42,0,0,1-.29-.11.37.37,0,0,1-.11-.27V18a.38.38,0,0,1,.11-.28.41.41,0,0,1,.29-.1h1.43a.41.41,0,0,1,.29.1.38.38,0,0,1,.11.28v1.24H101V18H99.77v4.5H101V21.21h.5Z"/>
      <path d="M102.89,23h-.5V17.6h.5Z"/>
      <path d="M105.6,23h-1.78V17.6h.49v4.92h1.29Z"/>
      <path d="M108.05,23h-1.78V17.6h.5v4.92h1.28Z"/>
      <path d="M111,23h-.49l-.19-1.19h-1.11L109,23h-.47v0l1-5.35H110Zm-.75-1.61-.49-2.9-.49,2.9Z"/>
      <path d="M113.56,18h-.86V23h-.5V18h-.87V17.6h2.23Z"/>
      <path d="M116.49,22.57a.37.37,0,0,1-.11.27.42.42,0,0,1-.29.11h-1.56a.39.39,0,0,1-.28-.11.33.33,0,0,1-.11-.27V18a.34.34,0,0,1,.11-.28.39.39,0,0,1,.28-.1h1.56a.41.41,0,0,1,.29.1.38.38,0,0,1,.11.28Zm-.49-.05V18h-1.37v4.5Z"/>
      <path d="M119.75,23h-.52l-1-2.87.07-.09h.88V18h-1.27V23h-.49V17.6h1.86a.41.41,0,0,1,.29.1.38.38,0,0,1,.11.28v2c0,.25-.18.38-.54.38h-.31Z"/>
    </g>
    <g>
      <path d="M36.32,372.73h-.51v-3.87c0-.06,0-.22,0-.48l-1,3.77h-.11l-1-3.77a4.72,4.72,0,0,1,.06.48v3.87H33.3v-6.12h.5l1,4a1.11,1.11,0,0,1,0,.18,1.36,1.36,0,0,1,0-.18l1-4h.5Z"/>
      <path d="M39.76,372.73h-.54L39,371.37H37.79l-.21,1.36h-.52v0l1.09-6.11h.53Zm-.82-1.84-.54-3.32-.54,3.32Z"/>
      <path d="M43,371.62a1.09,1.09,0,0,1-.32.8,1.13,1.13,0,0,1-.8.31H40.5v-6.12h1.4a1.13,1.13,0,0,1,.8.31,1.09,1.09,0,0,1,.32.8Zm-.55-.05v-3.8a.64.64,0,0,0-.19-.49.68.68,0,0,0-.49-.19H41v5.16h.72a.73.73,0,0,0,.52-.19A.63.63,0,0,0,42.47,371.57Z"/>
      <path d="M46,372.73H44v-6.12h2v.48H44.51v2.29h1.31v.48H44.51v2.39H46Z"/>
      <path d="M49,372.73h-.55v-6.12H49Z"/>
      <path d="M52.5,372.73h-.37l-1.63-4.5v4.5H50v-6.12h.41L52,371v-4.42h.51Z"/>
      <path d="M57.5,372.29a.42.42,0,0,1-.13.32.43.43,0,0,1-.31.12H55.48a.41.41,0,0,1-.31-.12.45.45,0,0,1-.12-.32v-5.24a.45.45,0,0,1,.12-.32.41.41,0,0,1,.31-.12h1.58a.43.43,0,0,1,.31.12.42.42,0,0,1,.13.32v1.42H57v-1.38H55.59v5.16H57v-1.51h.55Z"/>
      <path d="M60.91,372.73h-.54l-.21-1.36H58.94l-.21,1.36H58.2v0l1.09-6.11h.54Zm-.82-1.84-.54-3.32L59,370.89Z"/>
      <path d="M63.6,372.73h-2v-6.12h.54v5.64H63.6Z"/>
      <path d="M64.91,372.73h-.54v-6.12h.54Z"/>
      <path d="M67.9,367.09H66.48v2.32h1.31v.49H66.48v2.83h-.55v-6.12h2Z"/>
      <path d="M71.23,372.29a.45.45,0,0,1-.12.32.43.43,0,0,1-.31.12H69.09a.44.44,0,0,1-.32-.12.45.45,0,0,1-.12-.32v-5.24a.45.45,0,0,1,.12-.32.44.44,0,0,1,.32-.12H70.8a.43.43,0,0,1,.31.12.45.45,0,0,1,.12.32Zm-.54,0v-5.16H69.2v5.16Z"/>
      <path d="M74.81,372.73h-.57l-1.13-3.28.07-.11h1v-2.25h-1.4v5.64h-.54v-6.12h2.05a.41.41,0,0,1,.31.12.45.45,0,0,1,.12.32v2.32c0,.29-.2.44-.59.44h-.34Z"/>
      <path d="M78.15,372.73h-.38l-1.63-4.5v4.5h-.51v-6.12H76l1.6,4.42v-4.42h.52Z"/>
      <path d="M79.7,372.73h-.55v-6.12h.55Z"/>
      <path d="M83.18,372.73h-.54l-.21-1.36H81.21L81,372.73h-.53v0l1.09-6.11h.54Zm-.82-1.84-.54-3.32-.54,3.32Z"/>
      <path d="M87.93,372.29a.45.45,0,0,1-.12.32.43.43,0,0,1-.31.12h-2v-6.12h2a.41.41,0,0,1,.31.12.45.45,0,0,1,.12.32v1.81a.51.51,0,0,1-.21.41l-.43.26.46.29a.45.45,0,0,1,.2.39Zm-.56-3.36v-1.84H86v2.21h.8Zm0,3.32v-2.12l-.55-.36H86v2.48Z"/>
      <path d="M91.34,366.65l-.75,2.47c-.09.25-.21.66-.37,1.24v2.37h-.54v-2.37a4.25,4.25,0,0,0-.17-.63l-.2-.61-.74-2.47v0h.55l.84,3.06.83-3.06h.55Z"/>
      <path d="M96.59,372.73h-.51v-3.87c0-.06,0-.22,0-.48l-1,3.77H95l-1-3.77a4.72,4.72,0,0,1,.06.48v3.87h-.51v-6.12h.5l1,4a1.11,1.11,0,0,1,0,.18,1.36,1.36,0,0,1,0-.18l1-4h.5Z"/>
      <path d="M100.15,372.29a.41.41,0,0,1-.44.44H98a.41.41,0,0,1-.31-.12.45.45,0,0,1-.12-.32v-5.24a.45.45,0,0,1,.12-.32.41.41,0,0,1,.31-.12h1.71a.41.41,0,0,1,.44.44Zm-.54,0v-5.16h-1.5v5.16Z"/>
      <path d="M103.51,372.29a.45.45,0,0,1-.12.32.41.41,0,0,1-.31.12h-1.54a.41.41,0,0,1-.31-.12.42.42,0,0,1-.13-.32v-1.55h.55v1.51H103v-1.46l-1.69-2a.7.7,0,0,1-.18-.46v-1.24a.42.42,0,0,1,.13-.32.41.41,0,0,1,.31-.12h1.54a.41.41,0,0,1,.31.12.45.45,0,0,1,.12.32v1.42H103v-1.38h-1.32v1.29l1.69,2a.73.73,0,0,1,.17.46Z"/>
      <path d="M107.47,372.73h0l-.4-.32a.37.37,0,0,1-.4.32H104.9a.43.43,0,0,1-.31-.12.45.45,0,0,1-.12-.32v-5.24a.45.45,0,0,1,.12-.32.43.43,0,0,1,.31-.12h1.72a.41.41,0,0,1,.31.12.45.45,0,0,1,.12.32v4.81l.42.34Zm-1-.48V372l-.65-.54v-.54h0l.6.5v-4.34H105v5.16Z"/>
      <path d="M110.61,372.29a.46.46,0,0,1-.13.32.41.41,0,0,1-.31.12H108.5a.43.43,0,0,1-.31-.12.45.45,0,0,1-.12-.32v-5.68h.54v5.64h1.45v-5.64h.55Z"/>
      <path d="M112.16,372.73h-.55v-6.12h.55Z"/>
      <path d="M115.28,367.09h-.94v5.64h-.55v-5.64h-1v-.48h2.44Z"/>
      <path d="M118.5,372.29a.45.45,0,0,1-.12.32.44.44,0,0,1-.32.12h-1.71a.41.41,0,0,1-.31-.12.45.45,0,0,1-.12-.32v-5.24a.45.45,0,0,1,.12-.32.41.41,0,0,1,.31-.12h1.71a.44.44,0,0,1,.32.12.45.45,0,0,1,.12.32Zm-.54,0v-5.16h-1.5v5.16Z"/>
      <path d="M123,372.73h-2v-6.12h.55v5.64H123Z"/>
      <path d="M126.2,372.73h-.53l-.22-1.36h-1.21l-.22,1.36h-.52v0l1.09-6.11h.53Zm-.82-1.84-.54-3.32-.53,3.32Z"/>
      <path d="M129.39,372.29a.45.45,0,0,1-.12.32.44.44,0,0,1-.32.12h-2v-6.12h2a.41.41,0,0,1,.31.12.45.45,0,0,1,.12.32v1.81a.49.49,0,0,1-.22.41l-.43.26.46.29a.44.44,0,0,1,.21.39Zm-.56-3.36v-1.84h-1.35v2.21h.8Zm0,3.32v-2.12l-.55-.36h-.81v2.48Z"/>
      <path d="M132.72,372.29a.45.45,0,0,1-.12.32.41.41,0,0,1-.31.12h-1.54a.41.41,0,0,1-.31-.12.42.42,0,0,1-.13-.32v-1.55h.55v1.51h1.32v-1.46l-1.69-2a.7.7,0,0,1-.18-.46v-1.24a.42.42,0,0,1,.13-.32.41.41,0,0,1,.31-.12h1.54a.41.41,0,0,1,.31.12.45.45,0,0,1,.12.32v1.42h-.54v-1.38h-1.32v1.29l1.69,2a.73.73,0,0,1,.17.46Z"/>
    </g>
    <g>
      <path d="M54.68,187.63a.41.41,0,0,1-.13.32.43.43,0,0,1-.31.12H52.66a.41.41,0,0,1-.31-.12.44.44,0,0,1-.12-.32v-5.24a.41.41,0,0,1,.12-.31.39.39,0,0,1,.31-.13h1.58a.4.4,0,0,1,.31.13.39.39,0,0,1,.13.31v1.42h-.55v-1.37H52.77v5.15h1.36v-1.51h.55Z"/>
      <path d="M58,182l-1,6.13h-.52L55.38,182h.54l.76,4.87,0,.4c0-.09,0-.22,0-.4l.76-4.87Z"/>
    </g>
    <g>
      <path d="M54.68,122.63a.41.41,0,0,1-.13.32.43.43,0,0,1-.31.12H52.66a.41.41,0,0,1-.31-.12.44.44,0,0,1-.12-.32v-5.24a.41.41,0,0,1,.12-.31.39.39,0,0,1,.31-.13h1.58a.4.4,0,0,1,.31.13.39.39,0,0,1,.13.31v1.42h-.55v-1.37H52.77v5.15h1.36v-1.51h.55Z"/>
      <path d="M58,117l-1,6.13h-.52L55.38,117h.54l.76,4.87,0,.4c0-.09,0-.22,0-.4l.76-4.87Z"/>
    </g>
    <g>
      <path d="M142.1,252.63a.44.44,0,0,1-.13.32.41.41,0,0,1-.31.12h-1.6a.41.41,0,0,1-.44-.44v-5.24a.41.41,0,0,1,.12-.31.4.4,0,0,1,.32-.12h1.6a.38.38,0,0,1,.31.12.42.42,0,0,1,.13.31v1.42h-.55v-1.37h-1.38v5.15h1.38v-2.12h-.65V250h1.2Z"/>
      <path d="M145.53,253.07H145l-.21-1.36h-1.22l-.21,1.36h-.53v0l1.09-6.11h.54Zm-.82-1.84-.54-3.31-.54,3.31Z"/>
      <path d="M146.84,253.07h-.55V247h.55Z"/>
      <path d="M150.38,253.07H150l-1.63-4.5v4.5h-.51V247h.4l1.61,4.41V247h.51Z"/>
    </g>
    <path d="M60.58,12.6a3.5,3.5,0,0,1-7,0V8.79h2V12.6c0,1.14.63,1.68,1.49,1.68s1.48-.54,1.48-1.68V8.79h2Z"/>
    <path d="M66.14,15.94c-2,0-2.88-.86-2.88-2.53V5.58h2v7.61c0,.64.37.94,1,1Z"/>
  </g>
</svg>
