<svg xmlns="http://www.w3.org/2000/svg" width="165" height="380" viewBox="0 0 165 380">
  <title>pulse</title>
  <g id="Layer_3" data-name="Layer 3">
    <rect width="165" height="380" style="fill: #fffffd"/>
  </g>
  <g id="SHADING">
    <rect y="230" width="165" height="65" style="fill: #ededed"/>
    <rect y="100" width="165" height="65" style="fill: #ededed"/>
  </g>
  <g id="Layer_4" data-name="Layer 4">
    <line x1="20" y1="270" x2="110" y2="270" style="fill: none;stroke: #000;stroke-miterlimit: 10;stroke-width: 0.9px"/>
    <line x1="20" y1="205.5" x2="110" y2="205.5" style="fill: none;stroke: #000;stroke-miterlimit: 10;stroke-width: 0.9px"/>
    <line x1="20" y1="205" x2="20" y2="344" style="fill: none;stroke: #000;stroke-miterlimit: 10;stroke-width: 0.9px"/>
    <line x1="54.5" y1="335" x2="99.5" y2="335" style="fill: none;stroke: #000;stroke-miterlimit: 10;stroke-width: 0.9px"/>
    <line x1="55.5" y1="75" x2="100.5" y2="75" style="fill: none;stroke: #000;stroke-miterlimit: 10;stroke-width: 0.9px"/>
    <line x1="55" y1="140" x2="100" y2="140" style="fill: none;stroke: #000;stroke-miterlimit: 10;stroke-width: 0.9px"/>
    <line x1="145" y1="270" x2="145" y2="335" style="fill: none;stroke: #000;stroke-miterlimit: 10;stroke-width: 0.9px"/>
  </g>
  <g id="Layer_10" data-name="Layer 10">
    <rect x="130" y="305" width="30" height="45" rx="5.04"/>
  </g>
  <g id="text">
    <rect x="40" y="245" width="30" height="10" style="fill: #ededed"/>
    <g>
      <path d="M54.6,317.53a.53.53,0,0,1-.16.39.53.53,0,0,1-.39.15h-2a.51.51,0,0,1-.54-.54V311a.51.51,0,0,1,.54-.54h2a.53.53,0,0,1,.39.15.53.53,0,0,1,.16.39v1.78h-.69V311h-1.7v6.44h1.7v-1.88h.69Z" transform="translate(0 0)"/>
      <path d="M58.77,310.43l-1.33,7.66H56.8l-1.32-7.66h.67l1,6.08,0,.5c0-.12,0-.28,0-.5l.94-6.08Z" transform="translate(0 0)"/>
    </g>
    <g>
      <path d="M79.49,307.76a.62.62,0,0,1-.65.65H76.53a.62.62,0,0,1-.65-.65v-2.33h.81v2.26h2V305.5l-2.53-3.06a1,1,0,0,1-.26-.69v-1.86a.62.62,0,0,1,.65-.65h2.31a.62.62,0,0,1,.65.65V302h-.82V300h-2v1.93L79.23,305a1,1,0,0,1,.26.69Z" transform="translate(0 0)"/>
      <path d="M84.09,300H82.67v8.45h-.82V300H80.42v-.72h3.67Z" transform="translate(0 0)"/>
      <path d="M88.91,307.76a.62.62,0,0,1-.65.65H85.69a.62.62,0,0,1-.65-.65v-7.87a.62.62,0,0,1,.65-.65h2.57a.62.62,0,0,1,.65.65Zm-.81-.07V300H85.86v7.73Z" transform="translate(0 0)"/>
      <path d="M94.05,307.76a.64.64,0,0,1-.18.47.68.68,0,0,1-.48.18H91a.62.62,0,0,1-.65-.65v-7.87a.62.62,0,0,1,.65-.65h2.36a.68.68,0,0,1,.48.18.64.64,0,0,1,.18.47V302h-.82V300h-2v7.73h2v-2.26h.82Z" transform="translate(0 0)"/>
      <path d="M99.31,308.41H98.5V304H96.29v4.41h-.81v-9.17h.81v4H98.5v-4h.81Z" transform="translate(0 0)"/>
      <path d="M101.49,308.41h-.89v-1h.89Z" transform="translate(0 0)"/>
      <path d="M109.66,308.41h-.77V302.6c0-.08,0-.32.08-.72l-1.5,5.67h-.16l-1.5-5.67c0,.4.08.64.08.72v5.81h-.77v-9.17h.76l1.49,6s0,.12,0,.27c0-.06,0-.15,0-.27l1.49-6h.76Z" transform="translate(0 0)"/>
      <path d="M114.82,308.41H114l-.32-2h-1.82l-.33,2h-.78v0l1.63-9.17h.81Zm-1.24-2.76-.8-5-.81,5Z" transform="translate(0 0)"/>
      <path d="M119.49,307.76a.68.68,0,0,1-.17.47.64.64,0,0,1-.47.18h-2.31a.64.64,0,0,1-.47-.18.65.65,0,0,1-.19-.47v-2.33h.82v2.26h2V305.5l-2.53-3.06a1,1,0,0,1-.27-.69v-1.86a.65.65,0,0,1,.19-.47.64.64,0,0,1,.47-.18h2.31a.64.64,0,0,1,.47.18.68.68,0,0,1,.17.47V302h-.81V300h-2v1.93l2.54,3.06a1,1,0,0,1,.25.69Z" transform="translate(0 0)"/>
      <path d="M124.76,308.41h-.89L121.75,304v4.41h-.81v-9.17h.81v4.12l1.92-4.12h.89v.05l-2.08,4.37Z" transform="translate(0 0)"/>
    </g>
    <g>
      <path d="M142.71,317.53a.55.55,0,0,1-.16.39.53.53,0,0,1-.39.15H140a.53.53,0,0,1-.39-.15.54.54,0,0,1-.15-.39V311a.51.51,0,0,1,.54-.54h2.14a.53.53,0,0,1,.39.15.53.53,0,0,1,.16.39Zm-.68-.06V311h-1.87v6.44Z" transform="translate(0 0)" style="fill: #f2f2f2"/>
      <path d="M147.09,317.53a.54.54,0,0,1-.15.39.53.53,0,0,1-.39.15h-2.08a.53.53,0,0,1-.39-.15.54.54,0,0,1-.15-.39v-7.1h.67v7h1.82v-7h.67Z" transform="translate(0 0)" style="fill: #f2f2f2"/>
      <path d="M151,311h-1.18v7h-.68v-7H147.9v-.6h3Z" transform="translate(0 0)" style="fill: #f2f2f2"/>
    </g>
    <g>
      <path d="M54.6,252.53a.53.53,0,0,1-.16.39.53.53,0,0,1-.39.15h-2a.51.51,0,0,1-.54-.54V246a.51.51,0,0,1,.54-.54h2a.53.53,0,0,1,.39.15.53.53,0,0,1,.16.39v1.78h-.69V246h-1.7v6.44h1.7v-1.88h.69Z" transform="translate(0 0)"/>
      <path d="M58.77,245.43l-1.33,7.66H56.8l-1.32-7.66h.67l1,6.08,0,.5c0-.12,0-.28,0-.5l.94-6.08Z" transform="translate(0 0)"/>
    </g>
    <g>
      <path d="M83.56,243.41h-3v-9.17h3V235H81.36v3.42h2v.74h-2v3.57h2.2Z" transform="translate(0 0)"/>
      <path d="M88.61,243.41H88l-2.45-6.74v6.74h-.76v-9.17h.61l2.4,6.63v-6.63h.77Z" transform="translate(0 0)"/>
      <path d="M93.65,234.24l-1.59,9.19H91.3l-1.59-9.19h.81l1.13,7.3,0,.6c0-.14,0-.34,0-.6l1.14-7.3Z" transform="translate(0 0)"/>
      <path d="M95.46,243.41h-.89v-1h.89Z" transform="translate(0 0)"/>
      <path d="M102.73,239.12a.63.63,0,0,1-.19.47.64.64,0,0,1-.47.18H99.91v3.64h-.82v-9.17h3a.64.64,0,0,1,.47.18.61.61,0,0,1,.19.47Zm-.82-.08V235h-2V239Z" transform="translate(0 0)"/>
      <path d="M104.88,243.41h-.82v-9.17h.82Z" transform="translate(0 0)"/>
      <path d="M109.57,235h-1.42v8.45h-.82V235H105.9v-.72h3.67Z" transform="translate(0 0)"/>
      <path d="M114.19,242.76a.64.64,0,0,1-.18.47.68.68,0,0,1-.48.18h-2.36a.62.62,0,0,1-.65-.65v-7.87a.62.62,0,0,1,.65-.65h2.36a.68.68,0,0,1,.48.18.64.64,0,0,1,.18.47V237h-.82V235h-2v7.73h2v-2.26h.82Z" transform="translate(0 0)"/>
      <path d="M119.46,243.41h-.82V239h-2.21v4.41h-.81v-9.17h.81v4h2.21v-4h.82Z" transform="translate(0 0)"/>
    </g>
    <rect x="5" y="243" width="30" height="12" style="fill: #ededed"/>
    <g>
      <path d="M16.26,253.07H13.82v-7.64h.68v7h1.76Z" transform="translate(0 0)"/>
      <path d="M17.91,253.07h-.68v-7.64h.68Z" transform="translate(0 0)"/>
      <path d="M22.33,253.07h-.47l-2-5.62v5.62h-.64v-7.64h.51l2,5.52v-5.52h.64Z" transform="translate(0 0)"/>
      <path d="M26.74,253.07H26l-1.76-3.67v3.67h-.68v-7.64h.68v3.43l1.6-3.43h.74v0l-1.73,3.64Z" transform="translate(0 0)"/>
    </g>
    <g>
      <path d="M54.6,57.19a.55.55,0,0,1-.16.39.53.53,0,0,1-.39.15h-2a.53.53,0,0,1-.39-.15.54.54,0,0,1-.15-.39V50.63a.51.51,0,0,1,.54-.54h2a.53.53,0,0,1,.39.15.53.53,0,0,1,.16.39V52.4h-.69V50.69h-1.7v6.44h1.7V55.25h.69Z" transform="translate(0 0)"/>
      <path d="M58.77,50.09l-1.33,7.66H56.8l-1.32-7.66h.67l1,6.08,0,.5c0-.12,0-.28,0-.5l.94-6.08Z" transform="translate(0 0)"/>
    </g>
    <g>
      <path d="M85.78,39.24l-1.25,9.19h-.66l-1-6.91c0-.12,0-.3,0-.54,0,.12,0,.3,0,.54l-1,6.91h-.66l-1.25-9.19h.81l.78,6.61c0,.15,0,.37,0,.66,0-.15,0-.37,0-.66l1-6.61h.7l.94,6.61q0,.23,0,.66,0-.23,0-.66L85,39.24Z" transform="translate(0 0)"/>
      <path d="M90.57,48.41h-.81l-.32-2H87.61l-.32,2h-.78v0l1.63-9.17h.8Zm-1.24-2.76-.8-5-.81,5Z" transform="translate(0 0)"/>
      <path d="M95.25,39.24l-1.59,9.19h-.77L91.3,39.24h.81l1.14,7.3,0,.6a5.37,5.37,0,0,1,0-.6l1.13-7.3Z" transform="translate(0 0)"/>
      <path d="M99.36,48.41h-3V39.24h3V40H97.16v3.42h2v.73h-2v3.58h2.2Z" transform="translate(0 0)"/>
      <path d="M103.59,40h-2.14v3.48h2v.73h-2v4.24h-.82V39.24h3Z" transform="translate(0 0)"/>
      <path d="M108.58,47.76a.62.62,0,0,1-.65.65h-2.57a.62.62,0,0,1-.65-.65V39.89a.62.62,0,0,1,.65-.65h2.57a.62.62,0,0,1,.65.65Zm-.81-.07V40h-2.24v7.73Z" transform="translate(0 0)"/>
      <path d="M114,48.41h-.85l-1.71-4.91.11-.17H113V40h-2.1v8.45h-.81V39.24h3.07a.62.62,0,0,1,.65.65v3.48c0,.44-.3.66-.89.66h-.5C112.9,45.48,113.43,46.94,114,48.41Z" transform="translate(0 0)"/>
      <path d="M119.71,48.41h-.77V42.6a6.39,6.39,0,0,1,.08-.72l-1.5,5.67h-.16l-1.5-5.67c0,.4.08.64.08.72v5.81h-.77V39.24h.76l1.48,6a1.84,1.84,0,0,1,0,.27c0-.06,0-.15,0-.27l1.49-6h.76Z" transform="translate(0 0)"/>
    </g>
    <rect x="80" y="170" width="40" height="10" style="fill: #fffffd"/>
    <g>
      <path d="M84,169.24l-1.25,9.19h-.66l-1-6.91c0-.12,0-.3,0-.54,0,.12,0,.3,0,.54l-1,6.91h-.66l-1.25-9.19h.81l.78,6.61c0,.15,0,.37,0,.66q0-.22,0-.66l.94-6.61h.7l1,6.61c0,.15,0,.37,0,.66q0-.22,0-.66l.78-6.61Z" transform="translate(0 0)"/>
      <path d="M88.75,178.41h-.81l-.32-2H85.79l-.32,2h-.78v0l1.63-9.17h.8Zm-1.24-2.76-.8-5-.81,5Z" transform="translate(0 0)"/>
      <path d="M93.43,169.24l-1.59,9.19h-.77l-1.58-9.19h.8l1.14,7.3,0,.6a5.37,5.37,0,0,1,0-.6l1.13-7.3Z" transform="translate(0 0)"/>
      <path d="M97.54,178.41h-3v-9.17h3V170H95.34v3.42h2v.73h-2v3.58h2.2Z" transform="translate(0 0)"/>
      <path d="M104.8,174.11a.67.67,0,0,1-.19.48.64.64,0,0,1-.47.18H102v3.64h-.82v-9.17h3a.64.64,0,0,1,.47.18.65.65,0,0,1,.19.47ZM104,174V170h-2V174Z" transform="translate(0 0)"/>
      <path d="M107,178.41h-.82v-9.17H107Z" transform="translate(0 0)"/>
      <path d="M111.63,170h-1.41v8.45h-.82V170H108v-.72h3.66Z" transform="translate(0 0)"/>
      <path d="M116.26,177.76a.64.64,0,0,1-.18.47.68.68,0,0,1-.48.18h-2.36a.62.62,0,0,1-.65-.65v-7.87a.62.62,0,0,1,.65-.65h2.36a.68.68,0,0,1,.48.18.64.64,0,0,1,.18.47V172h-.82V170h-2v7.73h2v-2.26h.82Z" transform="translate(0 0)"/>
      <path d="M121.52,178.41h-.81V174H118.5v4.41h-.81v-9.17h.81v4h2.21v-4h.81Z" transform="translate(0 0)"/>
    </g>
    <rect x="5" y="115" width="30" height="10" style="fill: #ededed"/>
    <g>
      <path d="M9.63,123.07H9v-7.64h.67Z" transform="translate(0 0)"/>
      <path d="M14.06,123.07h-.47l-2-5.62v5.62h-.64v-7.64h.51l2,5.52v-5.52h.64Z" transform="translate(0 0)"/>
      <path d="M17.91,116H16.73v7h-.68v-7H14.86v-.6h3.05Z" transform="translate(0 0)"/>
      <path d="M21.22,123.07H18.71v-7.64h2.48v.6H19.38v2.85H21v.61H19.38v3h1.84Z" transform="translate(0 0)"/>
      <path d="M25.53,123.07h-.72L23.39,119l.1-.14H24.7V116H23v7h-.67v-7.64h2.55a.53.53,0,0,1,.39.15.5.5,0,0,1,.16.39v2.9c0,.37-.25.55-.75.55h-.42Z" transform="translate(0 0)"/>
      <path d="M29.57,119.49a.53.53,0,0,1-.15.39.58.58,0,0,1-.4.16h-1.8v3h-.68v-7.64H29a.57.57,0,0,1,.4.15.53.53,0,0,1,.15.39Zm-.68-.06V116H27.22v3.4Z" transform="translate(0 0)"/>
      <path d="M31.24,123.07h-.75v-.86h.75Z" transform="translate(0 0)"/>
    </g>
    <g>
      <path d="M9.63,58.07H9V50.43h.67Z" transform="translate(0 0)"/>
      <path d="M14.06,58.07h-.47l-2-5.62v5.62h-.64V50.43h.51l2,5.52V50.43h.64Z" transform="translate(0 0)"/>
      <path d="M17.91,51H16.73v7h-.68V51H14.86v-.6h3.05Z" transform="translate(0 0)"/>
      <path d="M21.22,58.07H18.71V50.43h2.48V51H19.38v2.85H21v.61H19.38v3h1.84Z" transform="translate(0 0)"/>
      <path d="M25.53,58.07h-.72L23.39,54l.1-.14H24.7V51H23v7h-.67V50.43h2.55a.53.53,0,0,1,.39.15.5.5,0,0,1,.16.39v2.9c0,.37-.25.55-.75.55h-.42Z" transform="translate(0 0)"/>
      <path d="M29.57,54.49a.53.53,0,0,1-.15.39A.58.58,0,0,1,29,55h-1.8v3h-.68V50.43H29a.57.57,0,0,1,.4.15.53.53,0,0,1,.15.39Zm-.68-.06V51H27.22v3.4Z" transform="translate(0 0)"/>
      <path d="M31.24,58.07h-.75v-.86h.75Z" transform="translate(0 0)"/>
    </g>
    <rect x="5" y="180" width="30" height="10" style="fill: #fffffd"/>
    <g>
      <path d="M16.26,188.07H13.82v-7.64h.68v7h1.76Z" transform="translate(0 0)"/>
      <path d="M17.91,188.07h-.68v-7.64h.68Z" transform="translate(0 0)"/>
      <path d="M22.33,188.07h-.47l-2-5.62v5.62h-.64v-7.64h.51l2,5.52v-5.52h.64Z" transform="translate(0 0)"/>
      <path d="M26.74,188.07H26l-1.76-3.67v3.67h-.68v-7.64h.68v3.43l1.6-3.43h.74v0l-1.73,3.64Z" transform="translate(0 0)"/>
    </g>
    <rect x="5" y="308" width="30" height="12" style="fill: #fffffd"/>
    <g>
      <path d="M11.46,310.43l-1.32,7.66H9.5l-1.32-7.66h.67l1,6.08,0,.5c0-.12,0-.28,0-.5l1-6.08Z" transform="translate(0 0)"/>
      <path d="M17.83,310.47l-3.23,7.6H14v0l3.23-7.6h.65Z" transform="translate(0 0)"/>
      <path d="M23.85,317.53a.55.55,0,0,1-.16.39.53.53,0,0,1-.39.15H21.16a.53.53,0,0,1-.39-.15.54.54,0,0,1-.15-.39V311a.51.51,0,0,1,.54-.54H23.3a.53.53,0,0,1,.39.15.53.53,0,0,1,.16.39Zm-.68-.06V311H21.3v6.44Z" transform="translate(0 0)"/>
      <path d="M28.13,317.53a.51.51,0,0,1-.16.39.53.53,0,0,1-.39.15h-2a.53.53,0,0,1-.39-.15.54.54,0,0,1-.15-.39V311a.51.51,0,0,1,.54-.54h2a.53.53,0,0,1,.39.15.5.5,0,0,1,.16.39v1.78h-.69V311h-1.7v6.44h1.7v-1.88h.69Z" transform="translate(0 0)"/>
      <path d="M32,311H30.76v7h-.67v-7h-1.2v-.6H32Z" transform="translate(0 0)"/>
    </g>
    <g>
      <path d="M84.2,113.41h-3v-9.17h3V105H82v3.42h2v.73H82v3.58h2.2Z" transform="translate(0 0)"/>
      <path d="M89.25,113.41h-.56l-2.45-6.74v6.74h-.77v-9.17h.61l2.4,6.63v-6.63h.77Z" transform="translate(0 0)"/>
      <path d="M94.3,104.24l-1.59,9.19h-.77l-1.59-9.19h.81l1.14,7.3,0,.6c0-.14,0-.34,0-.6l1.14-7.3Z" transform="translate(0 0)"/>
      <path d="M96.11,113.41h-.89v-1h.89Z" transform="translate(0 0)"/>
      <path d="M102.69,105h-2.14v3.48h2v.73h-2v4.24h-.81v-9.17h3Z" transform="translate(0 0)"/>
      <path d="M107.69,112.76a.64.64,0,0,1-.18.47.66.66,0,0,1-.48.18h-2.56a.62.62,0,0,1-.65-.65v-7.87a.62.62,0,0,1,.65-.65H107a.66.66,0,0,1,.48.18.64.64,0,0,1,.18.47Zm-.81-.07V105h-2.25v7.73Z" transform="translate(0 0)"/>
      <path d="M113.06,113.41h-.86l-1.7-4.91.11-.17h1.45V105H110v8.45h-.81v-9.17h3.07a.62.62,0,0,1,.46.18.61.61,0,0,1,.19.47v3.48c0,.44-.3.66-.89.66h-.51Z" transform="translate(0 0)"/>
      <path d="M118.81,113.41H118V107.6q0-.12.09-.72l-1.5,5.67h-.17l-1.5-5.67a6.39,6.39,0,0,1,.08.72v5.81h-.76v-9.17H115l1.49,6a1.23,1.23,0,0,1,0,.27,1.8,1.8,0,0,1,0-.27l1.49-6h.75Z" transform="translate(0 0)"/>
    </g>
    <g>
      <path d="M62.32,372.73h-.64v-4.84a5.56,5.56,0,0,1,.07-.6L60.5,372h-.14l-1.25-4.72a5.56,5.56,0,0,1,.07.6v4.84h-.64v-7.65h.63l1.24,5a1.59,1.59,0,0,1,0,.22s0-.13,0-.22l1.24-5h.63Z" transform="translate(0 0)"/>
      <path d="M66.77,372.18a.54.54,0,0,1-.16.4.53.53,0,0,1-.39.15H64.08a.53.53,0,0,1-.39-.15.57.57,0,0,1-.15-.4v-6.55a.53.53,0,0,1,.15-.39.53.53,0,0,1,.39-.16h2.14a.53.53,0,0,1,.39.16.5.5,0,0,1,.16.39Zm-.68-.05v-6.44H64.22v6.44Z" transform="translate(0 0)"/>
      <path d="M71,372.18a.57.57,0,0,1-.15.4.53.53,0,0,1-.39.15H68.51a.52.52,0,0,1-.55-.55v-1.93h.68v1.88h1.65V370.3l-2.11-2.54a.88.88,0,0,1-.22-.59v-1.54a.53.53,0,0,1,.15-.39.58.58,0,0,1,.4-.16h1.92a.53.53,0,0,1,.39.16.53.53,0,0,1,.15.39v1.77h-.68v-1.71H68.64v1.61l2.12,2.55a.86.86,0,0,1,.21.57Z" transform="translate(0 0)"/>
      <path d="M75.92,372.74h-.06l-.5-.41a.47.47,0,0,1-.5.4H72.71a.53.53,0,0,1-.39-.15.57.57,0,0,1-.15-.4v-6.55a.53.53,0,0,1,.15-.39.53.53,0,0,1,.39-.16h2.15a.53.53,0,0,1,.39.16.53.53,0,0,1,.15.39v6l.52.42Zm-1.2-.61v-.3l-.81-.68v-.66H74l.75.62v-5.42H72.85v6.44Z" transform="translate(0 0)"/>
      <path d="M79.84,372.18a.52.52,0,0,1-.55.55H77.21a.53.53,0,0,1-.39-.15.57.57,0,0,1-.15-.4v-7.1h.68v7.05h1.81v-7.05h.68Z" transform="translate(0 0)"/>
      <path d="M81.78,372.73H81.1v-7.65h.68Z" transform="translate(0 0)"/>
      <path d="M85.68,365.69H84.5v7h-.68v-7H82.63v-.61h3.05Z" transform="translate(0 0)"/>
      <path d="M89.71,372.18a.54.54,0,0,1-.16.4.53.53,0,0,1-.39.15H87a.53.53,0,0,1-.39-.15.57.57,0,0,1-.15-.4v-6.55a.53.53,0,0,1,.15-.39.53.53,0,0,1,.39-.16h2.14a.53.53,0,0,1,.39.16.5.5,0,0,1,.16.39Zm-.68-.05v-6.44H87.16v6.44Z" transform="translate(0 0)"/>
      <path d="M95.33,372.73H92.89v-7.65h.67v7.05h1.77Z" transform="translate(0 0)"/>
      <path d="M99.34,372.73h-.68l-.27-1.7H96.88l-.27,1.7H96v0l1.36-7.64H98Zm-1-2.3-.67-4.14L97,370.43Z" transform="translate(0 0)"/>
      <path d="M103.32,372.18a.54.54,0,0,1-.16.4.53.53,0,0,1-.39.15h-2.52v-7.65h2.5a.53.53,0,0,1,.39.16.5.5,0,0,1,.16.39v2.27a.64.64,0,0,1-.28.51l-.53.32.57.37a.54.54,0,0,1,.26.49Zm-.71-4.19v-2.3h-1.68v2.75h1Zm0,4.14v-2.65l-.69-.44h-1v3.09Z" transform="translate(0 0)"/>
      <path d="M107.48,372.18a.57.57,0,0,1-.15.4.53.53,0,0,1-.39.15H105a.53.53,0,0,1-.39-.15.54.54,0,0,1-.16-.4v-1.93h.68v1.88h1.65V370.3l-2.11-2.54a.94.94,0,0,1-.22-.59v-1.54a.5.5,0,0,1,.16-.39.53.53,0,0,1,.39-.16h1.92a.53.53,0,0,1,.39.16.53.53,0,0,1,.15.39v1.77h-.68v-1.71h-1.65v1.61l2.12,2.55a.86.86,0,0,1,.21.57Z" transform="translate(0 0)"/>
    </g>
    <g>
      <path d="M54.6,187.53a.53.53,0,0,1-.16.39.53.53,0,0,1-.39.15h-2a.51.51,0,0,1-.54-.54V181a.51.51,0,0,1,.54-.54h2a.53.53,0,0,1,.39.15.53.53,0,0,1,.16.39v1.78h-.69V181h-1.7v6.44h1.7v-1.88h.69Z" transform="translate(0 0)"/>
      <path d="M58.77,180.43l-1.33,7.66H56.8l-1.32-7.66h.67l1,6.08,0,.5c0-.12,0-.28,0-.5l.94-6.08Z" transform="translate(0 0)"/>
    </g>
    <g>
      <path d="M54.6,122.53a.53.53,0,0,1-.16.39.53.53,0,0,1-.39.15h-2a.51.51,0,0,1-.54-.54V116a.51.51,0,0,1,.54-.54h2a.53.53,0,0,1,.39.15.53.53,0,0,1,.16.39v1.78h-.69V116h-1.7v6.44h1.7v-1.88h.69Z" transform="translate(0 0)"/>
      <path d="M58.77,115.43l-1.33,7.66H56.8l-1.32-7.66h.67l1,6.08,0,.5c0-.12,0-.28,0-.5l.94-6.08Z" transform="translate(0 0)"/>
    </g>
    <g>
      <path d="M141.37,252.53a.51.51,0,0,1-.54.54h-2a.51.51,0,0,1-.54-.54V246a.51.51,0,0,1,.54-.54h2a.51.51,0,0,1,.54.54v1.78h-.68V246H139v6.44h1.73v-2.64h-.82v-.59h1.5Z" transform="translate(0 0)"/>
      <path d="M145.66,253.07H145l-.27-1.7H143.2l-.27,1.7h-.65v0l1.36-7.64h.67Zm-1-2.3-.67-4.14-.67,4.14Z" transform="translate(0 0)"/>
      <path d="M147.3,253.07h-.68v-7.64h.68Z" transform="translate(0 0)"/>
      <path d="M151.72,253.07h-.47l-2-5.62v5.62h-.64v-7.64h.51l2,5.52v-5.52h.64Z" transform="translate(0 0)"/>
    </g>
  </g>
  <g id="Layer_11" data-name="Layer 11">
    <rect width="165" height="36" style="fill: #ededed"/>
    <line x1="13" y1="30" x2="153" y2="30.48" style="fill: none;stroke: #000;stroke-miterlimit: 10;stroke-width: 2px"/>
  </g>
  <g id="Layer_9" data-name="Layer 9">
    <path d="M14.78,30v10.6H12V20.94h2.78v.85l.12,0a3.68,3.68,0,0,1,2.76-1.08,4.81,4.81,0,0,1,4.66,5,4.9,4.9,0,0,1-4.85,5A4.15,4.15,0,0,1,14.78,30Zm0-5.9v4a5.45,5.45,0,0,0,2.34.45,2.54,2.54,0,0,0,2.42-2.75A2.55,2.55,0,0,0,17.12,23,2.72,2.72,0,0,0,14.78,24.07Z" transform="translate(0 0)"/>
    <path d="M42.25,27.94a8.45,8.45,0,0,0,2.65.5c.81,0,1.45-.23,1.45-.79s-.27-.76-1.51-1c-1.85-.39-3-1.29-3-2.84,0-2,1.81-3.05,3.82-3.05a8.34,8.34,0,0,1,3.1.65l-.41,2.17a7.74,7.74,0,0,0-2.53-.5c-.66,0-1.24.25-1.24.73s.21.71,1.51,1c1.89.38,3,1.16,3,2.8,0,2.18-2,3.19-4,3.19a9,9,0,0,1-3.24-.64Z" transform="translate(0 0)"/>
    <path d="M60.74,25.42v1.16H53.88c.19,1.34,1,1.92,2.86,1.94a6.9,6.9,0,0,0,2.84-.58l.48,2a6.93,6.93,0,0,1-3.32.83c-3.48,0-5.69-1.9-5.69-5a4.85,4.85,0,0,1,5-5A4.38,4.38,0,0,1,60.74,25.42ZM54,24.77h4A1.69,1.69,0,0,0,56.1,23,2,2,0,0,0,54,24.77Z" transform="translate(0 0)"/>
    <path d="M69.58,28.52a6.74,6.74,0,0,0,2.72-.45l.54,2.19a8.44,8.44,0,0,1-3.26.54,7,7,0,1,1,0-13.92,8.09,8.09,0,0,1,3.26.56l-.54,2.17a8.1,8.1,0,0,0-2.72-.45,4.45,4.45,0,0,0-4.26,4.68A4.37,4.37,0,0,0,69.58,28.52Z" transform="translate(0 0)"/>
    <path d="M73.84,17.07h9.65v1.59l-6.34,9.66h6.53V30.6h-10V29L80,19.36H73.84Z" transform="translate(0 0)"/>
    <path d="M93.22,27.61H88.41l-1,3H84.45l5-13.53h2.69l5,13.53H94.25ZM89.16,25.4h3.31l-1.28-3.76-.33-1.4h-.11l-.29,1.38Z" transform="translate(0 0)"/>
    <path d="M98.78,17.07h4.5c3.4,0,5.3,1.92,5.3,4.18a3.87,3.87,0,0,1-2.42,3.61l3.21,5.74H106.3l-2.84-5.18h-1.9V30.6H98.78Zm2.78,2.29v3.78h1.72c1.7,0,2.52-.65,2.52-1.89s-.82-1.89-2.52-1.89Z" transform="translate(0 0)"/>
    <g>
      <path d="M117.72,26.7a.52.52,0,0,1-.14.36.53.53,0,0,1-.37.14h-1.7V30h-.64V23h2.34a.53.53,0,0,1,.37.14.49.49,0,0,1,.14.36Zm-.64-.05V23.56h-1.57v3.09Z" transform="translate(0 0)"/>
      <path d="M121.73,29.45a.46.46,0,0,1-.15.36.51.51,0,0,1-.37.14h-2a.51.51,0,0,1-.37-.14.45.45,0,0,1-.14-.36V23h.64V29.4h1.71V23h.64Z" transform="translate(0 0)"/>
      <path d="M125.19,30h-2.31V23h.64V29.4h1.67Z" transform="translate(0 0)"/>
      <path d="M128.87,29.45a.45.45,0,0,1-.14.36.49.49,0,0,1-.36.14h-1.82a.53.53,0,0,1-.37-.14.46.46,0,0,1-.15-.36V27.7h.64v1.7h1.56V27.75l-2-2.31a.79.79,0,0,1-.21-.53v-1.4a.46.46,0,0,1,.15-.36.53.53,0,0,1,.37-.14h1.82a.49.49,0,0,1,.36.14.45.45,0,0,1,.14.36v1.61h-.64V23.56h-1.56V25l2,2.31a.76.76,0,0,1,.2.52Z" transform="translate(0 0)"/>
      <path d="M132.92,30h-.64L132,28.4h-1.44L130.34,30h-.62v0L131,23h.63Zm-1-2.09-.63-3.76-.64,3.76Z" transform="translate(0 0)"/>
      <path d="M136.85,30h-.67l-1.34-3.72.08-.12h1.15V23.56h-1.65V30h-.64V23h2.42a.53.53,0,0,1,.37.14.49.49,0,0,1,.14.36v2.63c0,.33-.24.5-.7.5h-.4C136,27.73,136.44,28.84,136.85,30Z" transform="translate(0 0)"/>
      <path d="M142.71,29.45a.46.46,0,0,1-.15.36.53.53,0,0,1-.37.14h-2a.53.53,0,0,1-.37-.14.49.49,0,0,1-.14-.36V23.51a.49.49,0,0,1,.14-.36.53.53,0,0,1,.37-.14h2a.53.53,0,0,1,.37.14.46.46,0,0,1,.15.36Zm-.65-.05V23.56H140.3V29.4Z" transform="translate(0 0)"/>
      <path d="M146.67,29.45a.49.49,0,0,1-.14.36.53.53,0,0,1-.37.14h-1.81a.56.56,0,0,1-.38-.14.49.49,0,0,1-.14-.36V27.7h.64v1.7H146V27.75l-2-2.31a.79.79,0,0,1-.21-.53v-1.4a.49.49,0,0,1,.14-.36.56.56,0,0,1,.38-.14h1.81a.53.53,0,0,1,.37.14.49.49,0,0,1,.14.36v1.61H146V23.56h-1.56V25l2,2.31a.81.81,0,0,1,.2.52Z" transform="translate(0 0)"/>
      <path d="M150.69,29.45a.49.49,0,0,1-.14.36.56.56,0,0,1-.38.14h-1.85a.51.51,0,0,1-.37-.14.46.46,0,0,1-.15-.36V23.51a.46.46,0,0,1,.15-.36.51.51,0,0,1,.37-.14h1.85a.56.56,0,0,1,.38.14.49.49,0,0,1,.14.36v1.61h-.64V23.56h-1.61V29.4h1.61V27.7h.64Z" transform="translate(0 0)"/>
      <path d="M152.37,30h-.7v-.78h.7Z" transform="translate(0 0)"/>
    </g>
    <path d="M33.25,26.08a4.53,4.53,0,0,1-4.83,4.6,4.54,4.54,0,0,1-4.83-4.6V20.82h2.78v5.26c0,1.57.87,2.32,2.05,2.32s2-.75,2-2.32V20.82h2.78Z" transform="translate(0 0)"/>
    <path d="M39.92,30.68c-2.74,0-4-1.18-4-3.48V16.4h2.79V26.89c0,.89.5,1.3,1.39,1.36Z" transform="translate(0 0)"/>
  </g>
</svg>
